<svg width="657" height="156" viewBox="0 0 657 156" fill="none" xmlns="http://www.w3.org/2000/svg">
<path d="M31.8902 125.71H0.680176V153.46H31.8902V125.71Z" fill="#CDE200"/>
<path d="M169.51 0.200195H138.99V27.9502H169.51V0.200195Z" fill="#CDE200"/>
<path d="M588.26 125.71H558.42V153.46H588.26V125.71Z" fill="#CDE200"/>
<path d="M169.3 41.1802H139.42V153.45H169.3V41.1802Z" fill="white"/>
<path d="M223.72 141.93V153.46H193.84V0.200195H223.72V52.7102C230.34 44.6002 241.01 39.0502 255.1 39.0502C286.05 39.0502 303.98 65.5202 303.98 97.3202C303.98 129.12 286.05 155.81 255.1 155.81C241.01 155.81 230.34 150.26 223.72 141.94M223.08 100.53C223.08 119.53 233.75 130.2 248.05 130.2C264.91 130.2 273.88 116.75 273.88 97.3302C273.88 77.9102 264.92 64.6702 248.05 64.6702C233.75 64.6702 223.08 75.1302 223.08 94.3402V100.53V100.53Z" fill="white"/>
<path d="M343.24 141.93V153.46H313.36V0.200195H343.24V52.7102C349.86 44.6002 360.53 39.0502 374.62 39.0502C405.57 39.0502 423.5 65.5202 423.5 97.3202C423.5 129.12 405.57 155.81 374.62 155.81C360.53 155.81 349.86 150.26 343.24 141.94M342.6 100.53C342.6 119.53 353.27 130.2 367.57 130.2C384.43 130.2 393.4 116.75 393.4 97.3302C393.4 77.9102 384.43 64.6702 367.57 64.6702C353.27 64.6702 342.6 75.1302 342.6 94.3402V100.53V100.53Z" fill="white"/>
<path d="M490.09 155.8C457.64 155.8 435.02 132.32 435.02 97.31C435.02 62.3 457.64 39.04 490.09 39.04C522.54 39.04 545.16 62.52 545.16 97.31C545.16 132.1 522.54 155.8 490.09 155.8ZM490.09 131.04C505.67 131.04 515.28 118.66 515.28 97.31C515.28 75.96 505.68 63.8 490.09 63.8C474.5 63.8 464.69 76.18 464.69 97.31C464.69 118.44 474.51 131.04 490.09 131.04Z" fill="white"/>
<path d="M558.42 41.1798H588.31V52.7098C594.5 45.4498 604.74 39.0498 619.05 39.0498C642.53 39.0498 656.83 55.0598 656.83 79.3898V153.46H626.95V87.9298C626.95 75.3398 621.83 66.3698 609.02 66.3698C598.56 66.3698 588.32 73.8398 588.32 88.5698V114.7H558.43V41.1898L558.42 41.1798Z" fill="white"/>
<path d="M32.0602 114.44H0.680176V0.200195H63.4302C98.6502 0.200195 120.64 16.8502 120.64 48.4402C120.64 71.7102 108.05 87.2902 86.4902 93.4802L124.7 153.46H88.8402L53.4102 96.4702H32.0602V114.45V114.44ZM61.7302 70.2102C80.0802 70.2102 89.4802 62.3102 89.4802 48.6502C89.4802 34.9902 80.0902 26.8802 61.7302 26.8802H32.0602V70.2102H61.7302V70.2102Z" fill="white"/>
</svg>
