<?xml version="1.0" encoding="UTF-8"?><svg id="Layer_2" xmlns="http://www.w3.org/2000/svg" viewBox="0 0 100 100"><defs><style>.cls-1{fill:#fff;}.cls-2{fill:#00585c;stroke:#fff;stroke-miterlimit:10;stroke-width:.77px;}</style></defs><rect class="cls-2" x="-329" y="-10" width="450" height="120"/><path class="cls-1" d="m41.83,37.4c11.49,0,20.83,9.35,20.83,20.83s-9.35,20.83-20.83,20.83-20.83-9.35-20.83-20.83,9.35-20.83,20.83-20.83m0-1c-12.06,0-21.83,9.78-21.83,21.83s9.77,21.83,21.83,21.83,21.83-9.77,21.83-21.83-9.77-21.83-21.83-21.83h0Z"/><path class="cls-1" d="m58.17,20.93c11.49,0,20.83,9.35,20.83,20.83s-9.35,20.83-20.83,20.83-20.83-9.35-20.83-20.83,9.35-20.83,20.83-20.83m0-1c-12.06,0-21.83,9.77-21.83,21.83s9.77,21.83,21.83,21.83,21.83-9.78,21.83-21.83-9.77-21.83-21.83-21.83h0Z"/></svg>