<?xml version="1.0" encoding="UTF-8"?><svg id="Layer_2" xmlns="http://www.w3.org/2000/svg" viewBox="0 0 100 100"><defs><style>.cls-1{fill:#00585c;}.cls-2{fill:#fff;}.cls-3{fill:none;stroke:#fff;stroke-miterlimit:10;}</style></defs><rect class="cls-1" x="-370" y="-10" width="620" height="120"/><rect class="cls-3" x="15" y="26.08" width="41.76" height="12.39"/><line class="cls-3" x1="52.19" y1="28.61" x2="52.19" y2="35.93"/><line class="cls-3" x1="48.3" y1="28.61" x2="48.3" y2="35.93"/><line class="cls-3" x1="44.42" y1="28.61" x2="44.42" y2="35.93"/><rect class="cls-3" x="43.24" y="61.53" width="41.76" height="12.39"/><line class="cls-3" x1="80.43" y1="64.07" x2="80.43" y2="71.39"/><line class="cls-3" x1="76.55" y1="64.07" x2="76.55" y2="71.39"/><line class="cls-3" x1="72.66" y1="64.07" x2="72.66" y2="71.39"/><path class="cls-3" d="m22.32,39.83v6.1c0,1.88,1.52,3.4,3.4,3.4h21.96c1.88,0,3.4,1.52,3.4,3.4v3.06"/><polygon class="cls-2" points="48.59 55.07 51.08 59.39 53.57 55.07 48.59 55.07"/><path class="cls-3" d="m80.96,59.82v-6.1c0-1.88-1.52-3.4-3.4-3.4h-21.96c-1.88,0-3.4-1.52-3.4-3.4v-3.06"/><polygon class="cls-2" points="54.69 44.59 52.19 40.27 49.7 44.59 54.69 44.59"/></svg>