<?xml version="1.0" encoding="UTF-8"?><svg id="Layer_1" xmlns="http://www.w3.org/2000/svg" viewBox="0 0 480 420"><defs><style>.cls-1{fill:#f3f3d1;}.cls-2{fill:#00585c;}.cls-3{fill:teal;}.cls-4{fill:#fff;}.cls-5{fill:#8bc3bf;}.cls-6{fill:#cde9e7;}.cls-7{fill:#c7dc00;}.cls-8{fill:#dee47d;}.cls-9{fill-rule:evenodd;}.cls-9,.cls-10,.cls-11,.cls-12,.cls-13,.cls-14{fill:none;}.cls-9,.cls-10,.cls-11,.cls-12,.cls-14{stroke-miterlimit:10;}.cls-9,.cls-10,.cls-12,.cls-14{stroke:#fff;}.cls-9,.cls-13,.cls-14{stroke-width:.5px;}.cls-10{stroke-dasharray:0 0 1.08 1.08;}.cls-10,.cls-12{stroke-width:.62px;}.cls-11{stroke-width:2px;}.cls-11,.cls-13{stroke:#000;}.cls-13{stroke-linejoin:bevel;}</style></defs><rect class="cls-2" x="170" y="30" width="20" height="20"/><rect class="cls-5" x="70" y="40" width="20" height="20"/><rect class="cls-7" x="50" y="140" width="20" height="20"/><rect class="cls-1" x="60" y="280" width="20" height="20"/><rect class="cls-3" x="80" y="380" width="20" height="20"/><rect class="cls-2" x="160" y="360" width="20" height="20"/><rect class="cls-7" x="400" y="140" width="20" height="20"/><rect class="cls-3" x="360" y="260" width="20" height="20"/><rect class="cls-8" x="290" y="200" width="20" height="20"/><rect class="cls-6" x="200" y="20" width="10" height="10"/><rect class="cls-7" x="170" y="120" width="10" height="10"/><rect class="cls-8" x="100" y="80" width="10" height="10"/><rect class="cls-8" x="60" y="360" width="10" height="10"/><rect class="cls-2" x="100" y="270" width="10" height="10"/><rect class="cls-3" x="130" y="290" width="10" height="10"/><rect class="cls-7" x="310" y="230" width="10" height="10"/><rect class="cls-6" x="400" y="220" width="10" height="10"/><rect class="cls-3" x="370" y="160" width="10" height="10"/><rect class="cls-2" x="140" y="40" width="10" height="10"/><rect class="cls-5" x="120" y="110" width="10" height="10"/><rect class="cls-3" x="60" y="80" width="10" height="10"/><rect class="cls-6" x="100" y="360" width="10" height="10"/><rect class="cls-8" x="170" y="300" width="10" height="10"/><rect class="cls-1" x="130" y="370" width="10" height="10"/><rect class="cls-5" x="330" y="170" width="10" height="10"/><rect class="cls-1" x="410" y="190" width="10" height="10"/><rect class="cls-1" x="400" y="280" width="10" height="10"/><rect class="cls-7" x="110" y="40" width="10" height="10"/><rect class="cls-2" x="80" y="110" width="10" height="10"/><rect class="cls-1" x="100" y="140" width="10" height="10"/><rect class="cls-5" x="80" y="320" width="10" height="10"/><rect class="cls-5" x="160" y="330" width="10" height="10"/><rect class="cls-7" x="190" y="390" width="10" height="10"/><rect class="cls-5" x="270" y="220" width="10" height="10"/><rect class="cls-8" x="360" y="130" width="10" height="10"/><rect class="cls-2" x="420" y="250" width="10" height="10"/><rect class="cls-7" x="110" y="310" width="40" height="40"/><rect class="cls-3" x="130" y="60" width="40" height="40"/><rect class="cls-2" x="340" y="190" width="40" height="40"/><path class="cls-11" d="m325.48,318.22c0-7.03-1.24-13.77-3.52-20.02l17.23-6.34c-3.1-8.43-7.63-16.2-13.45-23.08l-13.99,11.83c-4.39-5.21-9.67-9.64-15.62-13.06l9.11-15.86c-7.82-4.49-16.29-7.55-25.17-9.08l-3.1,18.02c-3.24-.56-6.56-.86-9.95-.86s-7.03.33-10.41.94l-3.21-18.03c-8.87,1.58-17.32,4.68-25.11,9.21l9.23,15.87c-5.91,3.46-11.16,7.92-15.5,13.15l-14.13-11.81c-5.79,6.92-10.27,14.71-13.33,23.16l17.39,6.29c-2.2,6.15-3.4,12.76-3.4,19.67,0,.11,0,.22,0,.33l-18.58.04c.02,9.03,1.59,17.88,4.67,26.3l17.51-6.41c2.38,6.43,5.86,12.32,10.21,17.46l-14.31,12.05c5.8,6.88,12.68,12.65,20.46,17.14l9.37-16.23c5.78,3.33,12.19,5.7,19,6.89l-3.21,18.47c4.36.76,8.82,1.14,13.27,1.14,4.49,0,9-.39,13.39-1.17l-3.24-18.44c6.82-1.19,13.23-3.55,19.01-6.88l9.36,16.16c7.77-4.5,14.64-10.28,20.43-17.17l-14.25-11.96c4.36-5.15,7.84-11.06,10.22-17.51l17.4,6.33c3.07-8.43,4.62-17.29,4.62-26.32v-.22h-18.43Z"/><circle class="cls-11" cx="267.02" cy="318.22" r="35.41"/><path class="cls-11" d="m212.53,154.25l4.39-7.64c-7.82-4.49-16.29-7.55-25.17-9.08l-3.1,18.02c-3.24-.56-6.56-.86-9.95-.86s-7.03.33-10.41.94l-3.21-18.03c-8.87,1.58-17.32,4.68-25.11,9.21l9.23,15.87c-5.91,3.46-11.16,7.92-15.5,13.15l-14.13-11.81c-5.79,6.92-10.27,14.71-13.33,23.16l17.39,6.29c-2.2,6.15-3.4,12.76-3.4,19.67,0,.11,0,.22,0,.33l-18.58.04c.02,9.03,1.59,17.88,4.67,26.3l17.51-6.41c2.38,6.43,5.86,12.32,10.21,17.46l-14.31,12.05c5.8,6.88,12.68,12.65,20.46,17.14l9.37-16.23c5.78,3.33,12.19,5.7,19,6.89l-3.21,18.47c4.36.76,8.82,1.14,13.27,1.14,4.49,0,9-.39,13.39-1.17l-3.24-18.44c6.82-1.19,13.23-3.55,19.01-6.88l5.81,10.03"/><path class="cls-11" d="m232.96,167.47l-9.54,8.07c-4.39-5.21-9.67-9.64-15.62-13.06l4.73-8.22"/><path class="cls-11" d="m231.87,258.03l-8.54-7.17c4.36-5.15,7.84-11.06,10.22-17.51l17.4,6.33c3.07-8.43,4.62-17.29,4.62-26.32v-.22h-18.43c0-7.03-1.24-13.77-3.52-20.02l17.23-6.34c-3.1-8.43-7.63-16.2-13.45-23.08l-4.45,3.76"/><circle class="cls-11" cx="178.69" cy="213.15" r="35.41"/><path class="cls-11" d="m232.96,167.47l4.95-8.57c5.78,3.33,12.19,5.7,19,6.89l-3.21,18.47c4.36.76,8.82,1.14,13.27,1.14,4.49,0,9-.39,13.39-1.17l-3.24-18.44c6.82-1.19,13.23-3.55,19.01-6.88l9.36,16.16c7.77-4.5,14.64-10.28,20.43-17.17l-14.25-11.96c4.36-5.15,7.84-11.06,10.22-17.51l17.4,6.33c3.07-8.43,4.62-17.29,4.62-26.32v-.22h-18.43c0-7.03-1.24-13.77-3.52-20.02l17.23-6.34c-3.1-8.43-7.63-16.2-13.45-23.08l-13.99,11.83c-4.39-5.21-9.67-9.64-15.62-13.06l9.11-15.86c-7.82-4.49-16.29-7.55-25.17-9.08l-3.1,18.02c-3.24-.56-6.56-.86-9.95-.86s-7.03.33-10.41.94l-3.21-18.03c-8.87,1.58-17.32,4.68-25.11,9.21l9.23,15.87c-5.91,3.46-11.16,7.92-15.5,13.15l-14.13-11.81c-5.79,6.92-10.27,14.71-13.33,23.16l17.39,6.29c-2.2,6.15-3.4,12.76-3.4,19.67,0,.11,0,.22,0,.33l-18.58.04c.02,9.03,1.59,17.88,4.67,26.3l17.51-6.41c2.38,6.43,5.86,12.32,10.21,17.46l-9.86,8.3"/><circle class="cls-11" cx="267.02" cy="108.22" r="35.41"/><path class="cls-4" d="m136.33,80.36c.39,0,.71.32.71.71s-.32.71-.71.71-.71-.32-.71-.71.32-.71.71-.71m0-.62c-.73,0-1.33.6-1.33,1.33s.6,1.33,1.33,1.33,1.33-.6,1.33-1.33-.6-1.33-1.33-1.33h0Z"/><line class="cls-12" x1="137.66" y1="81.06" x2="157.53" y2="81.06"/><polygon class="cls-4" points="156.63 84.16 161.99 81.06 156.63 77.97 156.63 84.16"/><line class="cls-12" x1="136.33" y1="79.73" x2="136.33" y2="79.19"/><path class="cls-10" d="m136.33,78.11v-6.1c0-1.78,1.45-3.23,3.23-3.23s3.23,1.45,3.23,3.23v15.98c0,1.78,1.45,3.23,3.23,3.23h.46c1.78,0,3.23-1.45,3.23-3.23v-11.75c0-1.78,1.45-3.23,3.23-3.23h.25c1.78,0,3.23,1.45,3.23,3.23v9.64c0,1.78,1.45,3.23,3.23,3.23h.8c1.78,0,3.23-1.45,3.23-3.23v-2.41"/><line class="cls-12" x1="163.67" y1="82.94" x2="163.67" y2="82.39"/><path class="cls-4" d="m163.67,80.78c.39,0,.71.32.71.71s-.32.71-.71.71-.71-.32-.71-.71.32-.71.71-.71m0-.62c-.73,0-1.33.59-1.33,1.33s.6,1.33,1.33,1.33,1.33-.6,1.33-1.33-.6-1.33-1.33-1.33h0Z"/><circle class="cls-14" cx="360" cy="210" r="10.73"/><path class="cls-9" d="m366.87,210c0,3.79-3.08,6.87-6.87,6.87s-6.87-3.08-6.87-6.87"/><polygon class="cls-9" points="356.16 202.88 356.95 204.49 358.72 204.75 357.44 206 357.74 207.76 356.16 206.93 354.57 207.76 354.87 206 353.59 204.75 355.36 204.49 356.16 202.88"/><polygon class="cls-9" points="364.31 202.88 365.1 204.49 366.87 204.75 365.59 206 365.89 207.76 364.31 206.93 362.72 207.76 363.02 206 361.74 204.75 363.51 204.49 364.31 202.88"/><polygon class="cls-13" points="122.48 335.14 120.14 331.09 117.81 335.14 118.68 335.14 118.68 342.06 121.61 342.06 121.61 335.14 122.48 335.14"/><polygon class="cls-13" points="128.94 333.58 126.6 329.53 124.27 333.58 125.14 333.58 125.14 342.06 128.07 342.06 128.07 333.58 128.94 333.58"/><polygon class="cls-13" points="135.4 329.63 133.07 325.59 130.73 329.63 131.6 329.63 131.6 342.06 134.53 342.06 134.53 329.63 135.4 329.63"/><polygon class="cls-13" points="141.86 324.37 139.53 320.33 137.19 324.37 138.06 324.37 138.06 342.06 140.99 342.06 140.99 324.37 141.86 324.37"/><polygon class="cls-13" points="133.78 319.41 134.05 319.96 134.65 320.04 134.21 320.47 134.32 321.07 133.78 320.79 133.24 321.07 133.34 320.47 132.9 320.04 133.51 319.96 133.78 319.41"/><polygon class="cls-13" points="137.8 317.94 138.01 318.35 138.46 318.42 138.13 318.74 138.21 319.19 137.8 318.98 137.4 319.19 137.47 318.74 137.14 318.42 137.6 318.35 137.8 317.94"/><polygon class="cls-13" points="135.4 323.53 135.66 324.05 136.23 324.13 135.82 324.54 135.92 325.11 135.4 324.84 134.89 325.11 134.99 324.54 134.57 324.13 135.15 324.05 135.4 323.53"/><circle class="cls-13" cx="136.71" cy="320.81" r=".48"/><circle class="cls-13" cx="141.57" cy="319.82" r=".63"/></svg>