<?xml version="1.0" encoding="UTF-8"?><svg id="Layer_1" xmlns="http://www.w3.org/2000/svg" viewBox="0 0 270 180"><defs><style>.cls-1,.cls-2,.cls-3,.cls-4,.cls-5,.cls-6,.cls-7,.cls-8,.cls-9,.cls-10,.cls-11,.cls-12,.cls-13,.cls-14,.cls-15{stroke-miterlimit:10;}.cls-1,.cls-2,.cls-6,.cls-7,.cls-8,.cls-9,.cls-16,.cls-14,.cls-15{fill:none;}.cls-1,.cls-3,.cls-4,.cls-5,.cls-17,.cls-9,.cls-10,.cls-11,.cls-13,.cls-18,.cls-16,.cls-14,.cls-15{stroke:#fff;}.cls-1,.cls-12,.cls-13{stroke-width:1.11px;}.cls-19,.cls-17{fill:#f3f3d1;}.cls-20{fill:#00585c;}.cls-21,.cls-3,.cls-10,.cls-13{fill:teal;}.cls-22,.cls-4{fill:#8bc3bf;}.cls-23,.cls-18{fill:#cde9e7;}.cls-24,.cls-12{fill:#c7dc00;}.cls-25{fill:#dee47d;}.cls-2{stroke-width:5px;}.cls-2,.cls-7{stroke:#00585c;}.cls-3,.cls-4,.cls-5,.cls-18,.cls-16,.cls-14{stroke-width:1px;}.cls-5,.cls-11{fill:#fff;}.cls-6,.cls-8{stroke-width:1.02px;}.cls-6,.cls-12{stroke:#000;}.cls-7{stroke-width:1.02px;}.cls-8{stroke:#c7dc00;}.cls-17,.cls-18,.cls-16{stroke-linejoin:bevel;}.cls-17,.cls-15{stroke-width:1px;}.cls-10,.cls-11{stroke-width:1.08px;}</style></defs><rect class="cls-20" width="270" height="180"/><path class="cls-12" d="m163.21,93.79v20h-50v-20c0-5.52,4.48-10,10-10h30c5.53,0,10,4.48,10,10Z"/><line class="cls-15" x1="125.31" y1="99.9" x2="125.31" y2="113.34"/><line class="cls-15" x1="151.12" y1="113.34" x2="151.12" y2="99.9"/><polygon class="cls-17" points="137.1 83.79 130.66 90.23 135.08 94.66 132.44 97.3 138.28 109.48 143.99 97.3 141.34 94.66 145.77 90.23 139.33 83.79 137.1 83.79"/><line class="cls-7" x1="153.32" y1="89.53" x2="153.32" y2="93.53"/><line class="cls-7" x1="151.32" y1="91.53" x2="155.32" y2="91.53"/><path class="cls-1" d="m163.21,93.79v20h-50v-20c0-5.52,4.48-10,10-10h30c5.53,0,10,4.48,10,10Z"/><path class="cls-1" d="m151.47,67.53c-5.01-.26-9.34-3.15-11.61-7.32.49-.6.93-1.24,1.32-1.91,4.83,1.05,8.74,4.61,10.29,9.23Z"/><path class="cls-13" d="m151.47,67.53c-5.01-.26-9.34-3.15-11.61-7.32.49-.6.93-1.24,1.32-1.91,4.83,1.05,8.74,4.61,10.29,9.23Z"/><path class="cls-13" d="m141.18,58.3c-.38.67-.82,1.32-1.32,1.91-2.58,3.14-6.49,5.15-10.87,5.15-1.04,0-2.04-.11-3.01-.32,2.42-4.22,6.97-7.06,12.18-7.06.24,0,.49,0,.73.02.78.04,1.54.14,2.28.3Z"/><path class="cls-1" d="m152.21,69.5c-.08,0-.15,0-.23.02-.12-.68-.29-1.35-.51-1.99-5.01-.26-9.34-3.15-11.61-7.32-2.58,3.14-6.49,5.15-10.87,5.15-1.04,0-2.04-.11-3.01-.32-.79,1.36-1.35,2.88-1.63,4.49-.08-.02-.17-.02-.26-.02-.86,0-1.55.69-1.55,1.54s.69,1.55,1.55,1.55c.01,0,.02,0,.04,0,.19,4.7,2.68,8.8,6.38,11.2h15.3c3.7-2.4,6.19-6.51,6.38-11.2h.01c.85,0,1.54-.69,1.54-1.55s-.69-1.54-1.54-1.54Z"/><path class="cls-2" d="m6.97,73.54c21.34,0,21.34,23.62,42.67,23.62s21.34-23.62,42.68-23.62,21.34,23.62,42.68,23.62,21.34-23.62,42.68-23.62,21.34,23.62,42.68,23.62,21.34-23.62,42.68-23.62"/><path class="cls-9" d="m6.97,73.54c21.34,0,21.34,23.62,42.67,23.62s21.34-23.62,42.68-23.62,21.34,23.62,42.68,23.62,21.34-23.62,42.68-23.62,21.34,23.62,42.68,23.62,21.34-23.62,42.68-23.62"/><polyline class="cls-9" points="259.6 70.11 263.03 73.54 259.92 76.82"/><rect class="cls-21" x="103" y="31" width="20" height="20" transform="translate(154 -72) rotate(90)"/><rect class="cls-23" x="103" y="141" width="10" height="10" transform="translate(254 38) rotate(90)"/><rect class="cls-19" x="213" y="121" width="10" height="10" transform="translate(344 -92) rotate(90)"/><rect class="cls-24" x="23" y="161" width="10" height="10" transform="translate(194 138) rotate(90)"/><rect class="cls-25" x="133" y="161" width="10" height="10" transform="translate(304 28) rotate(90)"/><rect class="cls-22" x="23" y="131" width="10" height="10" transform="translate(164 108) rotate(90)"/><rect class="cls-22" x="243" y="141" width="10" height="10" transform="translate(394 -102) rotate(90)"/><rect class="cls-24" x="83" y="11" width="10" height="10" transform="translate(72 104) rotate(-90)"/><rect class="cls-21" x="133" y="131" width="10" height="10" transform="translate(2 274) rotate(-90)"/><rect class="cls-23" x="163" y="141" width="10" height="10" transform="translate(22 314) rotate(-90)"/><rect class="cls-24" x="63" y="141" width="20" height="20" transform="translate(224 78) rotate(90)"/><rect class="cls-25" x="23" y="21" width="20" height="20" transform="translate(64 -2) rotate(90)"/><rect class="cls-25" x="213" y="21" width="10" height="10" transform="translate(244 -192) rotate(90)"/><rect class="cls-23" x="133" y="11" width="10" height="10" transform="translate(154 -122) rotate(90)"/><rect class="cls-24" x="173" y="41" width="10" height="10" transform="translate(224 -132) rotate(90)"/><rect class="cls-19" x="3" y="51" width="10" height="10" transform="translate(-48 64) rotate(-90)"/><rect class="cls-25" x="63" y="31" width="10" height="10" transform="translate(32 104) rotate(-90)"/><rect class="cls-24" x="253" y="51" width="10" height="10" transform="translate(202 314) rotate(-90)"/><rect class="cls-23" x="233" y="21" width="20" height="20" transform="translate(274 -212) rotate(90)"/><rect class="cls-25" x="183" y="141" width="20" height="20" transform="translate(344 -42) rotate(90)"/><path class="cls-4" d="m82.98,93.79v20h-50v-20c0-5.52,4.48-10,10-10h30c5.52,0,10,4.48,10,10Z"/><line class="cls-14" x1="45.07" y1="99.9" x2="45.07" y2="113.33"/><line class="cls-14" x1="70.89" y1="113.33" x2="70.89" y2="99.9"/><path class="cls-14" d="m70.89,66.75v10.79c-1.1,2.57-2.94,4.74-5.26,6.24h-15.31c-2.28-1.48-4.1-3.62-5.21-6.13v-3.61c7.36-.02,13.39-5.71,13.95-12.93,2.56,3.43,6.65,5.66,11.27,5.66.19,0,.38,0,.56-.01Z"/><path class="cls-10" d="m74.24,63.83v19.95h-3.35v-17.03c-.18,0-.37.01-.56.01-4.62,0-8.71-2.23-11.27-5.66.03-.36.05-.73.05-1.1,0-.67-.05-1.34-.14-1.98-.21-1.48-.65-2.89-1.29-4.19h6.55c5.52,0,10,4.48,10,10Z"/><path class="cls-14" d="m70.89,66.75v17.03h-25.77v-9.74c7.36-.02,13.39-5.71,13.95-12.93,2.56,3.43,6.65,5.66,11.27,5.66.19,0,.38,0,.56-.01Z"/><polygon class="cls-18" points="56.87 83.79 50.42 90.23 54.85 94.66 52.21 97.3 58.05 109.48 63.76 97.3 61.11 94.66 65.54 90.23 59.09 83.79 56.87 83.79"/><line class="cls-8" x1="72.56" y1="89.53" x2="72.56" y2="93.53"/><line class="cls-8" x1="70.56" y1="91.53" x2="74.56" y2="91.53"/><path class="cls-3" d="m59.11,60c0,.37-.02.74-.05,1.1-.56,7.23-6.58,12.91-13.95,12.93v9.74h-3.35v-19.95c0-5.52,4.48-10,10-10h5.91c.64,1.3,1.08,2.71,1.29,4.19.1.64.14,1.31.14,1.98Z"/><path class="cls-5" d="m252.98,93.79v20h-50v-20c0-5.52,4.48-10,10-10h30c5.52,0,10,4.48,10,10Z"/><line class="cls-14" x1="215.07" y1="99.9" x2="215.07" y2="113.33"/><line class="cls-14" x1="240.89" y1="113.33" x2="240.89" y2="99.9"/><path class="cls-14" d="m240.89,66.75v10.79c-1.1,2.57-2.94,4.74-5.26,6.24h-15.31c-2.28-1.48-4.1-3.62-5.21-6.13v-3.61c7.36-.02,13.39-5.71,13.95-12.93,2.56,3.43,6.65,5.66,11.27,5.66.19,0,.38,0,.56-.01Z"/><path class="cls-11" d="m244.24,63.83v19.95h-3.35v-17.03c-.18,0-.37.01-.56.01-4.62,0-8.71-2.23-11.27-5.66.03-.36.05-.73.05-1.1,0-.67-.05-1.34-.14-1.98-.21-1.48-.65-2.89-1.29-4.19h6.55c5.52,0,10,4.48,10,10Z"/><path class="cls-14" d="m240.89,66.75v17.03h-25.77v-9.74c7.36-.02,13.39-5.71,13.95-12.93,2.56,3.43,6.65,5.66,11.27,5.66.19,0,.38,0,.56-.01Z"/><polyline class="cls-16" points="226.87 83.79 220.42 90.23 224.85 94.66 222.21 97.3 228.05 109.48 233.76 97.3 231.11 94.66 235.54 90.23 229.09 83.79"/><line class="cls-6" x1="242.56" y1="89.53" x2="242.56" y2="93.53"/><line class="cls-6" x1="240.56" y1="91.53" x2="244.56" y2="91.53"/><path class="cls-14" d="m229.11,60c0,.37-.02.74-.05,1.1-.56,7.23-6.58,12.91-13.95,12.93v9.74h-3.35v-19.95c0-5.52,4.48-10,10-10h5.91c.64,1.3,1.08,2.71,1.29,4.19.1.64.14,1.31.14,1.98Z"/><path class="cls-4" d="m253,93.79v20h-50v-20c0-5.52,4.48-10,10-10h30c5.52,0,10,4.48,10,10Z"/><line class="cls-14" x1="215.09" y1="99.9" x2="215.09" y2="113.33"/><line class="cls-14" x1="240.91" y1="113.33" x2="240.91" y2="99.9"/><path class="cls-14" d="m240.91,66.75v10.79c-1.1,2.57-2.94,4.74-5.26,6.24h-15.31c-2.28-1.48-4.1-3.62-5.21-6.13v-3.61c7.36-.02,13.39-5.71,13.95-12.93,2.56,3.43,6.65,5.66,11.27,5.66.19,0,.38,0,.56-.01Z"/><path class="cls-10" d="m244.26,63.83v19.95h-3.35v-17.03c-.18,0-.37.01-.56.01-4.62,0-8.71-2.23-11.27-5.66.03-.36.05-.73.05-1.1,0-.67-.05-1.34-.14-1.98-.21-1.48-.65-2.89-1.29-4.19h6.55c5.52,0,10,4.48,10,10Z"/><path class="cls-14" d="m240.91,66.75v17.03h-25.77v-9.74c7.36-.02,13.39-5.71,13.95-12.93,2.56,3.43,6.65,5.66,11.27,5.66.19,0,.38,0,.56-.01Z"/><polygon class="cls-18" points="226.89 83.79 220.44 90.23 224.87 94.66 222.23 97.3 228.07 109.48 233.77 97.3 231.13 94.66 235.56 90.23 229.11 83.79 226.89 83.79"/><line class="cls-8" x1="242.58" y1="89.53" x2="242.58" y2="93.53"/><line class="cls-8" x1="240.58" y1="91.53" x2="244.58" y2="91.53"/><path class="cls-3" d="m229.13,60c0,.37-.02.74-.05,1.1-.56,7.23-6.58,12.91-13.95,12.93v9.74h-3.35v-19.95c0-5.52,4.48-10,10-10h5.91c.64,1.3,1.08,2.71,1.29,4.19.1.64.14,1.31.14,1.98Z"/></svg>