<?xml version="1.0" encoding="UTF-8"?><svg id="Layer_1" xmlns="http://www.w3.org/2000/svg" viewBox="0 0 1440 380"><defs><style>.cls-1{stroke-width:.56px;}.cls-1,.cls-2,.cls-3,.cls-4,.cls-5,.cls-6,.cls-7,.cls-8,.cls-9,.cls-10,.cls-11{fill:none;stroke-miterlimit:10;}.cls-1,.cls-2,.cls-4,.cls-6,.cls-7,.cls-9,.cls-11{stroke:#000;}.cls-12{fill:#f3f3d1;}.cls-13{fill:#00585c;}.cls-14{fill:teal;}.cls-15{fill:#fffff3;}.cls-16{fill:#ffffed;}.cls-17{fill:#8bc3bf;}.cls-18{fill:#cde9e7;}.cls-19{fill:#c7dc00;}.cls-20{fill:#dee47d;}.cls-2,.cls-3{stroke-width:.62px;}.cls-3,.cls-5,.cls-8,.cls-10{stroke:#fff;}.cls-4{stroke-width:.6px;}.cls-5{stroke-width:.62px;}.cls-6,.cls-8{stroke-width:.62px;}.cls-7{stroke-width:.62px;}.cls-9{stroke-width:.62px;}.cls-10,.cls-11{stroke-width:.49px;}</style></defs><rect class="cls-13" x="720" y="260" width="60" height="60" transform="translate(1040 -460) rotate(90)"/><rect class="cls-19" x="180" y="320" width="60" height="60"/><rect class="cls-15" x="1380" y="320" width="60" height="60"/><rect class="cls-13" x="1320" y="320" width="60" height="60"/><rect class="cls-15" x="1260" y="320" width="60" height="60"/><rect class="cls-13" x="1320" y="140" width="60" height="60"/><rect class="cls-17" x="1200" y="320" width="60" height="60"/><rect class="cls-20" x="1140" y="320" width="60" height="60"/><rect class="cls-19" x="1080" y="320" width="60" height="60"/><rect class="cls-18" x="1020" y="320" width="60" height="60"/><rect class="cls-20" x="600" y="320" width="60" height="60"/><rect class="cls-19" x="480" y="320" width="60" height="60" transform="translate(1020 700) rotate(180)"/><rect class="cls-13" x="360" y="320" width="60" height="60"/><rect class="cls-12" x="300" y="320" width="60" height="60"/><rect class="cls-18" x="240" y="320" width="60" height="60"/><rect class="cls-19" x="120" y="320" width="60" height="60" transform="translate(300 700) rotate(180)"/><rect class="cls-13" x="60" y="320" width="60" height="60" transform="translate(180 700) rotate(180)"/><rect class="cls-19" x="60" y="260.17" width="60" height="60" transform="translate(180 580.33) rotate(180)"/><rect class="cls-20" x="0" y="199.97" width="60" height="60" transform="translate(60 459.95) rotate(180)"/><rect class="cls-18" x="780" y="199.97" width="60" height="60" transform="translate(1620 459.95) rotate(-180)"/><rect class="cls-17" x="180" y="140" width="60" height="60" transform="translate(420 340) rotate(180)"/><rect class="cls-17" x="60" y="199.97" width="60" height="60" transform="translate(180 459.95) rotate(-180)"/><rect class="cls-20" x="120" y="199.97" width="60" height="60" transform="translate(300 459.95) rotate(-180)"/><rect class="cls-20" x="120" y="259.83" width="60" height="60" transform="translate(300 579.67) rotate(-180)"/><rect class="cls-17" x="240" y="199.97" width="60" height="60"/><rect class="cls-17" x="360" y="199.97" width="60" height="60"/><rect class="cls-20" x="300" y="260" width="60" height="60"/><rect class="cls-19" x="300" y="199.97" width="60" height="60.17" transform="translate(660 460.11) rotate(180)"/><rect class="cls-12" x="1140" y="260" width="60" height="60"/><rect class="cls-12" x="840" y="260" width="60" height="60"/><rect class="cls-17" x="1080" y="260" width="60" height="60"/><rect class="cls-20" x="960" y="260" width="60" height="60" transform="translate(1980 580) rotate(180)"/><rect class="cls-19" x="600" y="260" width="60" height="60"/><rect class="cls-12" x="480" y="260" width="60" height="60" transform="translate(1020 580) rotate(180)"/><rect class="cls-14" x="360" y="260" width="60" height="60"/><rect class="cls-15" x="1260" y="260" width="60" height="60" transform="translate(2580 580) rotate(180)"/><rect class="cls-18" x="1380" y="260" width="60" height="60" transform="translate(2820 580) rotate(180)"/><rect class="cls-19" x="1020" y="199.97" width="60" height="60" transform="translate(1279.97 -820.03) rotate(90)"/><rect class="cls-13" x="1020" y="140" width="60" height="60" transform="translate(1220 -880) rotate(90)"/><rect class="cls-12" x="660" y="320" width="60" height="60" transform="translate(1040 -340) rotate(90)"/><rect class="cls-18" x="540" y="259.83" width="60" height="60" transform="translate(859.83 -280.17) rotate(90)"/><rect class="cls-14" x="600" y="199.97" width="60" height="60" transform="translate(400.03 859.97) rotate(-90)"/><rect class="cls-17" x="480" y="199.97" width="60" height="60" transform="translate(739.97 -280.03) rotate(90)"/><rect class="cls-19" x="480" y="140" width="60" height="60" transform="translate(340 680) rotate(-90)"/><rect class="cls-18" x="420" y="199.97" width="60" height="60" transform="translate(220.03 679.97) rotate(-90)"/><rect class="cls-19" x="720" y="320" width="60" height="60" transform="translate(400 1100) rotate(-90)"/><rect class="cls-18" x="1080" y="199.97" width="60" height="60" transform="translate(880.03 1339.97) rotate(-90)"/><rect class="cls-19" x="60" y="140.17" width="60" height="60"/><rect class="cls-18" x="960" y="199.97" width="60" height="60"/><rect class="cls-16" x="0" y="139.83" width="60" height="60"/><rect class="cls-14" x="0" y="80" width="60" height="60" transform="translate(140 80) rotate(90)"/><rect class="cls-17" x="1260" y="199.97" width="60" height="60" transform="translate(1519.97 -1060.03) rotate(90)"/><rect class="cls-17" x="1380" y="199.97" width="60" height="60" transform="translate(1639.97 -1180.03) rotate(90)"/><rect class="cls-16" x="1320" y="199.97" width="60" height="60" transform="translate(1579.97 -1120.03) rotate(90)"/><rect class="cls-13" x="1020" y="260" width="60" height="60" transform="translate(1340 -760) rotate(90)"/><rect class="cls-19" x="1319.83" y="199.97" width="60" height="60" transform="translate(1579.81 -1119.86) rotate(90)"/><rect class="cls-15" x="0" y="320" width="60" height="60" transform="translate(380 320) rotate(90)"/><rect class="cls-16" x="960" y="320" width="60" height="60" transform="translate(1340 -640) rotate(90)"/><rect class="cls-18" x="1260" y="140" width="60" height="60" transform="translate(1120 1460) rotate(-90)"/><rect class="cls-12" x="900" y="320" width="60" height="60" transform="translate(1860 700) rotate(180)"/><rect class="cls-17" x="1379.83" y="80" width="60" height="60"/><rect class="cls-19" x="1200" y="199.97" width="60" height="60" transform="translate(1000.03 1459.97) rotate(-90)"/><rect class="cls-20" x="1380" y="320" width="60" height="60" transform="translate(1060 1760) rotate(-90)"/><rect class="cls-20" x="780" y="320" width="60" height="60"/><path class="cls-5" d="m1058.31,161.46c.82,8.49-5.4,16.04-13.89,16.85-8.49.82-16.04-5.4-16.85-13.89-.82-8.49,5.4-16.04,13.89-16.85,8.49-.82,16.04,5.4,16.85,13.89Z"/><path class="cls-5" d="m1034.01,167.57c1.94,3.81,6.04,6.08,10.31,5.37"/><rect class="cls-5" x="1060.82" y="170.27" width="3.51" height="24.59" transform="translate(182.13 804.82) rotate(-45)"/><polygon class="cls-9" points="1432.5 222.79 1417.16 222.79 1417.16 207.41 1402.84 207.41 1402.84 222.79 1387.5 222.79 1387.5 237.15 1402.84 237.15 1402.84 252.54 1417.16 252.54 1417.16 237.15 1432.5 237.15 1432.5 222.79"/><polygon class="cls-9" points="1432.5 222.79 1417.16 222.79 1417.16 207.41 1402.84 207.41 1402.84 222.79 1387.5 222.79 1387.5 237.15 1402.84 237.15 1402.84 252.54 1417.16 252.54 1417.16 237.15 1432.5 237.15 1432.5 222.79"/><path class="cls-10" d="m390.64,365.5l-16.19-16.19c-3.39-3.39-3.39-8.88,0-12.27,3.39-3.39,8.88-3.39,12.27,0l3.42,3.42,2.91-3.16c3.25-3.52,8.73-3.75,12.26-.5,3.52,3.25,3.75,8.73.5,12.26l-15.16,16.45Z"/><polyline class="cls-10" points="367.5 348.4 379.94 348.4 384.88 339.7 391.1 360.3 395.3 343.4 397.68 348.4 412.5 348.4"/><path class="cls-11" d="m150.64,245.47l-16.19-16.19c-3.39-3.39-3.39-8.88,0-12.27,3.39-3.39,8.88-3.39,12.27,0l3.42,3.42,2.91-3.16c3.25-3.52,8.73-3.75,12.26-.5,3.52,3.25,3.75,8.73.5,12.26l-15.16,16.45Z"/><polyline class="cls-11" points="127.5 228.37 139.94 228.37 144.88 219.67 151.1 240.27 155.3 223.38 157.68 228.37 172.5 228.37"/><path class="cls-3" d="m762.93,284.57c-2.74.26-4.74,2.7-4.48,5.44.26,2.74,2.7,4.74,5.44,4.48,2.74-.26,4.74-2.7,4.48-5.44-.26-2.74-2.7-4.74-5.44-4.48Z"/><path class="cls-3" d="m742.36,294.54s-1,17.96,10.19,17.96c8.86,0,10.31-12.7,10.53-17.99"/><rect class="cls-3" x="744.34" y="267.52" width="3.54" height="2.68"/><rect class="cls-3" x="736.82" y="267.5" width="3.54" height="2.68"/><path class="cls-3" d="m736.66,268.82c-5.24.63-5.05,4.71-5.05,11.69,0,7.61,3.85,14.03,10.75,14.03s10.75-6.41,10.75-14.03c0-6.99.19-11.08-5.08-11.69"/><path class="cls-2" d="m222.93,344.57c-2.74.26-4.74,2.7-4.48,5.44.26,2.74,2.7,4.74,5.44,4.48,2.74-.26,4.74-2.7,4.48-5.44-.26-2.74-2.7-4.74-5.44-4.48Z"/><path class="cls-2" d="m202.36,354.54s-1,17.96,10.19,17.96c8.86,0,10.31-12.7,10.53-17.99"/><rect class="cls-2" x="204.34" y="327.52" width="3.54" height="2.68"/><rect class="cls-2" x="196.82" y="327.5" width="3.54" height="2.68"/><path class="cls-2" d="m196.66,328.82c-5.24.63-5.05,4.71-5.05,11.69,0,7.61,3.85,14.03,10.75,14.03s10.75-6.41,10.75-14.03c0-6.99.19-11.08-5.08-11.69"/><circle class="cls-4" cx="1100.41" cy="368.13" r="4.37"/><circle class="cls-4" cx="1120.56" cy="368.13" r="4.37"/><polygon class="cls-4" points="1124.09 361.53 1096.99 361.53 1089.83 345.95 1126.06 345.95 1124.09 361.53"/><polyline class="cls-4" points="1126.06 345.95 1126.93 339.11 1130.86 339.11"/><path class="cls-4" d="m1089.69,346.01c-.36-1.26-.55-2.6-.55-3.97,0-8.03,6.51-14.53,14.53-14.53,1.74,0,3.41.31,4.95.87v17.61"/><line class="cls-4" x1="1090.79" y1="335.3" x2="1108.63" y2="345.98"/><line class="cls-4" x1="1097.87" y1="328.71" x2="1108.63" y2="345.98"/><circle class="cls-4" cx="20.41" cy="187.96" r="4.37"/><circle class="cls-4" cx="40.56" cy="187.96" r="4.37"/><polygon class="cls-4" points="44.09 181.36 16.99 181.36 9.83 165.78 46.06 165.78 44.09 181.36"/><polyline class="cls-4" points="46.06 165.78 46.93 158.94 50.86 158.94"/><path class="cls-4" d="m9.69,165.84c-.36-1.26-.55-2.6-.55-3.97,0-8.03,6.51-14.53,14.53-14.53,1.74,0,3.41.31,4.95.87v17.61"/><line class="cls-4" x1="10.79" y1="155.14" x2="28.63" y2="165.81"/><line class="cls-4" x1="17.87" y1="148.54" x2="28.63" y2="165.81"/><path class="cls-8" d="m1350,327.5c-6.66,0-13.25,5.04-13.25,13.77s7.73,25.27,13.14,31.23c0,0,.04-.04.11-.11.07.07.11.11.11.11,5.41-5.96,13.14-21.73,13.14-31.23s-6.59-13.77-13.25-13.77Zm.84,22.46c-4.79.46-9.05-3.05-9.52-7.84s3.05-9.05,7.84-9.52c4.79-.46,9.05,3.05,9.52,7.84.46,4.79-3.05,9.05-7.84,9.52Z"/><path class="cls-6" d="m1290,147.5c6.66,0,13.25,5.04,13.25,13.77s-7.73,25.27-13.14,31.23c0,0-.04-.04-.11-.11-.07.07-.11.11-.11.11-5.41-5.96-13.14-21.73-13.14-31.23s6.59-13.77,13.25-13.77Zm-.84,22.46c4.79.46,9.05-3.05,9.52-7.84s-3.05-9.05-7.84-9.52c-4.79-.46-9.05,3.05-9.52,7.84-.46,4.79,3.05,9.05,7.84,9.52Z"/><rect class="cls-1" x="487.5" y="154.19" width="45" height="20.61"/><circle class="cls-1" cx="510" cy="164.5" r="5.7"/><circle class="cls-1" cx="525.68" cy="164.5" r="1.77"/><circle class="cls-1" cx="494.32" cy="164.5" r="1.77"/><line class="cls-1" x1="487.5" y1="178.25" x2="532.5" y2="178.25"/><line class="cls-1" x1="487.5" y1="180.77" x2="532.5" y2="180.77"/><line class="cls-1" x1="487.5" y1="183.29" x2="532.5" y2="183.29"/><line class="cls-1" x1="487.5" y1="185.81" x2="532.5" y2="185.81"/><rect class="cls-13" x="240" y="260" width="60" height="60" transform="translate(540 580) rotate(180)"/><rect class="cls-18" x="0" y="260" width="60" height="60"/><rect class="cls-18" x="180" y="260" width="60" height="60" transform="translate(420 580) rotate(-180)"/><rect class="cls-17" x="660" y="260" width="60" height="60" transform="translate(980 -400) rotate(90)"/><rect class="cls-13" x="540" y="319.83" width="60" height="60" transform="translate(919.83 -220.17) rotate(90)"/><rect class="cls-12" x="420" y="320" width="60" height="60" transform="translate(100 800) rotate(-90)"/><rect class="cls-19" x="660" y="140" width="60" height="60" transform="translate(860 -520) rotate(90)"/><rect class="cls-19" x="900.17" y="260" width="60" height="60" transform="translate(640.17 1220.17) rotate(-90)"/><rect class="cls-13" x="840" y="320" width="60" height="60"/><path class="cls-10" d="m630.64,245.47l-16.19-16.19c-3.39-3.39-3.39-8.88,0-12.27,3.39-3.39,8.88-3.39,12.27,0l3.42,3.42,2.91-3.16c3.25-3.52,8.73-3.75,12.26-.5,3.52,3.25,3.75,8.73.5,12.26l-15.16,16.45Z"/><polyline class="cls-10" points="607.5 228.37 619.94 228.37 624.88 219.67 631.1 240.27 635.3 223.38 637.68 228.37 652.5 228.37"/><polygon class="cls-7" points="952.67 282.84 937.33 282.84 937.33 267.5 923.01 267.5 923.01 282.84 907.67 282.84 907.67 297.16 923.01 297.16 923.01 312.5 937.33 312.5 937.33 297.16 952.67 297.16 952.67 282.84"/><polygon class="cls-7" points="952.67 282.84 937.33 282.84 937.33 267.5 923.01 267.5 923.01 282.84 907.67 282.84 907.67 297.16 923.01 297.16 923.01 312.5 937.33 312.5 937.33 297.16 952.67 297.16 952.67 282.84"/><rect class="cls-13" x="1260" y="260" width="60" height="60" transform="translate(2580 580) rotate(180)"/><rect class="cls-12" x="1200" y="260" width="60" height="60" transform="translate(1520 -940) rotate(90)"/></svg>