<?xml version="1.0" encoding="UTF-8"?><svg id="Layer_1" xmlns="http://www.w3.org/2000/svg" viewBox="0 0 480 120"><defs><style>.cls-1{stroke-dasharray:0 0 8.78 4.39;}.cls-1,.cls-2,.cls-3,.cls-4,.cls-5{stroke:#000;}.cls-1,.cls-2,.cls-3,.cls-4,.cls-5,.cls-6{fill:none;stroke-miterlimit:10;}.cls-1,.cls-2,.cls-4{stroke-width:1.85px;}.cls-7{fill:#00585c;}.cls-8{fill:teal;}.cls-9{fill:#fff;}.cls-10{fill:#8cc4c0;}.cls-11{fill:#ceeae8;}.cls-3{stroke-width:2px;}.cls-4{stroke-dasharray:0 0 8.86 4.43;}.cls-5,.cls-6{stroke-width:.5px;}.cls-6{stroke:#fff;}</style></defs><rect class="cls-7" x="140" y="70" width="39.8" height="39.8" transform="translate(249.8 -70) rotate(90)"/><rect class="cls-10" x="10" y="10" width="39.8" height="39.8" transform="translate(59.8 0) rotate(90)"/><path class="cls-6" d="m165.44,84.21c.55,5.66-3.6,10.69-9.26,11.24-5.66.55-10.69-3.6-11.24-9.26-.55-5.66,3.6-10.69,9.26-11.24,5.66-.55,10.69,3.6,11.24,9.26Z"/><path class="cls-6" d="m149.24,88.28c1.29,2.54,4.03,4.05,6.87,3.58"/><rect class="cls-6" x="167.11" y="90.08" width="2.34" height="16.4" transform="translate(-20.2 147.78) rotate(-45)"/><rect class="cls-8" x="430" y="10" width="40" height="40" transform="translate(480 -420) rotate(90)"/><rect class="cls-11" x="230" y="70" width="20" height="20" transform="translate(320 -160) rotate(90)"/><rect class="cls-11" x="125" y="-5" width="10" height="20" transform="translate(135 -125) rotate(90)"/><rect class="cls-11" x="330" y="50" width="20" height="20" transform="translate(400 -280) rotate(90)"/><path class="cls-5" d="m38.53,26.28c-1.83.18-3.16,1.8-2.99,3.62.18,1.83,1.8,3.16,3.62,2.99,1.83-.18,3.16-1.8,2.99-3.62-.18-1.83-1.8-3.16-3.62-2.99Z"/><path class="cls-5" d="m24.81,32.93s-.67,11.97,6.79,11.97c5.91,0,6.87-8.47,7.02-12"/><rect class="cls-5" x="26.13" y="14.92" width="2.36" height="1.79"/><rect class="cls-5" x="21.12" y="14.9" width="2.36" height="1.79"/><path class="cls-5" d="m21.01,15.78c-3.49.42-3.37,3.14-3.37,7.79,0,5.08,2.57,9.35,7.16,9.35s7.16-4.27,7.16-9.35c0-4.66.13-7.38-3.38-7.8"/><rect class="cls-6" x="436.5" y="15" width="27" height="30"/><rect class="cls-9" x="436.5" y="15" width="27" height="5"/><path class="cls-9" d="m453.39,29.63c0,.65-.2,1.22-.61,1.71s-.93.83-1.57,1.02c.76.2,1.37.57,1.83,1.11s.68,1.14.68,1.83c0,.99-.34,1.77-1.01,2.34-.68.57-1.58.86-2.7.86s-2.05-.29-2.72-.86-1.01-1.35-1.01-2.34c0-.69.22-1.3.66-1.83s1.04-.9,1.81-1.1c-.64-.19-1.16-.53-1.55-1.02s-.59-1.06-.59-1.71c0-.96.31-1.72.93-2.29s1.43-.84,2.44-.84,1.84.29,2.47.86.94,1.33.94,2.27Zm-.1,5.71c0-.8-.31-1.46-.92-1.98s-1.4-.78-2.37-.78-1.76.26-2.37.77-.91,1.18-.91,1.99.3,1.48.89,1.98,1.4.75,2.4.75,1.78-.25,2.37-.75.9-1.16.9-1.98Zm-.33-5.75c0-.76-.29-1.39-.86-1.9s-1.28-.76-2.12-.76-1.57.24-2.11.73-.82,1.13-.82,1.93.27,1.38.82,1.85c.55.47,1.26.71,2.13.71s1.58-.24,2.13-.72.83-1.09.83-1.84Z"/><path d="m60.07,42.12c9.86,0,17.88,8.02,17.88,17.88s-8.02,17.88-17.88,17.88-17.88-8.02-17.88-17.88,8.02-17.88,17.88-17.88m0-2.19c-11.08,0-20.07,8.99-20.07,20.07s8.99,20.07,20.07,20.07,20.07-8.99,20.07-20.07-8.99-20.07-20.07-20.07h0Z"/><path d="m410.07,42.12c9.86,0,17.88,8.02,17.88,17.88s-8.02,17.88-17.88,17.88-17.88-8.02-17.88-17.88,8.02-17.88,17.88-17.88m0-2.19c-11.08,0-20.07,8.99-20.07,20.07s8.99,20.07,20.07,20.07,20.07-8.99,20.07-20.07-8.99-20.07-20.07-20.07h0Z"/><line class="cls-3" x1="80.14" y1="60" x2="385.65" y2="60"/><polygon points="382.73 69.97 400 60 382.73 50.03 382.73 69.97"/><line class="cls-2" x1="60" x2="60" y2="4.63"/><line class="cls-1" x1="60" y1="9.02" x2="60" y2="33.18"/><line class="cls-2" x1="60" y1="35.37" x2="60" y2="40"/><line class="cls-2" x1="110" x2="110" y2="4.63"/><line class="cls-4" x1="110" y1="9.06" x2="110" y2="113.16"/><line class="cls-2" x1="110" y1="115.37" x2="110" y2="120"/><line class="cls-2" x1="210" x2="210" y2="4.63"/><line class="cls-4" x1="210" y1="9.06" x2="210" y2="113.16"/><line class="cls-2" x1="210" y1="115.37" x2="210" y2="120"/><line class="cls-2" x1="310" x2="310" y2="4.63"/><line class="cls-4" x1="310" y1="9.06" x2="310" y2="113.16"/><line class="cls-2" x1="310" y1="115.37" x2="310" y2="120"/><line class="cls-2" x1="410" y1="80" x2="410" y2="84.63"/><line class="cls-1" x1="410" y1="89.02" x2="410" y2="113.18"/><line class="cls-2" x1="410" y1="115.37" x2="410" y2="120"/><rect class="cls-7" x="370" y="100" width="20" height="20" transform="translate(490 -270) rotate(90)"/><rect class="cls-7" x="280" y="80" width="10" height="10" transform="translate(370 -200) rotate(90)"/><rect class="cls-7" x="230" y="100" width="10" height="10" transform="translate(340 -130) rotate(90)"/><rect class="cls-8" x="260" y="110" width="10" height="10" transform="translate(380 -150) rotate(90)"/><rect class="cls-11" x="370" y="80" width="10" height="10" transform="translate(460 -290) rotate(90)"/><rect class="cls-10" x="330" y="100" width="10" height="10" transform="translate(440 -230) rotate(90)"/><rect class="cls-10" x="420" y="100" width="10" height="10" transform="translate(530 -320) rotate(90)"/><rect class="cls-10" x="270" y="40" width="10" height="10" transform="translate(230 320) rotate(-90)"/><rect class="cls-11" x="250" y="10" width="10" height="10" transform="translate(240 270) rotate(-90)"/><rect class="cls-7" x="230" y="30" width="10" height="10" transform="translate(200 270) rotate(-90)"/><rect class="cls-7" x="280" y="10" width="20" height="20" transform="translate(310 -270) rotate(90)"/><rect class="cls-10" x="170" y="30" width="20" height="20" transform="translate(220 -140) rotate(90)"/><rect class="cls-8" x="410" y="20" width="10" height="10" transform="translate(440 -390) rotate(90)"/><rect class="cls-11" x="440" y="70" width="10" height="10" transform="translate(520 -370) rotate(90)"/><rect class="cls-7" x="360" y="40" width="10" height="10" transform="translate(410 -320) rotate(90)"/><rect class="cls-7" x="180" y="10" width="10" height="10" transform="translate(200 -170) rotate(90)"/><rect class="cls-8" x="140" y="30" width="10" height="10" transform="translate(180 -110) rotate(90)"/><rect class="cls-10" x="40" y="100" width="10" height="10" transform="translate(150 60) rotate(90)"/><rect class="cls-11" x="370" y="20" width="10" height="10" transform="translate(350 400) rotate(-90)"/><rect class="cls-11" x="120" y="70" width="10" height="10" transform="translate(50 200) rotate(-90)"/><rect class="cls-10" x="330" y="10" width="10" height="10" transform="translate(320 350) rotate(-90)"/><rect class="cls-10" x="465" y="95" width="20" height="10" transform="translate(575 -375) rotate(90)"/><rect class="cls-10" x="70" y="90" width="20" height="20" transform="translate(180 20) rotate(90)"/><rect class="cls-10" x="70" y="10" width="10" height="10" transform="translate(90 -60) rotate(90)"/><rect class="cls-7" x="90" y="30" width="10" height="10" transform="translate(130 -60) rotate(90)"/><rect class="cls-11" x="20" y="70" width="10" height="10" transform="translate(100 50) rotate(90)"/><rect class="cls-10" x="190" y="110" width="10" height="10" transform="translate(310 -80) rotate(90)"/><rect class="cls-7" x="390" y="0" width="10" height="10" transform="translate(400 -390) rotate(90)"/><rect class="cls-7" x="0" y="110" width="10" height="10" transform="translate(120 110) rotate(90)"/><rect class="cls-8" x="320" y="80" width="10" height="10" transform="translate(240 410) rotate(-90)"/><rect class="cls-7" x="440" y="90" width="10" height="10" transform="translate(350 540) rotate(-90)"/><rect class="cls-11" x="290" y="100" width="10" height="10" transform="translate(190 400) rotate(-90)"/><rect class="cls-7" x="-5" y="75" width="20" height="10" transform="translate(85 75) rotate(90)"/></svg>