<?xml version="1.0" encoding="UTF-8"?><svg id="Layer_1" xmlns="http://www.w3.org/2000/svg" viewBox="0 0 780 600"><defs><style>.cls-1{stroke-width:.56px;}.cls-1,.cls-2,.cls-3,.cls-4,.cls-5,.cls-6,.cls-7,.cls-8,.cls-9,.cls-10,.cls-11,.cls-12,.cls-13{fill:none;stroke-miterlimit:10;}.cls-1,.cls-2,.cls-5,.cls-7,.cls-8,.cls-11,.cls-13{stroke:#000;}.cls-14{fill:#f3f3d1;}.cls-15{fill:#00585c;}.cls-16{fill:teal;}.cls-17{fill:#fffff3;}.cls-18{fill:#fff;}.cls-19{fill:#ffffed;}.cls-20{fill:#8bc3bf;}.cls-21{fill:#cde9e7;}.cls-22{fill:#c7dc00;}.cls-23{fill:#dee47d;}.cls-2,.cls-3{stroke-width:.62px;}.cls-3,.cls-4,.cls-6,.cls-9,.cls-10,.cls-12{stroke:#fff;}.cls-4,.cls-5{stroke-width:.6px;}.cls-6,.cls-8{stroke-width:.62px;}.cls-7,.cls-10{stroke-width:.62px;}.cls-9{stroke-width:.62px;}.cls-11{stroke-width:.62px;}.cls-12,.cls-13{stroke-width:.49px;}</style></defs><rect class="cls-22" x="0" y="540" width="60" height="60"/><rect class="cls-17" x="720" y="540" width="60" height="60"/><rect class="cls-15" x="660" y="540" width="60" height="60"/><rect class="cls-17" x="600" y="540" width="60" height="60"/><rect class="cls-20" x="540" y="540" width="60" height="60"/><rect class="cls-23" x="480" y="540" width="60" height="60"/><rect class="cls-22" x="420" y="540" width="60" height="60"/><rect class="cls-21" x="360" y="540" width="60" height="60"/><rect class="cls-16" x="300" y="540" width="60" height="60"/><rect class="cls-22" x="240" y="540" width="60" height="60"/><rect class="cls-15" x="180" y="540" width="60" height="60"/><rect class="cls-14" x="120" y="540" width="60" height="60"/><rect class="cls-21" x="60" y="540" width="60" height="60"/><rect class="cls-22" x="60" y="480" width="60" height="60" transform="translate(180 1020) rotate(180)"/><rect class="cls-15" x="0" y="419.83" width="60" height="60" transform="translate(60 899.67) rotate(180)"/><rect class="cls-22" x="0" y="360" width="60" height="60" transform="translate(60 780) rotate(180)"/><rect class="cls-23" x="0" y="300" width="60" height="60" transform="translate(60 660) rotate(180)"/><rect class="cls-21" x="0" y="240" width="60" height="60" transform="translate(60 540) rotate(180)"/><rect class="cls-23" x="60" y="240" width="60" height="60" transform="translate(180 540) rotate(-180)"/><rect class="cls-20" x="60" y="299.83" width="60" height="60" transform="translate(180 659.67) rotate(-180)"/><rect class="cls-19" x="60" y="359.83" width="60" height="60" transform="translate(180 779.67) rotate(-180)"/><rect class="cls-21" x="60" y="419.83" width="60" height="60" transform="translate(180 899.67) rotate(-180)"/><rect class="cls-22" x="120" y="360" width="60" height="60" transform="translate(300 780) rotate(180)"/><rect class="cls-23" x="120" y="300" width="60" height="60" transform="translate(300 660) rotate(180)"/><rect class="cls-20" x="180" y="419.83" width="60" height="60"/><rect class="cls-23" x="120" y="419.83" width="60" height="60"/><rect class="cls-22" x="180" y="299.83" width="60" height="60.17" transform="translate(420 659.83) rotate(180)"/><rect class="cls-15" x="540" y="480" width="60" height="60"/><rect class="cls-14" x="480" y="480" width="60" height="60"/><rect class="cls-20" x="420" y="480" width="60" height="60"/><rect class="cls-23" x="360" y="480" width="60" height="60"/><rect class="cls-21" x="300" y="480" width="60" height="60"/><rect class="cls-14" x="240" y="480" width="60" height="60"/><rect class="cls-16" x="180" y="480" width="60" height="60"/><rect class="cls-18" x="120" y="480" width="60" height="60"/><rect class="cls-17" x="600" y="480" width="60" height="60" transform="translate(1260 1020) rotate(180)"/><rect class="cls-21" x="720" y="480" width="60" height="60" transform="translate(1500 1020) rotate(180)"/><rect class="cls-22" x="360" y="420" width="60" height="60" transform="translate(840 60) rotate(90)"/><rect class="cls-15" x="360" y="360" width="60" height="60" transform="translate(780 0) rotate(90)"/><rect class="cls-14" x="360" y="300" width="60" height="60" transform="translate(720 -60) rotate(90)"/><rect class="cls-21" x="300" y="300" width="60" height="60" transform="translate(0 660) rotate(-90)"/><rect class="cls-22" x="300" y="360" width="60" height="60" transform="translate(-60 720) rotate(-90)"/><rect class="cls-16" x="300" y="420" width="60" height="60" transform="translate(-120 780) rotate(-90)"/><rect class="cls-20" x="240" y="300" width="60" height="60" transform="translate(-60 600) rotate(-90)"/><rect class="cls-23" x="240" y="360" width="60" height="60" transform="translate(-120 660) rotate(-90)"/><rect class="cls-21" x="240" y="420" width="60" height="60" transform="translate(-180 720) rotate(-90)"/><rect class="cls-22" x="420" y="300" width="60" height="60" transform="translate(120 780) rotate(-90)"/><rect class="cls-21" x="420" y="420" width="60" height="60" transform="translate(0 900) rotate(-90)"/><rect class="cls-22" x="60" y="180" width="60" height="60"/><rect class="cls-21" x="0" y="60" width="60" height="60"/><rect class="cls-19" x="0" y="179.83" width="60" height="60"/><rect class="cls-22" x="0" y="120" width="60" height="60" transform="translate(180 120) rotate(90)"/><rect class="cls-23" x="600" y="420" width="60" height="60" transform="translate(1080 -180) rotate(90)"/><rect class="cls-20" x="720" y="420" width="60" height="60" transform="translate(1200 -300) rotate(90)"/><rect class="cls-19" x="660" y="420" width="60" height="60" transform="translate(1140 -240) rotate(90)"/><rect class="cls-15" x="660" y="240" width="60" height="60" transform="translate(960 -420) rotate(90)"/><rect class="cls-22" x="659.83" y="420" width="60" height="60" transform="translate(1139.83 -239.83) rotate(90)"/><rect class="cls-17" x="719.83" y="360" width="60" height="60" transform="translate(1139.83 -359.83) rotate(90)"/><rect class="cls-19" x="660" y="300" width="60" height="60" transform="translate(1020 -360) rotate(90)"/><rect class="cls-21" x="600" y="360" width="60" height="60" transform="translate(240 1020) rotate(-90)"/><rect class="cls-15" x="720" y="120" width="60" height="60"/><rect class="cls-14" x="600" y="300" width="60" height="60" transform="translate(1260 660) rotate(180)"/><rect class="cls-20" x="719.83" y="300" width="60" height="60"/><rect class="cls-22" x="540" y="420" width="60" height="60" transform="translate(120 1020) rotate(-90)"/><rect class="cls-22" x="720" y="240" width="60" height="60" transform="translate(480 1020) rotate(-90)"/><rect class="cls-15" x="540" y="360" width="60" height="60" transform="translate(1140 780) rotate(180)"/><rect class="cls-20" x="720" y="180" width="60" height="60" transform="translate(1500 420) rotate(-180)"/><rect class="cls-23" x="480" y="300" width="60" height="60"/><rect class="cls-21" x="480" y="360" width="60" height="60" transform="translate(900 -120) rotate(90)"/><path class="cls-8" d="m98.31,501.46c.82,8.49-5.4,16.04-13.89,16.85-8.49.82-16.04-5.4-16.85-13.89-.82-8.49,5.4-16.04,13.89-16.85,8.49-.82,16.04,5.4,16.85,13.89Z"/><path class="cls-8" d="m74.01,507.57c1.94,3.81,6.04,6.08,10.31,5.37"/><rect class="cls-8" x="100.82" y="510.27" width="3.51" height="24.59" transform="translate(-339.47 225.59) rotate(-45)"/><path class="cls-6" d="m398.31,381.46c.82,8.49-5.4,16.04-13.89,16.85-8.49.82-16.04-5.4-16.85-13.89-.82-8.49,5.4-16.04,13.89-16.85,8.49-.82,16.04,5.4,16.85,13.89Z"/><path class="cls-6" d="m374.01,387.57c1.94,3.81,6.04,6.08,10.31,5.37"/><rect class="cls-6" x="400.82" y="390.27" width="3.51" height="24.59" transform="translate(-166.74 402.57) rotate(-45)"/><polygon class="cls-9" points="592.5 502.84 577.16 502.84 577.16 487.5 562.84 487.5 562.84 502.84 547.5 502.84 547.5 517.16 562.84 517.16 562.84 532.5 577.16 532.5 577.16 517.16 592.5 517.16 592.5 502.84"/><polygon class="cls-9" points="592.5 502.84 577.16 502.84 577.16 487.5 562.84 487.5 562.84 502.84 547.5 502.84 547.5 517.16 562.84 517.16 562.84 532.5 577.16 532.5 577.16 517.16 592.5 517.16 592.5 502.84"/><polygon class="cls-11" points="232.5 322.74 217.16 322.74 217.16 307.35 202.84 307.35 202.84 322.74 187.5 322.74 187.5 337.1 202.84 337.1 202.84 352.48 217.16 352.48 217.16 337.1 232.5 337.1 232.5 322.74"/><polygon class="cls-11" points="232.5 322.74 217.16 322.74 217.16 307.35 202.84 307.35 202.84 322.74 187.5 322.74 187.5 337.1 202.84 337.1 202.84 352.48 217.16 352.48 217.16 337.1 232.5 337.1 232.5 322.74"/><path class="cls-12" d="m210.64,585.5l-16.19-16.19c-3.39-3.39-3.39-8.88,0-12.27,3.39-3.39,8.88-3.39,12.27,0l3.42,3.42,2.91-3.16c3.25-3.52,8.73-3.75,12.26-.5,3.52,3.25,3.75,8.73.5,12.26l-15.16,16.45Z"/><polyline class="cls-12" points="187.5 568.4 199.94 568.4 204.88 559.7 211.1 580.3 215.3 563.4 217.68 568.4 232.5 568.4"/><path class="cls-13" d="m689.54,465.2l-16.19-16.19c-3.39-3.39-3.39-8.88,0-12.27,3.39-3.39,8.88-3.39,12.27,0l3.42,3.42,2.91-3.16c3.25-3.52,8.73-3.75,12.26-.5,3.52,3.25,3.75,8.73.5,12.26l-15.16,16.45Z"/><polyline class="cls-13" points="666.4 448.09 678.84 448.09 683.78 439.4 690 460 694.21 443.1 696.59 448.09 711.4 448.09"/><path class="cls-3" d="m582.93,384.57c-2.74.26-4.74,2.7-4.48,5.44.26,2.74,2.7,4.74,5.44,4.48,2.74-.26,4.74-2.7,4.48-5.44-.26-2.74-2.7-4.74-5.44-4.48Z"/><path class="cls-3" d="m562.36,394.54s-1,17.96,10.19,17.96c8.86,0,10.31-12.7,10.53-17.99"/><rect class="cls-3" x="564.34" y="367.52" width="3.54" height="2.68"/><rect class="cls-3" x="556.82" y="367.5" width="3.54" height="2.68"/><path class="cls-3" d="m556.66,368.82c-5.24.63-5.05,4.71-5.05,11.69,0,7.61,3.85,14.03,10.75,14.03s10.75-6.41,10.75-14.03c0-6.99.19-11.08-5.08-11.69"/><path class="cls-2" d="m42.93,564.57c-2.74.26-4.74,2.7-4.48,5.44.26,2.74,2.7,4.74,5.44,4.48,2.74-.26,4.74-2.7,4.48-5.44-.26-2.74-2.7-4.74-5.44-4.48Z"/><path class="cls-2" d="m22.36,574.54s-1,17.96,10.19,17.96c8.86,0,10.31-12.7,10.53-17.99"/><rect class="cls-2" x="24.34" y="547.52" width="3.54" height="2.68"/><rect class="cls-2" x="16.82" y="547.5" width="3.54" height="2.68"/><path class="cls-2" d="m16.66,548.82c-5.24.63-5.05,4.71-5.05,11.69,0,7.61,3.85,14.03,10.75,14.03s10.75-6.41,10.75-14.03c0-6.99.19-11.08-5.08-11.69"/><circle class="cls-5" cx="440.41" cy="588.13" r="4.37"/><circle class="cls-5" cx="460.56" cy="588.13" r="4.37"/><polygon class="cls-5" points="464.09 581.53 436.99 581.53 429.83 565.95 466.06 565.95 464.09 581.53"/><polyline class="cls-5" points="466.06 565.95 466.93 559.11 470.86 559.11"/><path class="cls-5" d="m429.69,566.01c-.36-1.26-.55-2.6-.55-3.97,0-8.03,6.51-14.53,14.53-14.53,1.74,0,3.41.31,4.95.87v17.61"/><line class="cls-5" x1="430.79" y1="555.3" x2="448.63" y2="565.98"/><line class="cls-5" x1="437.87" y1="548.71" x2="448.63" y2="565.98"/><circle class="cls-4" cx="200.41" cy="467.96" r="4.37"/><circle class="cls-4" cx="220.56" cy="467.96" r="4.37"/><polygon class="cls-4" points="224.09 461.36 196.99 461.36 189.83 445.78 226.06 445.78 224.09 461.36"/><polyline class="cls-4" points="226.06 445.78 226.93 438.94 230.86 438.94"/><path class="cls-4" d="m189.69,445.84c-.36-1.26-.55-2.6-.55-3.97,0-8.03,6.51-14.53,14.53-14.53,1.74,0,3.41.31,4.95.87v17.61"/><line class="cls-4" x1="190.79" y1="435.14" x2="208.63" y2="445.81"/><line class="cls-4" x1="197.87" y1="428.54" x2="208.63" y2="445.81"/><path class="cls-10" d="m690,547.5c-6.66,0-13.25,5.04-13.25,13.77s7.73,25.27,13.14,31.23c0,0,.04-.04.11-.11.07.07.11.11.11.11,5.41-5.96,13.14-21.73,13.14-31.23s-6.59-13.77-13.25-13.77Zm.84,22.46c-4.79.46-9.05-3.05-9.52-7.84s3.05-9.05,7.84-9.52c4.79-.46,9.05,3.05,9.52,7.84.46,4.79-3.05,9.05-7.84,9.52Z"/><path class="cls-7" d="m750,247.5c6.66,0,13.25,5.04,13.25,13.77s-7.73,25.27-13.14,31.23c0,0-.04-.04-.11-.11-.07.07-.11.11-.11.11-5.41-5.96-13.14-21.73-13.14-31.23s6.59-13.77,13.25-13.77Zm-.84,22.46c4.79.46,9.05-3.05,9.52-7.84s-3.05-9.05-7.84-9.52c-4.79-.46-9.05,3.05-9.52,7.84-.46,4.79,3.05,9.05,7.84,9.52Z"/><rect class="cls-1" x="7.5" y="374.19" width="45" height="20.61"/><circle class="cls-1" cx="30" cy="384.5" r="5.7"/><circle class="cls-1" cx="45.68" cy="384.5" r="1.77"/><circle class="cls-1" cx="14.32" cy="384.5" r="1.77"/><line class="cls-1" x1="7.5" y1="398.25" x2="52.5" y2="398.25"/><line class="cls-1" x1="7.5" y1="400.77" x2="52.5" y2="400.77"/><line class="cls-1" x1="7.5" y1="403.29" x2="52.5" y2="403.29"/><line class="cls-1" x1="7.5" y1="405.81" x2="52.5" y2="405.81"/><rect class="cls-1" x="307.5" y="494.19" width="45" height="20.61"/><circle class="cls-1" cx="330" cy="504.5" r="5.7"/><circle class="cls-1" cx="345.68" cy="504.5" r="1.77"/><circle class="cls-1" cx="314.32" cy="504.5" r="1.77"/><line class="cls-1" x1="307.5" y1="518.25" x2="352.5" y2="518.25"/><line class="cls-1" x1="307.5" y1="520.77" x2="352.5" y2="520.77"/><line class="cls-1" x1="307.5" y1="523.29" x2="352.5" y2="523.29"/><line class="cls-1" x1="307.5" y1="525.81" x2="352.5" y2="525.81"/><rect class="cls-15" x="180" y="240" width="60" height="60"/><rect class="cls-21" x="120" y="240" width="60" height="60"/><rect class="cls-20" x="360" y="240" width="60" height="60" transform="translate(660 -120) rotate(90)"/><rect class="cls-23" x="300" y="240" width="60" height="60" transform="translate(60 600) rotate(-90)"/><rect class="cls-15" x="420" y="240" width="60" height="60" transform="translate(720 -180) rotate(90)"/><rect class="cls-14" x="240" y="240" width="60" height="60" transform="translate(0 540) rotate(-90)"/><rect class="cls-19" x="240" y="179.83" width="60" height="60" transform="translate(540 419.67) rotate(-180)"/><rect class="cls-21" x="360" y="180" width="60" height="60" transform="translate(600 -180) rotate(90)"/><rect class="cls-20" x="600.17" y="240" width="60" height="60" transform="translate(360.17 900.17) rotate(-90)"/><rect class="cls-21" x="600" y="180" width="60" height="60"/><rect class="cls-23" x="540" y="240" width="60" height="60"/></svg>