<?xml version="1.0" encoding="UTF-8"?><svg id="Layer_1" xmlns="http://www.w3.org/2000/svg" viewBox="0 0 480 420"><defs><style>.cls-1,.cls-2,.cls-3,.cls-4,.cls-5,.cls-6,.cls-7{fill:none;}.cls-8{fill:#fff;}.cls-8,.cls-2{stroke-width:1.84px;}.cls-8,.cls-2,.cls-3,.cls-4,.cls-5,.cls-6{stroke:#000;}.cls-8,.cls-2,.cls-3,.cls-4,.cls-5,.cls-6,.cls-7{stroke-miterlimit:10;}.cls-9{fill:#f3f3d1;}.cls-10{fill:#00585c;}.cls-11{fill:teal;}.cls-12{fill:#8bc3bf;}.cls-13{fill:#cde9e7;}.cls-14{fill:#c7dc00;}.cls-15{fill:#dee47d;}.cls-3{stroke-linecap:square;}.cls-3,.cls-4{stroke-width:.32px;}.cls-5{stroke-width:.34px;}.cls-6{stroke-width:.35px;}.cls-7{stroke:#fff;stroke-width:.35px;}</style></defs><rect class="cls-14" x="353" y="204" width="20" height="20"/><rect class="cls-12" x="193" y="364" width="20" height="20"/><rect class="cls-12" x="33" y="384" width="20" height="20"/><rect class="cls-15" x="53" y="294" width="20" height="20"/><rect class="cls-12" x="43" y="204" width="20" height="20"/><rect class="cls-11" x="73" y="114" width="20" height="20"/><rect class="cls-14" x="303" y="154" width="20" height="20"/><rect class="cls-9" x="233" y="34" width="20" height="20"/><rect class="cls-12" x="123" y="314" width="20" height="20"/><rect class="cls-14" x="123" y="314" width="20" height="20"/><rect class="cls-12" x="113" y="244" width="20" height="20"/><rect class="cls-15" x="283" y="364" width="20" height="20"/><rect class="cls-12" x="423" y="124" width="20" height="20"/><rect class="cls-15" x="423" y="284" width="20" height="20"/><rect class="cls-12" x="443" y="224" width="20" height="20"/><rect class="cls-12" x="333" y="34" width="20" height="20"/><rect class="cls-15" x="353" y="104" width="20" height="20"/><rect class="cls-12" x="53" y="54" width="20" height="20"/><rect class="cls-14" x="23" y="104" width="20" height="20"/><rect class="cls-10" x="133" y="94" width="40" height="40"/><rect class="cls-14" x="203" y="84" width="40" height="40"/><rect class="cls-13" x="233" y="164" width="40" height="40"/><rect class="cls-15" x="163" y="184" width="40" height="40"/><rect class="cls-15" x="143" y="14" width="20" height="20"/><rect class="cls-13" x="403" y="64" width="20" height="20"/><rect class="cls-13" x="253" y="304" width="20" height="20"/><rect class="cls-10" x="213" y="264" width="20" height="20"/><rect class="cls-10" x="333" y="184" width="10" height="10"/><rect class="cls-10" x="403" y="174" width="10" height="10"/><rect class="cls-10" x="383" y="34" width="10" height="10"/><rect class="cls-14" x="453" y="94" width="10" height="10"/><rect class="cls-10" x="333" y="74" width="10" height="10"/><rect class="cls-10" x="303" y="334" width="10" height="10"/><rect class="cls-10" x="243" y="364" width="10" height="10"/><rect class="cls-15" x="193" y="324" width="10" height="10"/><rect class="cls-10" x="103" y="294" width="10" height="10"/><rect class="cls-10" x="73" y="254" width="10" height="10"/><rect class="cls-10" x="23" y="244" width="10" height="10"/><rect class="cls-15" x="53" y="174" width="10" height="10"/><rect class="cls-10" x="33" y="64" width="10" height="10"/><rect class="cls-13" x="93" y="54" width="10" height="10"/><rect class="cls-14" x="73" y="24" width="10" height="10"/><rect class="cls-10" x="183" y="14" width="10" height="10"/><rect class="cls-10" x="143" y="354" width="10" height="10"/><rect class="cls-14" x="83" y="394" width="10" height="10"/><rect class="cls-13" x="33" y="344" width="10" height="10"/><rect class="cls-10" x="373" y="144" width="10" height="10"/><path class="cls-10" d="m203,254v19.2c1.6-.09,3.2-.2,4.81-.36,12.47-1.2,24.28-4.33,35.19-9.05v-9.8h-40Z"/><path class="cls-12" d="m109.21,234c9.54,10.76,21,19.71,33.79,26.35v-26.35h-33.79Z"/><path class="cls-11" d="m103,144v-40h-10.5c-6.24,12.31-10.35,25.82-11.89,40h22.39Z"/><path class="cls-9" d="m263,64v-3.27c-11.97-8.29-25.51-14.38-40-17.74v21h40Z"/><path class="cls-14" d="m293,184h17.1c2.95-12.27,3.95-25.23,2.67-38.49-.05-.5-.11-1-.16-1.51h-19.61v40Z"/><path class="cls-2" d="m312.77,145.51c6.18,64.15-40.82,121.16-104.96,127.34-64.15,6.18-121.16-40.81-127.34-104.96-6.18-64.15,40.81-121.16,104.96-127.34,64.14-6.18,121.16,40.81,127.34,104.96Z"/><path class="cls-1" d="m129.19,191.67c14.65,28.77,45.64,45.95,77.86,40.61"/><rect class="cls-8" x="331.74" y="212.02" width="26.52" height="185.82" transform="translate(-114.57 333.26) rotate(-45)"/><polygon class="cls-7" points="165.5 110.02 156.98 110.02 156.98 101.5 149.02 101.5 149.02 110.02 140.5 110.02 140.5 117.98 149.02 117.98 149.02 126.5 156.98 126.5 156.98 117.98 165.5 117.98 165.5 110.02"/><polygon class="cls-7" points="165.5 110.02 156.98 110.02 156.98 101.5 149.02 101.5 149.02 110.02 140.5 110.02 140.5 117.98 149.02 117.98 149.02 126.5 156.98 126.5 156.98 117.98 165.5 117.98 165.5 110.02"/><path class="cls-4" d="m264.57,183.76c.62,6.39-4.07,12.07-10.46,12.68-6.39.62-12.07-4.07-12.68-10.46-.62-6.39,4.07-12.07,10.46-12.68,6.39-.62,12.07,4.07,12.68,10.46Z"/><polyline class="cls-3" points="249.06 181.61 252.91 185.78 258.76 177.73"/><rect class="cls-4" x="251.84" y="171.5" width="2.32" height="1.75"/><path class="cls-5" d="m230.19,100.98c-1.52.15-2.64,1.5-2.49,3.02.15,1.52,1.5,2.64,3.02,2.49,1.52-.15,2.64-1.5,2.49-3.02-.15-1.52-1.5-2.64-3.02-2.49Z"/><path class="cls-5" d="m218.75,106.52s-.56,9.98,5.66,9.98c4.92,0,5.73-7.06,5.85-10"/><rect class="cls-5" x="219.86" y="91.51" width="1.97" height="1.49"/><rect class="cls-5" x="215.68" y="91.5" width="1.97" height="1.49"/><path class="cls-5" d="m215.59,92.24c-2.91.35-2.81,2.62-2.81,6.49,0,4.23,2.14,7.79,5.97,7.79s5.97-3.56,5.97-7.79c0-3.89.11-6.15-2.82-6.5"/><path class="cls-6" d="m183,191.5c-3.7,0-7.36,2.8-7.36,7.65s4.29,14.04,7.3,17.35c0,0,.02-.02.06-.06.04.04.06.06.06.06,3.01-3.31,7.3-12.07,7.3-17.35s-3.66-7.65-7.36-7.65Zm.46,12.48c-2.66.26-5.03-1.69-5.29-4.36s1.69-5.03,4.36-5.29,5.03,1.69,5.29,4.36c.26,2.66-1.69,5.03-4.36,5.29Z"/></svg>