<?xml version="1.0" encoding="UTF-8"?><svg id="Layer_1" xmlns="http://www.w3.org/2000/svg" viewBox="0 0 1440 380"><defs><style>.cls-1{stroke-width:.56px;}.cls-1,.cls-2,.cls-3,.cls-4,.cls-5,.cls-6,.cls-7,.cls-8,.cls-9,.cls-10,.cls-11,.cls-12{fill:none;stroke-miterlimit:10;}.cls-1,.cls-2,.cls-4,.cls-6,.cls-7,.cls-10,.cls-12{stroke:#000;}.cls-13{fill:#f3f3d1;}.cls-14{fill:#00585c;}.cls-15{fill:teal;}.cls-16{fill:#fffff3;}.cls-17{fill:#ffffed;}.cls-18{fill:#8bc3bf;}.cls-19{fill:#cde9e7;}.cls-20{fill:#c7dc00;}.cls-21{fill:#dee47d;}.cls-2,.cls-3{stroke-width:.62px;}.cls-3,.cls-5,.cls-8,.cls-9,.cls-11{stroke:#fff;}.cls-4{stroke-width:.6px;}.cls-5,.cls-7{stroke-width:.62px;}.cls-6,.cls-9{stroke-width:.62px;}.cls-8{stroke-width:.62px;}.cls-10{stroke-width:.62px;}.cls-11,.cls-12{stroke-width:.49px;}</style></defs><rect class="cls-20" x="180" y="320" width="60" height="60"/><rect class="cls-16" x="1380" y="320" width="60" height="60"/><rect class="cls-14" x="1320" y="320" width="60" height="60"/><rect class="cls-16" x="1260" y="320" width="60" height="60"/><rect class="cls-18" x="1320" y="140" width="60" height="60"/><rect class="cls-18" x="1200" y="320" width="60" height="60"/><rect class="cls-21" x="1140" y="320" width="60" height="60"/><rect class="cls-20" x="1080" y="320" width="60" height="60"/><rect class="cls-19" x="1020" y="320" width="60" height="60"/><rect class="cls-15" x="600" y="320" width="60" height="60"/><rect class="cls-20" x="480" y="320" width="60" height="60" transform="translate(1020 700) rotate(180)"/><rect class="cls-14" x="360" y="320" width="60" height="60"/><rect class="cls-13" x="300" y="320" width="60" height="60"/><rect class="cls-19" x="240" y="320" width="60" height="60"/><rect class="cls-20" x="120" y="320" width="60" height="60" transform="translate(300 700) rotate(180)"/><rect class="cls-14" x="60" y="320" width="60" height="60" transform="translate(180 700) rotate(180)"/><rect class="cls-20" x="60" y="260.17" width="60" height="60" transform="translate(180 580.33) rotate(180)"/><rect class="cls-21" x="0" y="200.17" width="60" height="60" transform="translate(60 460.33) rotate(180)"/><rect class="cls-19" x="60" y="80" width="60" height="60" transform="translate(180 220) rotate(-180)"/><rect class="cls-18" x="180" y="140" width="60" height="60" transform="translate(420 340) rotate(180)"/><rect class="cls-18" x="60" y="200" width="60" height="60" transform="translate(180 460) rotate(-180)"/><rect class="cls-17" x="120" y="199.83" width="60" height="60" transform="translate(300 459.67) rotate(-180)"/><rect class="cls-21" x="120" y="259.83" width="60" height="60" transform="translate(300 579.67) rotate(-180)"/><rect class="cls-20" x="240" y="260" width="60" height="60"/><rect class="cls-21" x="180" y="200" width="60" height="60"/><rect class="cls-18" x="360" y="199.83" width="60" height="60"/><rect class="cls-21" x="300" y="200.17" width="60" height="60"/><rect class="cls-20" x="300" y="259.83" width="60" height="60.17" transform="translate(660 579.83) rotate(180)"/><rect class="cls-14" x="1200" y="260" width="60" height="60"/><rect class="cls-13" x="1140" y="260" width="60" height="60"/><rect class="cls-18" x="1080" y="260" width="60" height="60"/><rect class="cls-21" x="1020" y="260" width="60" height="60"/><rect class="cls-19" x="600" y="260" width="60" height="60"/><rect class="cls-13" x="480" y="260" width="60" height="60" transform="translate(1020 580) rotate(180)"/><rect class="cls-15" x="360" y="260" width="60" height="60"/><rect class="cls-16" x="1260" y="260" width="60" height="60" transform="translate(2580 580) rotate(180)"/><rect class="cls-19" x="1380" y="260.21" width="60" height="60" transform="translate(2820 580.43) rotate(180)"/><rect class="cls-20" x="1020" y="200" width="60" height="60" transform="translate(1280 -820) rotate(90)"/><rect class="cls-14" x="1020" y="140" width="60" height="60" transform="translate(1220 -880) rotate(90)"/><rect class="cls-13" x="660" y="320" width="60" height="60" transform="translate(1040 -340) rotate(90)"/><rect class="cls-19" x="540" y="259.83" width="60" height="60" transform="translate(859.83 -280.17) rotate(90)"/><rect class="cls-15" x="600" y="200" width="60" height="60" transform="translate(400 860) rotate(-90)"/><rect class="cls-18" x="480" y="199.83" width="60" height="60" transform="translate(739.83 -280.17) rotate(90)"/><rect class="cls-21" x="420" y="140" width="60" height="60" transform="translate(280 620) rotate(-90)"/><rect class="cls-19" x="420" y="200" width="60" height="60" transform="translate(220 680) rotate(-90)"/><rect class="cls-20" x="720" y="320" width="60" height="60" transform="translate(400 1100) rotate(-90)"/><rect class="cls-19" x="1080" y="200" width="60" height="60" transform="translate(880 1340) rotate(-90)"/><rect class="cls-20" x="60" y="140.17" width="60" height="60"/><rect class="cls-19" x="0" y="20" width="60" height="60"/><rect class="cls-17" x="0" y="139.83" width="60" height="60"/><rect class="cls-20" x="0" y="80" width="60" height="60" transform="translate(140 80) rotate(90)"/><rect class="cls-21" x="1260" y="200" width="60" height="60" transform="translate(1520 -1060) rotate(90)"/><rect class="cls-18" x="1380" y="200" width="60" height="60" transform="translate(1640 -1180) rotate(90)"/><rect class="cls-17" x="1320" y="200" width="60" height="60" transform="translate(1580 -1120) rotate(90)"/><rect class="cls-14" x="960" y="260" width="60" height="60" transform="translate(1280 -700) rotate(90)"/><rect class="cls-20" x="1319.83" y="200" width="60" height="60" transform="translate(1579.83 -1119.83) rotate(90)"/><rect class="cls-16" x="0" y="320" width="60" height="60" transform="translate(380 320) rotate(90)"/><rect class="cls-17" x="960" y="320" width="60" height="60" transform="translate(1340 -640) rotate(90)"/><rect class="cls-19" x="1260" y="140" width="60" height="60" transform="translate(1120 1460) rotate(-90)"/><rect class="cls-13" x="900" y="320" width="60" height="60" transform="translate(1860 700) rotate(180)"/><rect class="cls-18" x="1260" y="260.21" width="60" height="60"/><rect class="cls-20" x="1200" y="200" width="60" height="60" transform="translate(1000 1460) rotate(-90)"/><rect class="cls-14" x="1200" y="140" width="60" height="60" transform="translate(2460 340) rotate(180)"/><rect class="cls-21" x="780" y="320" width="60" height="60"/><rect class="cls-19" x="1140" y="140" width="60" height="60" transform="translate(1340 -1000) rotate(90)"/><path class="cls-7" d="m38.31,101.46c.82,8.49-5.4,16.04-13.89,16.85-8.49.82-16.04-5.4-16.85-13.89-.82-8.49,5.4-16.04,13.89-16.85,8.49-.82,16.04,5.4,16.85,13.89Z"/><path class="cls-7" d="m14.01,107.57c1.94,3.81,6.04,6.08,10.31,5.37"/><rect class="cls-7" x="40.82" y="110.27" width="3.51" height="24.59" transform="translate(-74.2 66) rotate(-45)"/><path class="cls-5" d="m1058.31,161.46c.82,8.49-5.4,16.04-13.89,16.85-8.49.82-16.04-5.4-16.85-13.89-.82-8.49,5.4-16.04,13.89-16.85,8.49-.82,16.04,5.4,16.85,13.89Z"/><path class="cls-5" d="m1034.01,167.57c1.94,3.81,6.04,6.08,10.31,5.37"/><rect class="cls-5" x="1060.82" y="170.27" width="3.51" height="24.59" transform="translate(182.13 804.82) rotate(-45)"/><polygon class="cls-8" points="1252.5 282.84 1237.16 282.84 1237.16 267.5 1222.84 267.5 1222.84 282.84 1207.5 282.84 1207.5 297.16 1222.84 297.16 1222.84 312.5 1237.16 312.5 1237.16 297.16 1252.5 297.16 1252.5 282.84"/><polygon class="cls-8" points="1252.5 282.84 1237.16 282.84 1237.16 267.5 1222.84 267.5 1222.84 282.84 1207.5 282.84 1207.5 297.16 1222.84 297.16 1222.84 312.5 1237.16 312.5 1237.16 297.16 1252.5 297.16 1252.5 282.84"/><polygon class="cls-10" points="352.5 282.74 337.16 282.74 337.16 267.35 322.84 267.35 322.84 282.74 307.5 282.74 307.5 297.1 322.84 297.1 322.84 312.48 337.16 312.48 337.16 297.1 352.5 297.1 352.5 282.74"/><polygon class="cls-10" points="352.5 282.74 337.16 282.74 337.16 267.35 322.84 267.35 322.84 282.74 307.5 282.74 307.5 297.1 322.84 297.1 322.84 312.48 337.16 312.48 337.16 297.1 352.5 297.1 352.5 282.74"/><path class="cls-11" d="m390.64,365.5l-16.19-16.19c-3.39-3.39-3.39-8.88,0-12.27,3.39-3.39,8.88-3.39,12.27,0l3.42,3.42,2.91-3.16c3.25-3.52,8.73-3.75,12.26-.5,3.52,3.25,3.75,8.73.5,12.26l-15.16,16.45Z"/><polyline class="cls-11" points="367.5 348.4 379.94 348.4 384.88 339.7 391.1 360.3 395.3 343.4 397.68 348.4 412.5 348.4"/><path class="cls-12" d="m1349.54,245.2l-16.19-16.19c-3.39-3.39-3.39-8.88,0-12.27,3.39-3.39,8.88-3.39,12.27,0l3.42,3.42,2.91-3.16c3.25-3.52,8.73-3.75,12.26-.5,3.52,3.25,3.75,8.73.5,12.26l-15.16,16.45Z"/><polyline class="cls-12" points="1326.4 228.09 1338.84 228.09 1343.78 219.4 1350 240 1354.21 223.1 1356.59 228.09 1371.4 228.09"/><path class="cls-3" d="m1242.93,164.57c-2.74.26-4.74,2.7-4.48,5.44.26,2.74,2.7,4.74,5.44,4.48,2.74-.26,4.74-2.7,4.48-5.44-.26-2.74-2.7-4.74-5.44-4.48Z"/><path class="cls-3" d="m1222.36,174.54s-1,17.96,10.19,17.96c8.86,0,10.31-12.7,10.53-17.99"/><rect class="cls-3" x="1224.34" y="147.52" width="3.54" height="2.68"/><rect class="cls-3" x="1216.82" y="147.5" width="3.54" height="2.68"/><path class="cls-3" d="m1216.66,148.82c-5.24.63-5.05,4.71-5.05,11.69,0,7.61,3.85,14.03,10.75,14.03s10.75-6.41,10.75-14.03c0-6.99.19-11.08-5.08-11.69"/><path class="cls-2" d="m222.93,344.57c-2.74.26-4.74,2.7-4.48,5.44.26,2.74,2.7,4.74,5.44,4.48,2.74-.26,4.74-2.7,4.48-5.44-.26-2.74-2.7-4.74-5.44-4.48Z"/><path class="cls-2" d="m202.36,354.54s-1,17.96,10.19,17.96c8.86,0,10.31-12.7,10.53-17.99"/><rect class="cls-2" x="204.34" y="327.52" width="3.54" height="2.68"/><rect class="cls-2" x="196.82" y="327.5" width="3.54" height="2.68"/><path class="cls-2" d="m196.66,328.82c-5.24.63-5.05,4.71-5.05,11.69,0,7.61,3.85,14.03,10.75,14.03s10.75-6.41,10.75-14.03c0-6.99.19-11.08-5.08-11.69"/><circle class="cls-4" cx="1100.41" cy="368.13" r="4.37"/><circle class="cls-4" cx="1120.56" cy="368.13" r="4.37"/><polygon class="cls-4" points="1124.09 361.53 1096.99 361.53 1089.83 345.95 1126.06 345.95 1124.09 361.53"/><polyline class="cls-4" points="1126.06 345.95 1126.93 339.11 1130.86 339.11"/><path class="cls-4" d="m1089.69,346.01c-.36-1.26-.55-2.6-.55-3.97,0-8.03,6.51-14.53,14.53-14.53,1.74,0,3.41.31,4.95.87v17.61"/><line class="cls-4" x1="1090.79" y1="335.3" x2="1108.63" y2="345.98"/><line class="cls-4" x1="1097.87" y1="328.71" x2="1108.63" y2="345.98"/><circle class="cls-4" cx="380.41" cy="247.96" r="4.37"/><circle class="cls-4" cx="400.56" cy="247.96" r="4.37"/><polygon class="cls-4" points="404.09 241.36 376.99 241.36 369.83 225.78 406.06 225.78 404.09 241.36"/><polyline class="cls-4" points="406.06 225.78 406.93 218.94 410.86 218.94"/><path class="cls-4" d="m369.69,225.84c-.36-1.26-.55-2.6-.55-3.97,0-8.03,6.51-14.53,14.53-14.53,1.74,0,3.41.31,4.95.87v17.61"/><line class="cls-4" x1="370.79" y1="215.14" x2="388.63" y2="225.81"/><line class="cls-4" x1="377.87" y1="208.54" x2="388.63" y2="225.81"/><path class="cls-9" d="m1350,327.5c-6.66,0-13.25,5.04-13.25,13.77s7.73,25.27,13.14,31.23c0,0,.04-.04.11-.11.07.07.11.11.11.11,5.41-5.96,13.14-21.73,13.14-31.23s-6.59-13.77-13.25-13.77Zm.84,22.46c-4.79.46-9.05-3.05-9.52-7.84s3.05-9.05,7.84-9.52c4.79-.46,9.05,3.05,9.52,7.84.46,4.79-3.05,9.05-7.84,9.52Z"/><path class="cls-6" d="m750.84,327.54c6.66,0,13.25,5.04,13.25,13.77s-7.73,25.27-13.14,31.23c0,0-.04-.04-.11-.11-.07.07-.11.11-.11.11-5.41-5.96-13.14-21.73-13.14-31.23s6.59-13.77,13.25-13.77Zm-.84,22.46c4.79.46,9.05-3.05,9.52-7.84s-3.05-9.05-7.84-9.52c-4.79-.46-9.05,3.05-9.52,7.84-.46,4.79,3.05,9.05,7.84,9.52Z"/><rect class="cls-1" x="67.5" y="274.36" width="45" height="20.61"/><circle class="cls-1" cx="90" cy="284.66" r="5.7"/><circle class="cls-1" cx="105.68" cy="284.66" r="1.77"/><circle class="cls-1" cx="74.32" cy="284.66" r="1.77"/><line class="cls-1" x1="67.5" y1="298.42" x2="112.5" y2="298.42"/><line class="cls-1" x1="67.5" y1="300.94" x2="112.5" y2="300.94"/><line class="cls-1" x1="67.5" y1="303.46" x2="112.5" y2="303.46"/><line class="cls-1" x1="67.5" y1="305.98" x2="112.5" y2="305.98"/><rect class="cls-1" x="607.5" y="274.19" width="45" height="20.61"/><circle class="cls-1" cx="630" cy="284.5" r="5.7"/><circle class="cls-1" cx="645.68" cy="284.5" r="1.77"/><circle class="cls-1" cx="614.32" cy="284.5" r="1.77"/><line class="cls-1" x1="607.5" y1="298.25" x2="652.5" y2="298.25"/><line class="cls-1" x1="607.5" y1="300.77" x2="652.5" y2="300.77"/><line class="cls-1" x1="607.5" y1="303.29" x2="652.5" y2="303.29"/><line class="cls-1" x1="607.5" y1="305.81" x2="652.5" y2="305.81"/><rect class="cls-14" x="240" y="200" width="60" height="60" transform="translate(540 460) rotate(-180)"/><rect class="cls-19" x="0" y="260" width="60" height="60"/><rect class="cls-19" x="180" y="260" width="60" height="60" transform="translate(420 580) rotate(-180)"/><rect class="cls-18" x="660" y="260" width="60" height="60" transform="translate(980 -400) rotate(90)"/><rect class="cls-21" x="540" y="319.83" width="60" height="60" transform="translate(919.83 -220.17) rotate(90)"/><rect class="cls-14" x="720" y="260" width="60" height="60" transform="translate(1040 -460) rotate(90)"/><rect class="cls-13" x="420" y="320" width="60" height="60" transform="translate(100 800) rotate(-90)"/><rect class="cls-19" x="660" y="200" width="60" height="60" transform="translate(920 -460) rotate(90)"/><rect class="cls-18" x="900.17" y="260" width="60" height="60" transform="translate(640.17 1220.17) rotate(-90)"/><rect class="cls-19" x="900" y="200" width="60" height="60"/><rect class="cls-21" x="840" y="260" width="60" height="60"/><rect class="cls-18" x="1380" y="80" width="60" height="60"/><rect class="cls-21" x="1380" y="20" width="60" height="60" transform="translate(1360 1460) rotate(-90)"/></svg>