<?xml version="1.0" encoding="UTF-8"?><svg id="Layer_1" xmlns="http://www.w3.org/2000/svg" xmlns:xlink="http://www.w3.org/1999/xlink" viewBox="0 0 600 720"><defs><style>.cls-1,.cls-2,.cls-3,.cls-4{fill:none;}.cls-2{stroke:#fff;}.cls-2,.cls-3,.cls-4{stroke-miterlimit:10;stroke-width:1.5px;}.cls-3,.cls-4{stroke:#000;}.cls-5{clip-path:url(#clippath);}.cls-6{fill:#f3f3d1;}.cls-7{fill:#00585c;}.cls-8{fill:teal;}.cls-9{fill:#fff;}.cls-10{fill:#8bc3bf;}.cls-11{fill:#cde9e7;}.cls-12{fill:#d0e048;}.cls-13{fill:#c7dc00;}.cls-14{fill:#dee47d;}.cls-15{fill:#24575b;}.cls-16{fill:#1f4c4e;}.cls-17{clip-path:url(#clippath-1);}.cls-4{stroke-linecap:square;}</style><clipPath id="clippath"><rect class="cls-1" x="200" y="260" width="200" height="200"/></clipPath><clipPath id="clippath-1"><rect class="cls-1" x="200" y="260" width="200" height="200"/></clipPath></defs><rect class="cls-10" x="550" y="190" width="20" height="20" transform="translate(360 760) rotate(-90)"/><rect class="cls-11" x="420" y="70" width="10" height="10" transform="translate(350 500) rotate(-90)"/><rect class="cls-8" x="400" y="120" width="10" height="10" transform="translate(280 530) rotate(-90)"/><rect class="cls-7" x="460" y="90" width="10" height="10" transform="translate(370 560) rotate(-90)"/><rect class="cls-11" x="570" y="100" width="10" height="10" transform="translate(470 680) rotate(-90)"/><rect class="cls-8" x="490" y="40" width="10" height="10" transform="translate(450 540) rotate(-90)"/><rect class="cls-7" x="580" y="50" width="10" height="10" transform="translate(530 640) rotate(-90)"/><rect class="cls-11" x="430" y="140" width="10" height="10" transform="translate(580 -290) rotate(90)"/><rect class="cls-7" x="410" y="40" width="10" height="10" transform="translate(460 -370) rotate(90)"/><rect class="cls-8" x="460" y="180" width="10" height="10" transform="translate(650 -280) rotate(90)"/><rect class="cls-8" x="570" y="70" width="20" height="20" transform="translate(500 660) rotate(-90)"/><rect class="cls-7" x="570" y="150" width="20" height="20" transform="translate(420 740) rotate(-90)"/><rect class="cls-10" x="440" y="20" width="20" height="20" transform="translate(420 480) rotate(-90)"/><rect class="cls-11" x="330" y="50" width="10" height="10" transform="translate(280 390) rotate(-90)"/><rect class="cls-8" x="390" y="70" width="10" height="10" transform="translate(320 470) rotate(-90)"/><rect class="cls-7" x="470" y="160" width="10" height="10" transform="translate(310 640) rotate(-90)"/><rect class="cls-11" x="530" y="170" width="10" height="10" transform="translate(360 710) rotate(-90)"/><rect class="cls-11" x="550" y="150" width="10" height="10" transform="translate(400 710) rotate(-90)"/><rect class="cls-7" x="590" y="110" width="10" height="10" transform="translate(480 710) rotate(-90)"/><rect class="cls-11" x="480" y="210" width="10" height="10" transform="translate(700 -270) rotate(90)"/><rect class="cls-7" x="360" y="20" width="10" height="10" transform="translate(390 -340) rotate(90)"/><rect class="cls-8" x="510" y="150" width="10" height="10" transform="translate(670 -360) rotate(90)"/><rect class="cls-8" x="420" y="170" width="20" height="20" transform="translate(250 610) rotate(-90)"/><rect class="cls-7" x="360" y="50" width="20" height="20" transform="translate(310 430) rotate(-90)"/><rect class="cls-10" x="530" y="20" width="20" height="20" transform="translate(510 570) rotate(-90)"/><rect class="cls-11" x="580" y="190" width="10" height="10" transform="translate(390 780) rotate(-90)"/><rect class="cls-8" x="570" y="130" width="10" height="10" transform="translate(440 710) rotate(-90)"/><rect class="cls-7" x="550" y="230" width="10" height="10" transform="translate(320 790) rotate(-90)"/><rect class="cls-11" x="470" y="10" width="10" height="10" transform="translate(460 490) rotate(-90)"/><rect class="cls-8" x="420" y="20" width="10" height="10" transform="translate(400 450) rotate(-90)"/><rect class="cls-7" x="510" y="20" width="10" height="10" transform="translate(490 540) rotate(-90)"/><rect class="cls-11" x="560" y="40" width="10" height="10" transform="translate(610 -520) rotate(90)"/><rect class="cls-7" x="450" y="50" width="10" height="10" transform="translate(510 -400) rotate(90)"/><rect class="cls-8" x="560" y="10" width="10" height="10" transform="translate(580 -550) rotate(90)"/><rect class="cls-8" x="430" y="100" width="20" height="20" transform="translate(330 550) rotate(-90)"/><rect class="cls-7" x="490" y="170" width="20" height="20" transform="translate(320 680) rotate(-90)"/><rect class="cls-6" x="120" y="160" width="20" height="20" transform="translate(-40 300) rotate(-90)"/><rect class="cls-6" x="140" y="210" width="10" height="10" transform="translate(-70 360) rotate(-90)"/><rect class="cls-6" x="40" y="220" width="10" height="10" transform="translate(-180 270) rotate(-90)"/><rect class="cls-6" x="90" y="170" width="10" height="10" transform="translate(-80 270) rotate(-90)"/><rect class="cls-13" x="70" y="200" width="10" height="10" transform="translate(-130 280) rotate(-90)"/><rect class="cls-13" x="190" y="150" width="10" height="10" transform="translate(40 350) rotate(-90)"/><rect class="cls-13" x="130" y="190" width="10" height="10" transform="translate(270 390) rotate(180)"/><rect class="cls-14" x="160" y="150" width="10" height="10" transform="translate(320 -10) rotate(90)"/><rect class="cls-14" x="120" y="140" width="10" height="10" transform="translate(270 20) rotate(90)"/><rect class="cls-14" x="10" y="110" width="10" height="10" transform="translate(130 100) rotate(90)"/><rect class="cls-14" x="190" y="10" width="20" height="20" transform="translate(180 220) rotate(-90)"/><rect class="cls-13" x="230" y="60" width="20" height="20" transform="translate(170 310) rotate(-90)"/><rect class="cls-6" x="410" y="370" width="20" height="20" transform="translate(840 760) rotate(180)"/><rect class="cls-6" x="460" y="350" width="10" height="10" transform="translate(930 710) rotate(180)"/><rect class="cls-6" x="470" y="510" width="10" height="10" transform="translate(950 1030) rotate(180)"/><rect class="cls-6" x="410" y="460" width="10" height="10" transform="translate(830 930) rotate(180)"/><rect class="cls-13" x="550" y="500" width="10" height="10" transform="translate(1110 1010) rotate(-180)"/><rect class="cls-13" x="380" y="500" width="10" height="10" transform="translate(770 1010) rotate(-180)"/><rect class="cls-13" x="520" y="560" width="10" height="10" transform="translate(1050 1130) rotate(-180)"/><rect class="cls-14" x="540" y="460" width="10" height="10"/><rect class="cls-14" x="560" y="400" width="10" height="10"/><rect class="cls-14" x="480" y="370" width="10" height="10"/><rect class="cls-14" x="540" y="520" width="20" height="20" transform="translate(1100 1060) rotate(180)"/><rect class="cls-13" x="540" y="590" width="20" height="20" transform="translate(1100 1200) rotate(180)"/><rect class="cls-6" x="80" y="250" width="20" height="20" transform="translate(-170 350) rotate(-90)"/><rect class="cls-6" x="20" y="80" width="10" height="10" transform="translate(-60 110) rotate(-90)"/><rect class="cls-6" x="70" y="30" width="10" height="10" transform="translate(40 110) rotate(-90)"/><rect class="cls-6" x="80" y="140" width="10" height="10" transform="translate(-60 230) rotate(-90)"/><rect class="cls-13" x="10" y="140" width="10" height="10" transform="translate(-130 160) rotate(-90)"/><rect class="cls-13" x="10" y="40" width="10" height="10" transform="translate(-30 60) rotate(-90)"/><rect class="cls-13" x="110" y="30" width="10" height="10" transform="translate(80 150) rotate(-90)"/><rect class="cls-14" x="50" y="10" width="10" height="10" transform="translate(70 -40) rotate(90)"/><rect class="cls-14" x="130" y="80" width="10" height="10" transform="translate(220 -50) rotate(90)"/><rect class="cls-14" x="50" y="150" width="10" height="10" transform="translate(210 100) rotate(90)"/><rect class="cls-14" x="220" y="110" width="20" height="20" transform="translate(110 350) rotate(-90)"/><rect class="cls-13" x="20" y="10" width="20" height="20" transform="translate(10 50) rotate(-90)"/><rect class="cls-6" x="570" y="420" width="20" height="20" transform="translate(1160 860) rotate(180)"/><rect class="cls-6" x="410" y="540" width="10" height="10" transform="translate(830 1090) rotate(180)"/><rect class="cls-6" x="520" y="370" width="10" height="10" transform="translate(1050 750) rotate(180)"/><rect class="cls-6" x="570" y="550" width="10" height="10" transform="translate(1150 1110) rotate(180)"/><rect class="cls-13" x="450" y="370" width="10" height="10" transform="translate(910 750) rotate(-180)"/><rect class="cls-13" x="430" y="470" width="10" height="10" transform="translate(870 950) rotate(-180)"/><rect class="cls-13" x="490" y="490" width="10" height="10" transform="translate(990 990) rotate(-180)"/><rect class="cls-14" x="450" y="530" width="10" height="10"/><rect class="cls-14" x="500" y="530" width="10" height="10"/><rect class="cls-14" x="440" y="490" width="10" height="10"/><rect class="cls-14" x="540" y="350" width="20" height="20" transform="translate(1100 720) rotate(180)"/><rect class="cls-13" x="480" y="310" width="20" height="20" transform="translate(980 640) rotate(180)"/><rect class="cls-6" x="160" y="70" width="20" height="20" transform="translate(90 250) rotate(-90)"/><rect class="cls-6" x="240" y="150" width="10" height="10" transform="translate(90 400) rotate(-90)"/><rect class="cls-6" x="250" y="20" width="10" height="10" transform="translate(230 280) rotate(-90)"/><rect class="cls-6" x="90" y="10" width="10" height="10" transform="translate(80 110) rotate(-90)"/><rect class="cls-13" x="140" y="10" width="10" height="10" transform="translate(130 160) rotate(-90)"/><rect class="cls-13" x="190" y="60" width="10" height="10" transform="translate(130 260) rotate(-90)"/><rect class="cls-13" x="140" y="120" width="10" height="10" transform="translate(20 270) rotate(-90)"/><rect class="cls-14" x="170" y="100" width="10" height="10" transform="translate(280 -70) rotate(90)"/><rect class="cls-14" x="230" y="10" width="10" height="10" transform="translate(250 -220) rotate(90)"/><rect class="cls-14" x="130" y="40" width="10" height="10" transform="translate(180 -90) rotate(90)"/><rect class="cls-14" x="40" y="170" width="20" height="20" transform="translate(-130 230) rotate(-90)"/><rect class="cls-13" x="170" y="200" width="20" height="20" transform="translate(-30 390) rotate(-90)"/><rect class="cls-6" x="470" y="560" width="20" height="20" transform="translate(960 1140) rotate(180)"/><rect class="cls-6" x="430" y="410" width="10" height="10" transform="translate(870 830) rotate(180)"/><rect class="cls-6" x="550" y="420" width="10" height="10" transform="translate(1110 850) rotate(180)"/><rect class="cls-6" x="520" y="500" width="10" height="10" transform="translate(1050 1010) rotate(180)"/><rect class="cls-13" x="500" y="350" width="10" height="10" transform="translate(1010 710) rotate(-180)"/><rect class="cls-13" x="540" y="440" width="10" height="10" transform="translate(1090 890) rotate(-180)"/><rect class="cls-13" x="540" y="390" width="10" height="10" transform="translate(1090 790) rotate(-180)"/><rect class="cls-14" x="520" y="330" width="10" height="10"/><rect class="cls-14" x="420" y="440" width="10" height="10"/><rect class="cls-14" x="570" y="490" width="10" height="10"/><rect class="cls-14" x="410" y="490" width="20" height="20" transform="translate(840 1000) rotate(180)"/><rect class="cls-13" x="370" y="530" width="20" height="20" transform="translate(760 1080) rotate(180)"/><rect class="cls-10" x="150" y="650" width="20" height="20" transform="translate(-500 820) rotate(-90)"/><rect class="cls-11" x="240" y="590" width="10" height="10" transform="translate(-350 840) rotate(-90)"/><rect class="cls-10" x="90" y="500" width="10" height="10" transform="translate(-410 600) rotate(-90)"/><rect class="cls-10" x="70" y="610" width="10" height="10" transform="translate(-540 690) rotate(-90)"/><rect class="cls-11" x="130" y="440" width="10" height="10" transform="translate(-310 580) rotate(-90)"/><rect class="cls-7" x="240" y="570" width="10" height="10" transform="translate(-330 820) rotate(-90)"/><rect class="cls-7" x="200" y="650" width="10" height="10" transform="translate(-450 860) rotate(-90)"/><rect class="cls-11" x="210" y="630" width="10" height="10" transform="translate(850 420) rotate(90)"/><rect class="cls-8" x="150" y="690" width="10" height="10" transform="translate(850 540) rotate(90)"/><rect class="cls-8" x="150" y="500" width="10" height="10" transform="translate(660 350) rotate(90)"/><rect class="cls-8" x="240" y="670" width="20" height="20" transform="translate(-430 930) rotate(-90)"/><rect class="cls-7" x="80" y="440" width="20" height="20" transform="translate(-360 540) rotate(-90)"/><rect class="cls-10" x="260" y="610" width="20" height="20" transform="translate(-350 890) rotate(-90)"/><rect class="cls-11" x="110" y="670" width="10" height="10" transform="translate(-560 790) rotate(-90)"/><rect class="cls-10" x="220" y="510" width="10" height="10" transform="translate(-290 740) rotate(-90)"/><rect class="cls-10" x="120" y="530" width="10" height="10" transform="translate(-410 660) rotate(-90)"/><rect class="cls-11" x="170" y="510" width="10" height="10" transform="translate(-340 690) rotate(-90)"/><rect class="cls-7" x="260" y="560" width="10" height="10" transform="translate(-300 830) rotate(-90)"/><rect class="cls-7" x="170" y="470" width="10" height="10" transform="translate(-300 650) rotate(-90)"/><rect class="cls-11" x="130" y="600" width="10" height="10" transform="translate(740 470) rotate(90)"/><rect class="cls-8" x="190" y="500" width="10" height="10" transform="translate(700 310) rotate(90)"/><rect class="cls-8" x="250" y="540" width="10" height="10" transform="translate(800 290) rotate(90)"/><rect class="cls-8" x="70" y="530" width="20" height="20" transform="translate(-460 620) rotate(-90)"/><rect class="cls-7" x="250" y="500" width="20" height="20" transform="translate(-250 770) rotate(-90)"/><rect class="cls-10" x="120" y="480" width="20" height="20" transform="translate(-360 620) rotate(-90)"/><rect class="cls-11" x="220" y="700" width="10" height="10" transform="translate(-480 930) rotate(-90)"/><rect class="cls-10" x="250" y="650" width="10" height="10" transform="translate(-400 910) rotate(-90)"/><rect class="cls-10" x="280" y="660" width="10" height="10" transform="translate(-380 950) rotate(-90)"/><rect class="cls-11" x="50" y="470" width="10" height="10" transform="translate(-420 530) rotate(-90)"/><rect class="cls-7" x="110" y="570" width="10" height="10" transform="translate(-460 690) rotate(-90)"/><rect class="cls-7" x="180" y="620" width="10" height="10" transform="translate(-440 810) rotate(-90)"/><rect class="cls-11" x="270" y="530" width="10" height="10" transform="translate(810 260) rotate(90)"/><rect class="cls-8" x="130" y="560" width="10" height="10" transform="translate(700 430) rotate(90)"/><rect class="cls-8" x="130" y="630" width="10" height="10" transform="translate(770 500) rotate(90)"/><rect class="cls-8" x="280" y="560" width="20" height="20" transform="translate(-280 860) rotate(-90)"/><rect class="cls-7" x="70" y="640" width="20" height="20" transform="translate(-570 730) rotate(-90)"/><g id="Artwork_7"><g class="cls-5"><rect class="cls-15" x="200" y="260" width="200" height="200"/><rect class="cls-12" x="249.5" y="398.79" width="25.13" height="22.34"/><g class="cls-17"><path class="cls-16" d="m274.77,387.51h-25.26v-89.78h50.53c28.36,0,46.06,13.41,46.06,38.84,0,18.73-10.14,31.28-27.5,36.26l30.76,48.29h-28.87l-28.53-45.89h-17.19v12.27Zm23.89-33.41c14.78,0,22.34-6.36,22.34-17.36s-7.56-17.53-22.34-17.53h-23.89v34.89h23.89Z"/><path class="cls-9" d="m274.77,389.72h-25.26v-91.99h50.53c28.36,0,46.06,13.41,46.06,38.84,0,18.73-10.14,31.28-27.5,36.26l30.76,48.29h-28.87l-28.53-45.89h-17.19v14.47Zm23.89-35.61c14.78,0,22.34-6.36,22.34-17.36s-7.56-17.53-22.34-17.53h-23.89v34.89h23.89Z"/></g></g></g><rect class="cls-13" x="40" y="50" width="80" height="80" transform="translate(170 10) rotate(90)"/><rect class="cls-8" x="150" y="530" width="80" height="80" transform="translate(-380 760) rotate(-90)"/><rect class="cls-14" x="450" y="400" width="80" height="80" transform="translate(50 930) rotate(-90)"/><rect class="cls-7" x="480" y="60" width="80" height="80" transform="translate(620 -420) rotate(90)"/><polygon class="cls-2" points="217.77 561.16 198.84 561.16 198.84 542.23 181.16 542.23 181.16 561.16 162.23 561.16 162.23 578.84 181.16 578.84 181.16 597.77 198.84 597.77 198.84 578.84 217.77 578.84 217.77 561.16"/><polygon class="cls-2" points="217.77 561.16 198.84 561.16 198.84 542.23 181.16 542.23 181.16 561.16 162.23 561.16 162.23 578.84 181.16 578.84 181.16 597.77 198.84 597.77 198.84 578.84 217.77 578.84 217.77 561.16"/><path class="cls-3" d="m517.64,439.43c1.47,15.26-9.71,28.83-24.98,30.3-15.26,1.47-28.83-9.71-30.3-24.98-1.47-15.26,9.71-28.83,24.98-30.3,15.26-1.47,28.83,9.71,30.3,24.98Z"/><polyline class="cls-4" points="480.6 434.3 489.78 444.25 503.76 425.03"/><rect class="cls-3" x="487.23" y="410.14" width="5.55" height="4.18"/><path class="cls-3" d="m96.12,83.23c-3.41.33-5.91,3.36-5.59,6.78.33,3.41,3.36,5.91,6.78,5.59,3.41-.33,5.91-3.36,5.59-6.78-.33-3.41-3.36-5.91-6.78-5.59Z"/><path class="cls-3" d="m70.47,95.66s-1.25,22.39,12.7,22.39c11.05,0,12.85-15.84,13.12-22.43"/><rect class="cls-3" x="72.94" y="61.98" width="4.42" height="3.34"/><rect class="cls-3" x="63.58" y="61.95" width="4.42" height="3.34"/><path class="cls-3" d="m63.37,63.6c-6.53.78-6.3,5.87-6.3,14.57,0,9.49,4.8,17.48,13.4,17.48s13.4-7.99,13.4-17.48c0-8.72.24-13.81-6.33-14.58"/><path class="cls-2" d="m520,72.23c-8.22,0-16.35,6.22-16.35,16.99s9.54,31.18,16.21,38.54c0,0,.05-.05.14-.14.09.09.14.14.14.14,6.68-7.36,16.21-26.81,16.21-38.54s-8.14-16.99-16.35-16.99Zm1.03,27.72c-5.92.57-11.17-3.76-11.74-9.68s3.76-11.17,9.68-11.74c5.92-.57,11.17,3.76,11.74,9.68.57,5.92-3.76,11.17-9.68,11.74Z"/></svg>