<?xml version="1.0" encoding="UTF-8"?><svg id="Layer_1" xmlns="http://www.w3.org/2000/svg" viewBox="0 0 1440 380"><defs><style>.cls-1{stroke-width:.56px;}.cls-1,.cls-2,.cls-3,.cls-4,.cls-5,.cls-6,.cls-7,.cls-8,.cls-9{fill:none;stroke-miterlimit:10;}.cls-1,.cls-4,.cls-5,.cls-6,.cls-7,.cls-9{stroke:#000;}.cls-10{fill:#f3f3d1;}.cls-11{fill:#00585c;}.cls-12{fill:teal;}.cls-13{fill:#fffff3;}.cls-14{fill:#ffffed;}.cls-15{fill:#8bc3bf;}.cls-16{fill:#cde9e7;}.cls-17{fill:#c7dc00;}.cls-18{fill:#dee47d;}.cls-2{stroke-width:.62px;}.cls-2,.cls-3,.cls-8{stroke:#fff;}.cls-3,.cls-4{stroke-width:.6px;}.cls-5{stroke-width:.62px;}.cls-6{stroke-width:.62px;}.cls-7{stroke-width:.62px;}.cls-8,.cls-9{stroke-width:.49px;}</style></defs><rect class="cls-16" x="0" y="260" width="60" height="60"/><rect class="cls-11" x="540" y="319.83" width="60" height="60" transform="translate(919.83 -220.17) rotate(90)"/><rect class="cls-11" x="720" y="260" width="60" height="60" transform="translate(1040 -460) rotate(90)"/><rect class="cls-11" x="660" y="200" width="60" height="60" transform="translate(920 -460) rotate(90)"/><rect class="cls-17" x="240" y="320" width="60" height="60" transform="translate(540 700) rotate(180)"/><rect class="cls-13" x="1380" y="320" width="60" height="60"/><rect class="cls-11" x="1320" y="320" width="60" height="60"/><rect class="cls-13" x="1260" y="320" width="60" height="60"/><rect class="cls-11" x="1320" y="140" width="60" height="60"/><rect class="cls-15" x="1200" y="320" width="60" height="60"/><rect class="cls-18" x="1140" y="320" width="60" height="60"/><rect class="cls-17" x="1020" y="320" width="60" height="60" transform="translate(2100 700) rotate(180)"/><rect class="cls-16" x="1080" y="320" width="60" height="60" transform="translate(2220 700) rotate(180)"/><rect class="cls-18" x="600" y="320" width="60" height="60"/><rect class="cls-18" x="300" y="200.14" width="60" height="60"/><rect class="cls-17" x="480" y="320" width="60" height="60" transform="translate(1020 700) rotate(180)"/><rect class="cls-11" x="360" y="320" width="60" height="60" transform="translate(780 700) rotate(180)"/><rect class="cls-10" x="420" y="320" width="60" height="60" transform="translate(900 700) rotate(180)"/><rect class="cls-16" x="180" y="320" width="60" height="60" transform="translate(420 700) rotate(180)"/><rect class="cls-17" x="300" y="259.83" width="60" height="60"/><rect class="cls-11" x="60" y="320" width="60" height="60" transform="translate(180 700) rotate(180)"/><rect class="cls-17" x="60" y="260.17" width="60" height="60" transform="translate(180 580.33) rotate(180)"/><rect class="cls-18" x="0" y="199.97" width="60" height="60" transform="translate(60 459.95) rotate(180)"/><rect class="cls-16" x="780" y="199.97" width="60" height="60" transform="translate(1620 459.95) rotate(-180)"/><rect class="cls-15" x="240" y="140" width="60" height="60"/><rect class="cls-15" x="60" y="199.97" width="60" height="60" transform="translate(180 459.95) rotate(-180)"/><rect class="cls-18" x="120" y="199.97" width="60" height="60" transform="translate(300 459.95) rotate(-180)"/><rect class="cls-18" x="120" y="259.83" width="60" height="60" transform="translate(300 579.67) rotate(-180)"/><rect class="cls-15" x="180" y="199.97" width="60" height="60" transform="translate(420 459.95) rotate(180)"/><rect class="cls-15" x="360" y="199.97" width="60" height="60"/><rect class="cls-18" x="420" y="260" width="60" height="60" transform="translate(900 580) rotate(180)"/><rect class="cls-10" x="1140" y="260" width="60" height="60" transform="translate(2340 580) rotate(180)"/><rect class="cls-10" x="840.17" y="260" width="60" height="60" transform="translate(1740.33 580) rotate(180)"/><rect class="cls-15" x="1200" y="260" width="60" height="60" transform="translate(2460 580) rotate(180)"/><rect class="cls-18" x="1020" y="260" width="60" height="60"/><rect class="cls-17" x="600" y="260" width="60" height="60"/><rect class="cls-10" x="480" y="260" width="60" height="60"/><rect class="cls-12" x="360" y="260" width="60" height="60" transform="translate(780 580) rotate(180)"/><rect class="cls-13" x="1260" y="260" width="60" height="60" transform="translate(2580 580) rotate(180)"/><rect class="cls-16" x="1380" y="260" width="60" height="60" transform="translate(2820 580) rotate(180)"/><rect class="cls-17" x="960" y="260" width="60" height="60" transform="translate(700 1280) rotate(-90)"/><rect class="cls-10" x="660" y="320" width="60" height="60" transform="translate(1040 -340) rotate(90)"/><rect class="cls-16" x="300" y="320" width="60" height="60" transform="translate(-20 680) rotate(-90)"/><rect class="cls-12" x="600" y="199.97" width="60" height="60" transform="translate(400.03 859.97) rotate(-90)"/><rect class="cls-15" x="480" y="199.97" width="60" height="60" transform="translate(739.97 -280.03) rotate(90)"/><rect class="cls-17" x="480" y="140" width="60" height="60" transform="translate(340 680) rotate(-90)"/><rect class="cls-16" x="540" y="199.97" width="60" height="60" transform="translate(340.03 799.97) rotate(-90)"/><rect class="cls-17" x="720" y="320" width="60" height="60" transform="translate(400 1100) rotate(-90)"/><rect class="cls-16" x="1200" y="199.97" width="60" height="60" transform="translate(1000.03 1459.97) rotate(-90)"/><rect class="cls-17" x="60" y="140.17" width="60" height="60"/><rect class="cls-16" x="960" y="199.97" width="60" height="60"/><rect class="cls-14" x="0" y="139.83" width="60" height="60"/><rect class="cls-12" x="0" y="80" width="60" height="60" transform="translate(140 80) rotate(90)"/><rect class="cls-15" x="1260" y="199.97" width="60" height="60" transform="translate(1519.97 -1060.03) rotate(90)"/><rect class="cls-15" x="1380" y="199.97" width="60" height="60" transform="translate(1639.97 -1180.03) rotate(90)"/><rect class="cls-14" x="1320" y="199.97" width="60" height="60" transform="translate(1579.97 -1120.03) rotate(90)"/><rect class="cls-11" x="1020" y="199.97" width="60" height="60" transform="translate(820.03 1279.97) rotate(-90)"/><rect class="cls-17" x="1319.83" y="199.97" width="60" height="60" transform="translate(1579.81 -1119.86) rotate(90)"/><rect class="cls-11" x="420" y="200" width="60" height="60" transform="translate(680 -220) rotate(90)"/><rect class="cls-13" x="0" y="320" width="60" height="60" transform="translate(380 320) rotate(90)"/><rect class="cls-14" x="960" y="320" width="60" height="60" transform="translate(1340 -640) rotate(90)"/><rect class="cls-16" x="1260" y="140" width="60" height="60" transform="translate(1120 1460) rotate(-90)"/><rect class="cls-10" x="780.17" y="320" width="60" height="60"/><rect class="cls-15" x="1379.83" y="80" width="60" height="60"/><rect class="cls-17" x="1080" y="260" width="60" height="60" transform="translate(1400 -820) rotate(90)"/><rect class="cls-18" x="1380" y="320" width="60" height="60" transform="translate(1060 1760) rotate(-90)"/><rect class="cls-18" x="900.17" y="320" width="60" height="60" transform="translate(1860.33 700) rotate(-180)"/><polygon class="cls-7" points="52.5 282.82 37.16 282.82 37.16 267.44 22.84 267.44 22.84 282.82 7.5 282.82 7.5 297.18 22.84 297.18 22.84 312.56 37.16 312.56 37.16 297.18 52.5 297.18 52.5 282.82"/><polygon class="cls-7" points="52.5 282.82 37.16 282.82 37.16 267.44 22.84 267.44 22.84 282.82 7.5 282.82 7.5 297.18 22.84 297.18 22.84 312.56 37.16 312.56 37.16 297.18 52.5 297.18 52.5 282.82"/><path class="cls-8" d="m390.64,245.47l-16.19-16.19c-3.39-3.39-3.39-8.88,0-12.27,3.39-3.39,8.88-3.39,12.27,0l3.42,3.42,2.91-3.16c3.25-3.52,8.73-3.75,12.26-.5,3.52,3.25,3.75,8.73.5,12.26l-15.16,16.45Z"/><polyline class="cls-8" points="367.5 228.37 379.94 228.37 384.88 219.67 391.1 240.27 395.3 223.38 397.68 228.37 412.5 228.37"/><path class="cls-9" d="m150.64,245.47l-16.19-16.19c-3.39-3.39-3.39-8.88,0-12.27,3.39-3.39,8.88-3.39,12.27,0l3.42,3.42,2.91-3.16c3.25-3.52,8.73-3.75,12.26-.5,3.52,3.25,3.75,8.73.5,12.26l-15.16,16.45Z"/><polyline class="cls-9" points="127.5 228.37 139.94 228.37 144.88 219.67 151.1 240.27 155.3 223.38 157.68 228.37 172.5 228.37"/><path class="cls-2" d="m582.93,344.4c-2.74.26-4.74,2.7-4.48,5.44.26,2.74,2.7,4.74,5.44,4.48,2.74-.26,4.74-2.7,4.48-5.44-.26-2.74-2.7-4.74-5.44-4.48Z"/><path class="cls-2" d="m562.36,354.37s-1,17.96,10.19,17.96c8.86,0,10.31-12.7,10.53-17.99"/><rect class="cls-2" x="564.34" y="327.35" width="3.54" height="2.68"/><rect class="cls-2" x="556.82" y="327.33" width="3.54" height="2.68"/><path class="cls-2" d="m556.66,328.66c-5.24.63-5.05,4.71-5.05,11.69,0,7.61,3.85,14.03,10.75,14.03s10.75-6.41,10.75-14.03c0-6.99.19-11.08-5.08-11.69"/><path class="cls-2" d="m1062.93,224.54c-2.74.26-4.74,2.7-4.48,5.44.26,2.74,2.7,4.74,5.44,4.48,2.74-.26,4.74-2.7,4.48-5.44-.26-2.74-2.7-4.74-5.44-4.48Z"/><path class="cls-2" d="m1042.36,234.51s-1,17.96,10.19,17.96c8.86,0,10.31-12.7,10.53-17.99"/><rect class="cls-2" x="1044.34" y="207.49" width="3.54" height="2.68"/><rect class="cls-2" x="1036.82" y="207.47" width="3.54" height="2.68"/><path class="cls-2" d="m1036.66,208.8c-5.24.63-5.05,4.71-5.05,11.69,0,7.61,3.85,14.03,10.75,14.03s10.75-6.41,10.75-14.03c0-6.99.19-11.08-5.08-11.69"/><circle class="cls-3" cx="620.41" cy="248.1" r="4.37"/><circle class="cls-3" cx="640.56" cy="248.1" r="4.37"/><polygon class="cls-3" points="644.09 241.5 616.99 241.5 609.83 225.92 646.06 225.92 644.09 241.5"/><polyline class="cls-3" points="646.06 225.92 646.93 219.08 650.86 219.08"/><path class="cls-3" d="m609.69,225.98c-.36-1.26-.55-2.6-.55-3.97,0-8.03,6.51-14.53,14.53-14.53,1.74,0,3.41.31,4.95.87v17.61"/><line class="cls-3" x1="610.79" y1="215.28" x2="628.63" y2="225.95"/><line class="cls-3" x1="617.87" y1="208.68" x2="628.63" y2="225.95"/><circle class="cls-4" cx="20.41" cy="187.96" r="4.37"/><circle class="cls-4" cx="40.56" cy="187.96" r="4.37"/><polygon class="cls-4" points="44.09 181.36 16.99 181.36 9.83 165.78 46.06 165.78 44.09 181.36"/><polyline class="cls-4" points="46.06 165.78 46.93 158.94 50.86 158.94"/><path class="cls-4" d="m9.69,165.84c-.36-1.26-.55-2.6-.55-3.97,0-8.03,6.51-14.53,14.53-14.53,1.74,0,3.41.31,4.95.87v17.61"/><line class="cls-4" x1="10.79" y1="155.14" x2="28.63" y2="165.81"/><line class="cls-4" x1="17.87" y1="148.54" x2="28.63" y2="165.81"/><path class="cls-5" d="m270,327.5c-6.66,0-13.25,5.04-13.25,13.77s7.73,25.27,13.14,31.23c0,0,.04-.04.11-.11.07.07.11.11.11.11,5.41-5.96,13.14-21.73,13.14-31.23s-6.59-13.77-13.25-13.77Zm.84,22.46c-4.79.46-9.05-3.05-9.52-7.84s3.05-9.05,7.84-9.52c4.79-.46,9.05,3.05,9.52,7.84.46,4.79-3.05,9.05-7.84,9.52Z"/><path class="cls-5" d="m1290,147.5c6.66,0,13.25,5.04,13.25,13.77s-7.73,25.27-13.14,31.23c0,0-.04-.04-.11-.11-.07.07-.11.11-.11.11-5.41-5.96-13.14-21.73-13.14-31.23s6.59-13.77,13.25-13.77Zm-.84,22.46c4.79.46,9.05-3.05,9.52-7.84s-3.05-9.05-7.84-9.52c-4.79-.46-9.05,3.05-9.52,7.84-.46,4.79,3.05,9.05,7.84,9.52Z"/><rect class="cls-1" x="487.5" y="154.19" width="45" height="20.61"/><circle class="cls-1" cx="510" cy="164.5" r="5.7"/><circle class="cls-1" cx="525.68" cy="164.5" r="1.77"/><circle class="cls-1" cx="494.32" cy="164.5" r="1.77"/><line class="cls-1" x1="487.5" y1="178.25" x2="532.5" y2="178.25"/><line class="cls-1" x1="487.5" y1="180.77" x2="532.5" y2="180.77"/><line class="cls-1" x1="487.5" y1="183.29" x2="532.5" y2="183.29"/><line class="cls-1" x1="487.5" y1="185.81" x2="532.5" y2="185.81"/><rect class="cls-11" x="180" y="260" width="60" height="60"/><rect class="cls-16" x="240" y="260" width="60" height="60"/><rect class="cls-15" x="660" y="260" width="60" height="60" transform="translate(980 -400) rotate(90)"/><rect class="cls-10" x="120" y="320" width="60" height="60" transform="translate(-200 500) rotate(-90)"/><rect class="cls-10" x="120" y="140" width="60" height="60" transform="translate(-20 320) rotate(-90)"/><rect class="cls-17" x="660" y="140" width="60" height="60" transform="translate(860 -520) rotate(90)"/><rect class="cls-17" x="780" y="260" width="60" height="60" transform="translate(520 1100) rotate(-90)"/><rect class="cls-11" x="840.17" y="320" width="60" height="60" transform="translate(1740.33 700) rotate(-180)"/><path class="cls-8" d="m1350.64,185.5l-16.19-16.19c-3.39-3.39-3.39-8.88,0-12.27,3.39-3.39,8.88-3.39,12.27,0l3.42,3.42,2.91-3.16c3.25-3.52,8.73-3.75,12.26-.5,3.52,3.25,3.75,8.73.5,12.26l-15.16,16.45Z"/><polyline class="cls-8" points="1327.5 168.4 1339.94 168.4 1344.88 159.7 1351.1 180.3 1355.3 163.4 1357.68 168.4 1372.5 168.4"/><polygon class="cls-6" points="787.5 282.84 802.84 282.84 802.84 267.5 817.16 267.5 817.16 282.84 832.5 282.84 832.5 297.16 817.16 297.16 817.16 312.5 802.84 312.5 802.84 297.16 787.5 297.16 787.5 282.84"/><polygon class="cls-6" points="787.5 282.84 802.84 282.84 802.84 267.5 817.16 267.5 817.16 282.84 832.5 282.84 832.5 297.16 817.16 297.16 817.16 312.5 802.84 312.5 802.84 297.16 787.5 297.16 787.5 282.84"/><rect class="cls-11" x="1260" y="260" width="60" height="60" transform="translate(2580 580) rotate(180)"/><rect class="cls-10" x="1080" y="199.97" width="60" height="60" transform="translate(880.03 1339.97) rotate(-90)"/><rect class="cls-15" x="900" y="260" width="60" height="60"/></svg>