<?xml version="1.0" encoding="UTF-8"?><svg id="Layer_1" xmlns="http://www.w3.org/2000/svg" xmlns:xlink="http://www.w3.org/1999/xlink" viewBox="0 0 600 720"><defs><style>.cls-1,.cls-2,.cls-3,.cls-4{fill:none;}.cls-2{stroke:#fff;}.cls-2,.cls-3,.cls-4{stroke-miterlimit:10;stroke-width:1.5px;}.cls-3,.cls-4{stroke:#000;}.cls-5{clip-path:url(#clippath);}.cls-6{fill:#f3f3d1;}.cls-7{fill:#00585c;}.cls-8{fill:teal;}.cls-9{fill:#fff;}.cls-10{fill:#8bc3bf;}.cls-11{fill:#cde9e7;}.cls-12{fill:#d0e048;}.cls-13{fill:#c7dc00;}.cls-14{fill:#dee47d;}.cls-15{fill:#24575b;}.cls-16{fill:#1f4c4e;}.cls-17{clip-path:url(#clippath-1);}.cls-4{stroke-linecap:square;}</style><clipPath id="clippath"><rect class="cls-1" x="200" y="260" width="200" height="200"/></clipPath><clipPath id="clippath-1"><rect class="cls-1" x="200" y="260" width="200" height="200"/></clipPath></defs><rect class="cls-10" x="120" y="170" width="20" height="20" transform="translate(310 50) rotate(90)"/><rect class="cls-11" x="140" y="260" width="10" height="10" transform="translate(410 120) rotate(90)"/><rect class="cls-6" x="60" y="30" width="10" height="10" transform="translate(100 -30) rotate(90)"/><rect class="cls-14" x="210" y="240" width="10" height="10" transform="translate(460 30) rotate(90)"/><rect class="cls-13" x="20" y="300" width="10" height="10" transform="translate(330 280) rotate(90)"/><rect class="cls-14" x="80" y="390" width="10" height="10" transform="translate(480 310) rotate(90)"/><rect class="cls-13" x="120" y="350" width="10" height="10" transform="translate(480 230) rotate(90)"/><rect class="cls-11" x="170" y="290" width="10" height="10" transform="translate(-120 470) rotate(-90)"/><rect class="cls-7" x="150" y="320" width="10" height="10" transform="translate(-170 480) rotate(-90)"/><rect class="cls-8" x="70" y="320" width="10" height="10" transform="translate(-250 400) rotate(-90)"/><rect class="cls-6" x="10" y="190" width="20" height="20" transform="translate(220 180) rotate(90)"/><rect class="cls-8" x="110" y="290" width="20" height="20" transform="translate(420 180) rotate(90)"/><rect class="cls-13" x="40" y="60" width="80" height="80" transform="translate(180 20) rotate(90)"/><rect class="cls-7" x="50" y="420" width="40" height="40" transform="translate(510 370) rotate(90)"/><rect class="cls-7" x="280" y="150" width="40" height="40" transform="translate(130 470) rotate(-90)"/><rect class="cls-13" x="80" y="620" width="40" height="40" transform="translate(740 540) rotate(90)"/><rect class="cls-10" x="320" y="640" width="20" height="20" transform="translate(-320 980) rotate(-90)"/><rect class="cls-14" x="280" y="260" width="10" height="10" transform="translate(550 -20) rotate(90)"/><rect class="cls-8" x="260" y="210" width="10" height="10" transform="translate(480 -50) rotate(90)"/><rect x="130" y="70" width="10" height="10" transform="translate(210 -60) rotate(90)"/><rect class="cls-14" x="50" y="190" width="10" height="10" transform="translate(250 140) rotate(90)"/><rect class="cls-10" x="170" y="200" width="10" height="10" transform="translate(380 30) rotate(90)"/><rect class="cls-6" x="160" y="230" width="10" height="10" transform="translate(400 70) rotate(90)"/><rect class="cls-8" x="220" y="80" width="10" height="10" transform="translate(140 310) rotate(-90)"/><rect class="cls-11" x="240" y="180" width="10" height="10" transform="translate(60 430) rotate(-90)"/><rect class="cls-7" x="170" y="160" width="10" height="10" transform="translate(10 340) rotate(-90)"/><rect class="cls-13" x="200" y="140" width="20" height="20" transform="translate(360 -60) rotate(90)"/><rect class="cls-7" x="130" y="20" width="20" height="20" transform="translate(170 -110) rotate(90)"/><rect class="cls-14" x="400" y="510" width="20" height="20" transform="translate(-110 930) rotate(-90)"/><rect class="cls-6" x="260" y="110" width="10" height="10" transform="translate(380 -150) rotate(90)"/><rect class="cls-7" x="310" y="590" width="10" height="10" transform="translate(-280 910) rotate(-90)"/><rect class="cls-6" x="290" y="540" width="10" height="10" transform="translate(-250 840) rotate(-90)"/><rect class="cls-7" x="350" y="550" width="10" height="10" transform="translate(-200 910) rotate(-90)"/><rect class="cls-14" x="160" y="30" width="10" height="10" transform="translate(200 -130) rotate(90)"/><rect class="cls-8" x="10" y="120" width="10" height="10" transform="translate(140 110) rotate(90)"/><rect class="cls-7" x="210" y="200" width="10" height="10" transform="translate(10 420) rotate(-90)"/><rect class="cls-8" x="340" y="470" width="10" height="10" transform="translate(820 130) rotate(90)"/><rect class="cls-10" x="250" y="150" width="10" height="10" transform="translate(100 410) rotate(-90)"/><rect class="cls-8" x="430" y="630" width="20" height="20" transform="translate(-200 1080) rotate(-90)"/><rect class="cls-11" x="320" y="510" width="20" height="20" transform="translate(-190 850) rotate(-90)"/><rect class="cls-13" x="60" y="500" width="20" height="20" transform="translate(-440 580) rotate(-90)"/><rect class="cls-14" x="110" y="500" width="10" height="10" transform="translate(-390 620) rotate(-90)"/><rect class="cls-7" x="210" y="510" width="10" height="10" transform="translate(-300 730) rotate(-90)"/><rect x="320" y="80" width="10" height="10" transform="translate(410 -240) rotate(90)"/><rect class="cls-13" x="250" y="580" width="10" height="10" transform="translate(-330 840) rotate(-90)"/><rect class="cls-6" x="90" y="540" width="10" height="10" transform="translate(-450 640) rotate(-90)"/><rect class="cls-13" x="240" y="480" width="10" height="10" transform="translate(-240 730) rotate(-90)"/><rect class="cls-13" x="350" y="250" width="10" height="10" transform="translate(100 610) rotate(-90)"/><rect class="cls-14" x="170" y="440" width="10" height="10" transform="translate(620 270) rotate(90)"/><rect class="cls-7" x="150" y="370" width="10" height="10" transform="translate(530 220) rotate(90)"/><rect class="cls-11" x="150" y="400" width="20" height="20" transform="translate(-250 570) rotate(-90)"/><rect class="cls-6" x="180" y="680" width="20" height="20" transform="translate(-500 880) rotate(-90)"/><rect class="cls-8" x="150" y="540" width="80" height="80" transform="translate(-390 770) rotate(-90)"/><rect class="cls-8" x="510" y="350" width="40" height="40" transform="translate(900 -160) rotate(90)"/><rect class="cls-10" x="530" y="570" width="40" height="40" transform="translate(1140 40) rotate(90)"/><rect class="cls-7" x="40" y="360" width="20" height="20" transform="translate(-320 420) rotate(-90)"/><rect class="cls-10" x="20" y="460" width="10" height="10" transform="translate(-440 490) rotate(-90)"/><rect class="cls-11" x="160" y="510" width="10" height="10" transform="translate(-350 680) rotate(-90)"/><rect class="cls-11" x="30" y="690" width="10" height="10" transform="translate(-660 730) rotate(-90)"/><rect class="cls-13" x="380" y="80" width="10" height="10" transform="translate(470 -300) rotate(90)"/><rect class="cls-6" x="180" y="480" width="10" height="10" transform="translate(-300 670) rotate(-90)"/><rect class="cls-10" x="190" y="360" width="10" height="10" transform="translate(-170 560) rotate(-90)"/><rect class="cls-10" x="130" y="460" width="10" height="10" transform="translate(600 330) rotate(90)"/><rect class="cls-6" x="120" y="410" width="10" height="10" transform="translate(540 290) rotate(90)"/><rect class="cls-7" x="10" y="550" width="10" height="10" transform="translate(570 540) rotate(90)"/><rect class="cls-11" x="30" y="640" width="20" height="20" transform="translate(-610 690) rotate(-90)"/><rect class="cls-8" x="100" y="570" width="20" height="20" transform="translate(-470 690) rotate(-90)"/><rect class="cls-11" x="300" y="100" width="20" height="20" transform="translate(420 -200) rotate(90)"/><rect class="cls-6" x="340" y="130" width="10" height="10" transform="translate(480 -210) rotate(90)"/><rect class="cls-13" x="270" y="50" width="10" height="10" transform="translate(330 -220) rotate(90)"/><rect class="cls-13" x="260" y="630" width="10" height="10" transform="translate(-370 900) rotate(-90)"/><rect class="cls-14" x="170" y="640" width="10" height="10" transform="translate(-470 820) rotate(-90)"/><rect class="cls-8" x="110" y="690" width="10" height="10" transform="translate(-580 810) rotate(-90)"/><rect class="cls-11" x="50" y="590" width="10" height="10" transform="translate(-540 650) rotate(-90)"/><rect class="cls-7" x="310" y="230" width="10" height="10" transform="translate(80 550) rotate(-90)"/><rect class="cls-6" x="370" y="180" width="10" height="10" transform="translate(190 560) rotate(-90)"/><rect class="cls-10" x="240" y="690" width="10" height="10" transform="translate(940 450) rotate(90)"/><rect class="cls-10" x="340" y="200" width="20" height="20" transform="translate(560 -140) rotate(90)"/><rect class="cls-10" x="250" y="500" width="20" height="20" transform="translate(-250 770) rotate(-90)"/><rect class="cls-7" x="510" y="230" width="20" height="20" transform="translate(280 760) rotate(-90)"/><rect class="cls-10" x="430" y="250" width="10" height="10" transform="translate(180 690) rotate(-90)"/><rect class="cls-8" x="440" y="100" width="10" height="10" transform="translate(340 550) rotate(-90)"/><rect class="cls-11" x="510" y="300" width="10" height="10" transform="translate(210 820) rotate(-90)"/><rect class="cls-8" x="540" y="180" width="10" height="10" transform="translate(360 730) rotate(-90)"/><rect class="cls-14" x="440" y="40" width="10" height="10" transform="translate(400 490) rotate(-90)"/><rect class="cls-7" x="510" y="40" width="10" height="10" transform="translate(470 560) rotate(-90)"/><rect class="cls-10" x="450" y="220" width="10" height="10" transform="translate(680 -230) rotate(90)"/><rect class="cls-14" x="390" y="220" width="10" height="10" transform="translate(620 -170) rotate(90)"/><rect class="cls-13" x="470" y="170" width="10" height="10" transform="translate(650 -300) rotate(90)"/><rect class="cls-8" x="390" y="140" width="20" height="20" transform="translate(250 550) rotate(-90)"/><rect class="cls-11" x="560" y="30" width="20" height="20" transform="translate(530 610) rotate(-90)"/><rect class="cls-14" x="450" y="410" width="80" height="80" transform="translate(40 940) rotate(-90)"/><rect class="cls-14" x="160" y="60" width="40" height="40" transform="translate(260 -100) rotate(90)"/><rect class="cls-8" x="70" y="210" width="40" height="40" transform="translate(320 140) rotate(90)"/><rect class="cls-13" x="390" y="570" width="40" height="40" transform="translate(-180 1000) rotate(-90)"/><rect class="cls-14" x="430" y="180" width="20" height="20" transform="translate(250 630) rotate(-90)"/><rect class="cls-11" x="530" y="660" width="10" height="10"/><rect class="cls-10" x="500" y="190" width="10" height="10"/><rect class="cls-14" x="370" y="680" width="10" height="10"/><rect class="cls-13" x="470" y="360" width="10" height="10"/><rect class="cls-11" x="410" y="420" width="10" height="10"/><rect class="cls-13" x="460" y="320" width="10" height="10" transform="translate(140 790) rotate(-90)"/><rect class="cls-11" x="430" y="470" width="10" height="10" transform="translate(870 950) rotate(180)"/><rect class="cls-11" x="530" y="540" width="10" height="10" transform="translate(1070 1090) rotate(180)"/><rect class="cls-7" x="560" y="460" width="10" height="10" transform="translate(1130 930) rotate(180)"/><rect class="cls-10" x="550" y="430" width="20" height="20" transform="translate(120 1000) rotate(-90)"/><rect class="cls-6" x="460" y="280" width="20" height="20" transform="translate(180 760) rotate(-90)"/><rect class="cls-7" x="470" y="530" width="20" height="20" transform="translate(-60 1020) rotate(-90)"/><rect class="cls-11" x="420" y="300" width="10" height="10"/><rect class="cls-8" x="430" y="370" width="10" height="10"/><rect class="cls-10" x="360" y="500" width="10" height="10"/><rect class="cls-10" x="540" y="270" width="10" height="10"/><rect class="cls-14" x="510" y="510" width="10" height="10"/><rect class="cls-11" x="80" y="160" width="10" height="10"/><rect class="cls-14" x="400" y="330" width="10" height="10" transform="translate(810 670) rotate(180)"/><rect class="cls-6" x="480" y="600" width="10" height="10" transform="translate(970 1210) rotate(180)"/><rect class="cls-10" x="540" y="310" width="10" height="10" transform="translate(1090 630) rotate(180)"/><rect class="cls-13" x="560" y="510" width="20" height="20" transform="translate(50 1090) rotate(-90)"/><rect class="cls-7" x="480" y="640" width="20" height="20" transform="translate(-160 1140) rotate(-90)"/><rect class="cls-7" x="480" y="70" width="80" height="80" transform="translate(630 -410) rotate(90)"/><g id="Artwork_7"><g class="cls-5"><rect class="cls-15" x="200" y="260" width="200" height="200"/><rect class="cls-12" x="249.5" y="398.79" width="25.13" height="22.34"/><g class="cls-17"><path class="cls-16" d="m274.77,387.51h-25.26v-89.78h50.53c28.36,0,46.06,13.41,46.06,38.84,0,18.73-10.14,31.28-27.5,36.26l30.76,48.29h-28.87l-28.53-45.89h-17.19v12.27Zm23.89-33.41c14.78,0,22.34-6.36,22.34-17.36s-7.56-17.53-22.34-17.53h-23.89v34.89h23.89Z"/><path class="cls-9" d="m274.77,389.72h-25.26v-91.99h50.53c28.36,0,46.06,13.41,46.06,38.84,0,18.73-10.14,31.28-27.5,36.26l30.76,48.29h-28.87l-28.53-45.89h-17.19v14.47Zm23.89-35.61c14.78,0,22.34-6.36,22.34-17.36s-7.56-17.53-22.34-17.53h-23.89v34.89h23.89Z"/></g></g></g><polygon class="cls-2" points="217.77 571.16 198.84 571.16 198.84 552.23 181.16 552.23 181.16 571.16 162.23 571.16 162.23 588.84 181.16 588.84 181.16 607.77 198.84 607.77 198.84 588.84 217.77 588.84 217.77 571.16"/><polygon class="cls-2" points="217.77 571.16 198.84 571.16 198.84 552.23 181.16 552.23 181.16 571.16 162.23 571.16 162.23 588.84 181.16 588.84 181.16 607.77 198.84 607.77 198.84 588.84 217.77 588.84 217.77 571.16"/><path class="cls-3" d="m517.64,449.43c1.47,15.26-9.71,28.83-24.98,30.3-15.26,1.47-28.83-9.71-30.3-24.98-1.47-15.26,9.71-28.83,24.98-30.3,15.26-1.47,28.83,9.71,30.3,24.98Z"/><polyline class="cls-4" points="480.6 444.3 489.78 454.25 503.76 435.03"/><rect class="cls-3" x="487.23" y="420.14" width="5.55" height="4.18"/><path class="cls-3" d="m96.12,93.23c-3.41.33-5.91,3.36-5.59,6.78.33,3.41,3.36,5.91,6.78,5.59,3.41-.33,5.91-3.36,5.59-6.78-.33-3.41-3.36-5.91-6.78-5.59Z"/><path class="cls-3" d="m70.47,105.66s-1.25,22.39,12.7,22.39c11.05,0,12.85-15.84,13.12-22.43"/><rect class="cls-3" x="72.94" y="71.98" width="4.42" height="3.34"/><rect class="cls-3" x="63.58" y="71.95" width="4.42" height="3.34"/><path class="cls-3" d="m63.37,73.6c-6.53.78-6.3,5.87-6.3,14.57,0,9.49,4.8,17.48,13.4,17.48s13.4-7.99,13.4-17.48c0-8.72.24-13.81-6.33-14.58"/><path class="cls-2" d="m520,82.23c-8.22,0-16.35,6.22-16.35,16.99s9.54,31.18,16.21,38.54c0,0,.05-.05.14-.14.09.09.14.14.14.14,6.68-7.36,16.21-26.81,16.21-38.54s-8.14-16.99-16.35-16.99Zm1.03,27.72c-5.92.57-11.17-3.76-11.74-9.68-.57-5.92,3.76-11.17,9.68-11.74,5.92-.57,11.17,3.76,11.74,9.68.57,5.92-3.76,11.17-9.68,11.74Z"/></svg>