<?xml version="1.0" encoding="UTF-8"?><svg id="Layer_1" xmlns="http://www.w3.org/2000/svg" xmlns:xlink="http://www.w3.org/1999/xlink" viewBox="0 0 600 720"><defs><style>.cls-1,.cls-2,.cls-3,.cls-4,.cls-5,.cls-6{fill:none;}.cls-2,.cls-3,.cls-4,.cls-5,.cls-6{stroke-width:1.5px;}.cls-2,.cls-3,.cls-6{stroke-miterlimit:10;}.cls-2,.cls-5,.cls-6{stroke:#fff;}.cls-3,.cls-4{stroke:#000;}.cls-7{clip-path:url(#clippath);}.cls-8{fill:#f3f3d1;}.cls-9{fill:#00585c;}.cls-10{fill:teal;}.cls-11{fill:#fff;}.cls-12{fill:#8bc3bf;}.cls-13{fill:#cde9e7;}.cls-14{fill:#d0e048;}.cls-15{fill:#c7dc00;}.cls-16{fill:#dee47d;}.cls-17{fill:#24575b;}.cls-18{fill:#1f4c4e;}.cls-4,.cls-5{stroke-linejoin:bevel;}.cls-19{clip-path:url(#clippath-1);}.cls-6{fill-rule:evenodd;}</style><clipPath id="clippath"><rect class="cls-1" x="200" y="260" width="200" height="200"/></clipPath><clipPath id="clippath-1"><rect class="cls-1" x="200" y="260" width="200" height="200"/></clipPath></defs><g id="Artwork_7"><g class="cls-7"><rect class="cls-17" x="200" y="260" width="200" height="200"/><rect class="cls-14" x="249.5" y="398.79" width="25.13" height="22.34"/><g class="cls-19"><path class="cls-18" d="m274.77,387.51h-25.26v-89.78h50.53c28.36,0,46.06,13.41,46.06,38.84,0,18.73-10.14,31.28-27.5,36.26l30.76,48.29h-28.87l-28.53-45.89h-17.19v12.27Zm23.89-33.41c14.78,0,22.34-6.36,22.34-17.36s-7.56-17.53-22.34-17.53h-23.89v34.89h23.89Z"/><path class="cls-11" d="m274.77,389.72h-25.26v-91.99h50.53c28.36,0,46.06,13.41,46.06,38.84,0,18.73-10.14,31.28-27.5,36.26l30.76,48.29h-28.87l-28.53-45.89h-17.19v14.47Zm23.89-35.61c14.78,0,22.34-6.36,22.34-17.36s-7.56-17.53-22.34-17.53h-23.89v34.89h23.89Z"/></g></g></g><rect class="cls-12" x="230" y="440" width="10" height="10" transform="translate(-210 680) rotate(-90)"/><rect class="cls-15" x="140" y="210" width="80" height="80" transform="translate(430 70) rotate(90)"/><rect class="cls-16" x="180" y="140" width="10" height="10" transform="translate(40 330) rotate(-90)"/><rect class="cls-16" x="180" y="160" width="10" height="10" transform="translate(20 350) rotate(-90)"/><rect class="cls-16" x="150" y="170" width="10" height="10" transform="translate(-20 330) rotate(-90)"/><rect class="cls-16" x="230" y="270" width="10" height="10" transform="translate(-40 510) rotate(-90)"/><rect class="cls-16" x="170" y="180" width="20" height="20" transform="translate(370 10) rotate(90)"/><rect class="cls-8" x="355" y="445" width="10" height="10" transform="translate(810 90) rotate(90)"/><rect class="cls-16" x="150" y="190" width="10" height="10" transform="translate(-40 350) rotate(-90)"/><rect class="cls-16" x="150" y="140" width="20" height="20" transform="translate(310 -10) rotate(90)"/><rect class="cls-8" x="280" y="240" width="10" height="10"/><rect class="cls-8" x="260" y="240" width="10" height="10"/><rect class="cls-8" x="250" y="210" width="10" height="10"/><rect class="cls-8" x="230" y="230" width="20" height="20" transform="translate(480 480) rotate(-180)"/><rect class="cls-8" x="230" y="210" width="10" height="10"/><rect class="cls-8" x="270" y="210" width="20" height="20" transform="translate(560 440) rotate(-180)"/><rect class="cls-15" x="120" y="240" width="10" height="10"/><rect class="cls-15" x="100" y="240" width="10" height="10"/><rect class="cls-15" x="90" y="210" width="10" height="10"/><rect class="cls-15" x="70" y="230" width="20" height="20" transform="translate(160 480) rotate(-180)"/><rect class="cls-15" x="70" y="210" width="10" height="10"/><rect class="cls-15" x="110" y="210" width="20" height="20" transform="translate(240 440) rotate(-180)"/><rect class="cls-13" x="210" y="420" width="10" height="10"/><rect class="cls-13" x="170" y="380" width="10" height="10" transform="translate(-210 560) rotate(-90)"/><rect class="cls-13" x="170" y="400" width="10" height="10" transform="translate(-230 580) rotate(-90)"/><rect class="cls-13" x="140" y="410" width="10" height="10" transform="translate(-270 560) rotate(-90)"/><rect class="cls-13" x="160" y="420" width="20" height="20" transform="translate(600 260) rotate(90)"/><rect class="cls-13" x="140" y="430" width="10" height="10" transform="translate(-290 580) rotate(-90)"/><rect class="cls-13" x="140" y="380" width="20" height="20" transform="translate(540 240) rotate(90)"/><rect class="cls-15" x="160" y="540" width="10" height="10" transform="translate(-380 710) rotate(-90)"/><rect class="cls-12" x="190" y="560" width="10" height="10" transform="translate(-370 760) rotate(-90)"/><rect class="cls-12" x="190" y="540" width="10" height="10" transform="translate(-350 740) rotate(-90)"/><rect class="cls-12" x="160" y="570" width="10" height="10" transform="translate(-410 740) rotate(-90)"/><rect class="cls-12" x="180" y="580" width="20" height="20" transform="translate(780 400) rotate(90)"/><rect class="cls-12" x="160" y="590" width="10" height="10" transform="translate(-430 760) rotate(-90)"/><rect class="cls-12" x="160" y="540" width="20" height="20" transform="translate(720 380) rotate(90)"/><rect class="cls-15" x="210" y="300" width="10" height="10" transform="translate(520 90) rotate(90)"/><rect class="cls-16" x="380" y="410" width="10" height="10" transform="translate(-30 800) rotate(-90)"/><rect class="cls-10" x="130" y="450" width="80" height="80" transform="translate(660 320) rotate(90)"/><rect class="cls-9" x="390" y="190" width="80" height="80" transform="translate(660 -200) rotate(90)"/><rect class="cls-10" x="320" y="200" width="10" height="10" transform="translate(650 410) rotate(-180)"/><rect class="cls-10" x="340" y="200" width="10" height="10" transform="translate(690 410) rotate(-180)"/><rect class="cls-10" x="350" y="230" width="10" height="10" transform="translate(710 470) rotate(-180)"/><rect class="cls-10" x="360" y="270" width="10" height="10" transform="translate(730 550) rotate(-180)"/><rect class="cls-10" x="360" y="200" width="20" height="20"/><rect class="cls-10" x="370" y="230" width="10" height="10" transform="translate(750 470) rotate(-180)"/><rect class="cls-10" x="320" y="220" width="20" height="20"/><rect class="cls-12" x="450" y="280" width="10" height="10" transform="translate(170 740) rotate(-90)"/><rect class="cls-12" x="450" y="300" width="10" height="10" transform="translate(150 760) rotate(-90)"/><rect class="cls-12" x="420" y="310" width="10" height="10" transform="translate(110 740) rotate(-90)"/><rect class="cls-12" x="380" y="290" width="10" height="10" transform="translate(90 680) rotate(-90)"/><rect class="cls-12" x="440" y="320" width="20" height="20" transform="translate(780 -120) rotate(90)"/><rect class="cls-12" x="420" y="330" width="10" height="10" transform="translate(90 760) rotate(-90)"/><rect class="cls-12" x="420" y="280" width="20" height="20" transform="translate(720 -140) rotate(90)"/><rect class="cls-8" x="360" y="500" width="10" height="10"/><rect class="cls-8" x="340" y="500" width="10" height="10"/><rect class="cls-8" x="330" y="470" width="10" height="10"/><rect class="cls-8" x="310" y="490" width="20" height="20" transform="translate(640 1000) rotate(-180)"/><rect class="cls-8" x="310" y="470" width="10" height="10"/><rect class="cls-8" x="350" y="470" width="20" height="20" transform="translate(720 960) rotate(-180)"/><rect class="cls-16" x="420" y="530" width="10" height="10" transform="translate(-110 960) rotate(-90)"/><rect class="cls-16" x="420" y="550" width="10" height="10" transform="translate(-130 980) rotate(-90)"/><rect class="cls-16" x="390" y="560" width="10" height="10" transform="translate(-170 960) rotate(-90)"/><rect class="cls-16" x="410" y="570" width="20" height="20" transform="translate(1000 160) rotate(90)"/><rect class="cls-16" x="390" y="580" width="10" height="10" transform="translate(-190 980) rotate(-90)"/><rect class="cls-16" x="390" y="530" width="20" height="20" transform="translate(940 140) rotate(90)"/><rect class="cls-15" x="520" y="480" width="10" height="10"/><rect class="cls-15" x="500" y="480" width="10" height="10"/><rect class="cls-15" x="490" y="450" width="10" height="10"/><rect class="cls-15" x="470" y="470" width="20" height="20" transform="translate(960 960) rotate(-180)"/><rect class="cls-15" x="470" y="450" width="10" height="10"/><rect class="cls-15" x="510" y="450" width="20" height="20" transform="translate(1040 920) rotate(-180)"/><rect class="cls-13" x="530" y="230" width="10" height="10"/><rect class="cls-13" x="510" y="230" width="10" height="10"/><rect class="cls-13" x="500" y="200" width="10" height="10"/><rect class="cls-13" x="480" y="220" width="20" height="20" transform="translate(980 460) rotate(-180)"/><rect class="cls-13" x="480" y="200" width="10" height="10"/><rect class="cls-13" x="520" y="200" width="20" height="20" transform="translate(1060 420) rotate(-180)"/><rect class="cls-15" x="140" y="210" width="80" height="80" transform="translate(430 70) rotate(90)"/><rect class="cls-8" x="130" y="140" width="10" height="10" transform="translate(280 10) rotate(90)"/><rect class="cls-16" x="380" y="430" width="80" height="80"/><polyline class="cls-5" points="163.08 500.27 176.92 500.27 176.92 495.66 158.46 491.04 149.23 495.66 149.23 509.5 176.92 514.12 200 500.27 200 495.66 176.92 500.27"/><rect class="cls-2" x="140" y="491.04" width="9.23" height="23.08"/><polygon class="cls-6" points="158.26 474.37 159.93 477.75 163.65 478.29 160.96 480.92 161.59 484.63 158.26 482.88 154.93 484.63 155.57 480.92 152.87 478.29 156.6 477.75 158.26 474.37"/><polygon class="cls-6" points="172.72 465.88 174.38 469.26 178.11 469.8 175.41 472.43 176.05 476.14 172.72 474.39 169.38 476.14 170.02 472.43 167.32 469.8 171.05 469.26 172.72 465.88"/><polygon class="cls-6" points="187.17 474.37 188.84 477.75 192.56 478.29 189.87 480.92 190.5 484.63 187.17 482.88 183.84 484.63 184.48 480.92 181.78 478.29 185.51 477.75 187.17 474.37"/><rect class="cls-2" x="400" y="208.68" width="60" height="42.63"/><line class="cls-2" x1="400" y1="213.09" x2="460" y2="213.09"/><path class="cls-11" d="m422.52,232.43h2.13v.94h-2.13v3.44h-1.11v-3.44h-6.41v-.64l6.29-9.54h1.23v9.23Zm-6.17,0h5.06v-7.82l-.53.94-4.53,6.87Z"/><path class="cls-11" d="m434.36,231.43c0,.76-.08,1.48-.25,2.16-.17.68-.43,1.27-.78,1.77-.35.5-.79.91-1.33,1.2-.54.3-1.18.44-1.92.44s-1.37-.15-1.91-.44c-.54-.3-.98-.7-1.34-1.2-.35-.51-.61-1.1-.79-1.77-.17-.68-.26-1.39-.27-2.16v-2.83c0-.76.09-1.48.26-2.16s.43-1.27.78-1.78c.35-.51.8-.91,1.33-1.21.54-.3,1.17-.44,1.91-.44s1.38.15,1.92.44c.54.3.98.7,1.33,1.21.35.51.61,1.1.78,1.78.17.68.26,1.4.26,2.16v2.83Zm-7.45.17c0,.26,0,.5.03.73l6.14-5.56c-.09-.4-.21-.77-.36-1.11-.16-.34-.36-.64-.6-.89-.25-.25-.54-.45-.87-.59-.34-.14-.73-.21-1.17-.21-.58,0-1.07.12-1.47.36-.4.24-.73.57-.98.98s-.43.89-.54,1.42c-.11.54-.17,1.1-.17,1.68v3.19Zm6.33-3.19c0-.21,0-.41-.03-.61l-6.12,5.56c.09.39.22.74.38,1.08.16.33.36.62.61.86.24.24.53.43.86.57.33.14.71.21,1.14.21.58,0,1.07-.12,1.47-.37.4-.25.73-.58.97-.99s.43-.89.54-1.42c.11-.54.17-1.1.17-1.68v-3.19Z"/><path class="cls-11" d="m442.86,232.43h2.13v.94h-2.13v3.44h-1.11v-3.44h-6.41v-.64l6.29-9.54h1.23v9.23Zm-6.17,0h5.06v-7.82l-.53.94-4.53,6.87Z"/><circle class="cls-11" cx="403.17" cy="210.85" r=".69"/><circle class="cls-11" cx="406.1" cy="210.85" r=".69"/><circle class="cls-11" cx="409.04" cy="210.85" r=".69"/><path class="cls-4" d="m183.18,246.48l-5.82,5.82-12.45-12.45c-3.68,1.45-8.04.68-11.02-2.3-2.38-2.38-3.35-5.63-2.91-8.72,2.41,2.41,6.32,2.41,8.73,0,2.4-2.41,2.41-6.31,0-8.72,3.09-.44,6.34.53,8.72,2.91,2.98,2.98,3.75,7.34,2.3,11.02l12.45,12.45Z"/><rect class="cls-4" x="190.58" y="247.52" width="8.22" height="32.59" transform="translate(-129.54 215.07) rotate(-45.02)"/><rect class="cls-4" x="158.03" y="258.09" width="12.33" height="20.56" transform="translate(237.86 -37.5) rotate(45)"/><polygon class="cls-4" points="199.08 236.39 180.27 255.2 175.82 259.65 172.92 256.74 183.18 246.48 196.17 233.49 199.08 236.39"/><polygon class="cls-4" points="207.44 227.31 203.07 236.03 199.08 236.39 196.17 233.49 196.54 229.49 205.26 225.13 207.44 227.31"/><rect class="cls-4" x="168.33" y="257.68" width="9.29" height="4.09" transform="translate(234.31 -46.24) rotate(45)"/><line class="cls-4" x1="155.47" y1="274.19" x2="167.1" y2="262.56"/><line class="cls-4" x1="158.38" y1="277.09" x2="164.19" y2="271.28"/><path class="cls-3" d="m447.5,480.98v22h-55v-22c0-6.08,4.92-11,11-11h33c6.08,0,11,4.92,11,11Z"/><line class="cls-3" x1="405.8" y1="487.7" x2="405.8" y2="502.48"/><line class="cls-3" x1="434.2" y1="502.48" x2="434.2" y2="487.7"/><path class="cls-3" d="m434.2,451.24v11.87c-1.21,2.83-3.23,5.21-5.78,6.87h-16.84c-2.51-1.63-4.51-3.98-5.73-6.75v-3.97c8.1-.03,14.73-6.28,15.34-14.23,2.81,3.78,7.31,6.23,12.39,6.23.21,0,.41,0,.62-.02Z"/><path class="cls-3" d="m437.88,448.02v21.95h-3.68v-18.74c-.2.01-.41.02-.62.02-5.08,0-9.58-2.45-12.39-6.23.03-.4.05-.81.05-1.22,0-.74-.05-1.47-.15-2.18-.23-1.63-.71-3.18-1.41-4.61h7.21c6.08,0,11,4.92,11,11Z"/><path class="cls-3" d="m434.2,451.24v18.74h-28.35v-10.72c8.1-.03,14.73-6.28,15.34-14.23,2.81,3.78,7.31,6.23,12.39,6.23.21,0,.41,0,.62-.02Z"/><path class="cls-3" d="m421.24,443.81c0,.41-.02.81-.05,1.22-.62,7.95-7.24,14.2-15.34,14.23v10.72h-3.68v-21.95c0-6.08,4.92-11,11-11h6.51c.7,1.42,1.18,2.98,1.41,4.61.1.71.15,1.44.15,2.18Z"/><path class="cls-3" d="m405.65,498.78h-13.04,13.04Z"/><path class="cls-3" d="m447.43,498.78h-13.04,13.04Z"/><polyline class="cls-4" points="409.76 469.95 409.76 474.06 419.45 483.58 429.14 474.06 429.14 469.95"/><rect class="cls-9" x="60" y="460" width="10" height="10" transform="translate(130 930) rotate(-180)"/><rect class="cls-9" x="80" y="460" width="10" height="10" transform="translate(170 930) rotate(-180)"/><rect class="cls-9" x="90" y="490" width="10" height="10" transform="translate(190 990) rotate(-180)"/><rect class="cls-9" x="100" y="460" width="20" height="20"/><rect class="cls-9" x="110" y="490" width="10" height="10" transform="translate(230 990) rotate(-180)"/><rect class="cls-9" x="60" y="480" width="20" height="20"/></svg>