<svg width="151" height="29" viewBox="0 0 151 29" fill="none" xmlns="http://www.w3.org/2000/svg">
<path d="M29.89 14.2029C29.89 14.6429 29.87 15.0829 29.89 15.5329C29.91 15.8529 29.79 16.0029 29.5 16.1129C27.74 16.7429 25.98 17.3829 24.22 18.0329C21.39 19.0729 18.55 20.1029 15.72 21.1429C15.47 21.2329 15.23 21.3329 14.97 21.3929C14.83 21.4229 14.65 21.4329 14.52 21.3929C11.83 20.3929 9.14 19.3829 6.45 18.3729C4.43 17.6129 2.41 16.8629 0.390002 16.1129C0.120002 16.0129 -0.00999834 15.8829 1.65543e-06 15.5729C0.0200017 14.6629 1.65543e-06 13.7429 1.65543e-06 12.8229C1.65543e-06 12.4129 0.0500015 12.3829 0.410002 12.5229C4.93 14.2229 9.45 15.9029 13.97 17.6229C14.5 17.8229 14.95 17.8629 15.5 17.6529C19.2 16.2729 22.92 14.9229 26.64 13.5629C27.58 13.2229 28.52 12.8729 29.46 12.5329C29.85 12.3929 29.89 12.4229 29.89 12.8329C29.89 13.2929 29.89 13.7629 29.89 14.2229V14.2029Z" fill="white"/>
<path d="M34.13 19.0425C34.13 19.4925 34.13 19.8825 34.13 20.2725C34.13 20.9225 34.12 21.5725 34.13 22.2325C34.13 22.5125 34.02 22.6125 33.78 22.7025C30.73 23.8425 27.67 24.9925 24.62 26.1425C22.95 26.7725 21.28 27.4125 19.6 28.0225C19.43 28.0825 19.2 28.0825 19.03 28.0225C14.49 26.3625 9.94 24.6925 5.4 23.0225C5.07 22.9025 4.74 22.7925 4.43 22.6525C4.33 22.6125 4.21 22.4625 4.21 22.3625C4.19 21.3025 4.21 20.2425 4.21 19.1725C4.21 19.1425 4.23 19.1125 4.25 19.0525C4.39 19.0925 4.53 19.1325 4.66 19.1825C9.45 20.9325 14.24 22.6825 19.04 24.4225C19.22 24.4825 19.46 24.4825 19.63 24.4225C24.33 22.6725 29.03 20.9225 33.73 19.1625C33.84 19.1225 33.95 19.0925 34.12 19.0425H34.13Z" fill="white"/>
<path d="M34.09 5.80273C34.1 5.93273 34.12 6.02274 34.12 6.11274C34.12 7.07274 34.12 8.03273 34.12 8.98273C34.12 9.22273 34.03 9.33273 33.81 9.41273C29.26 11.0627 24.71 12.7327 20.17 14.3927C20.09 14.4227 20 14.4327 19.93 14.4727C19.28 14.8327 18.67 14.7427 17.99 14.4727C13.53 12.7627 9.05 11.1027 4.57 9.43274C4.3 9.33274 4.2 9.19274 4.21 8.90274C4.23 8.00274 4.21 7.09274 4.21 6.19274C4.21 6.08274 4.21 5.96273 4.21 5.80273C4.36 5.84273 4.47 5.86274 4.58 5.90274C7.95 7.15274 11.33 8.41273 14.7 9.66273C15.98 10.1427 17.27 10.6127 18.54 11.0927C18.82 11.2027 19.08 11.1927 19.36 11.0927C24.13 9.36274 28.9 7.64274 33.67 5.92274C33.8 5.87274 33.93 5.85273 34.09 5.80273Z" fill="white"/>
<path d="M5.31 5.0325C6.09 4.7425 6.79 4.4725 7.5 4.2025C11.21 2.8125 14.93 1.4225 18.65 0.0525C18.83 -0.0175 19.07 -0.0175 19.25 0.0525C23.74 1.6725 28.23 3.3025 32.72 4.9325C32.79 4.9525 32.85 4.9925 32.99 5.0525C32.84 5.1225 32.74 5.1625 32.64 5.2025C31.27 5.7025 29.89 6.20251 28.51 6.69251C28.35 6.75251 28.13 6.75251 27.97 6.69251C25.07 5.66251 22.17 4.6225 19.26 3.5925C19.08 3.5325 18.84 3.5225 18.67 3.5925C15.88 4.6225 13.09 5.6625 10.3 6.7025C10.17 6.7525 10 6.7825 9.88 6.7425C8.42 6.2125 6.96 5.6725 5.5 5.1325C5.46 5.1225 5.43 5.0925 5.33 5.0325H5.31Z" fill="white"/>
<path d="M49.53 8.48261C46.75 6.28261 43.52 6.84262 42 8.69262C40.35 10.7026 40.47 13.9426 42.26 15.8226C43.98 17.6326 47.2 17.9326 49.79 15.5726C49.85 15.6226 49.91 15.6726 49.96 15.7326C50.11 15.9326 50.26 16.1326 50.41 16.3426C50.71 16.7493 50.6633 17.1126 50.27 17.4326C47.79 19.4926 43.93 19.5926 41.42 17.6226C39.82 16.3626 39.01 14.6626 38.87 12.6626C38.73 10.7026 39.25 8.93261 40.59 7.45261C41.7 6.22261 43.11 5.53261 44.75 5.35261C46.47 5.16261 48.11 5.46262 49.6 6.39262C49.85 6.54262 50.08 6.73261 50.3 6.92261C50.36 6.97261 50.41 7.14261 50.37 7.20261C50.11 7.63261 49.82 8.04261 49.53 8.48261Z" fill="white"/>
<path d="M94.76 9.0625C97.21 9.0625 99.23 10.6125 99.75 12.8625C100.53 16.2825 97.78 19.3725 94.27 19.0225C91.89 18.7825 90.11 17.2425 89.68 15.0425C89.08 11.9825 91.21 9.2425 94.32 9.0625C94.47 9.0625 94.61 9.0625 94.76 9.0625ZM97.96 14.0325C97.96 12.1325 96.54 10.6625 94.72 10.6725C92.92 10.6825 91.51 12.1425 91.49 14.0225C91.47 15.8725 92.91 17.3825 94.7 17.3925C96.55 17.3925 97.96 15.9525 97.96 14.0325Z" fill="white"/>
<path d="M77.14 16.3025C77.38 16.7325 77.62 17.1425 77.83 17.5625C77.86 17.6225 77.77 17.7925 77.69 17.8525C76.5 18.7625 75.15 19.1625 73.66 19.0225C71.76 18.8325 70.3 17.9325 69.57 16.1425C68.79 14.2425 68.96 12.3725 70.25 10.7125C71.67 8.87248 74.69 8.48248 76.48 9.87248C77.44 10.6125 77.88 11.6425 78.01 12.8125C78.05 13.1825 78.01 13.5725 78.03 13.9425C78.04 14.2425 77.92 14.3425 77.62 14.3325C75.95 14.3225 74.27 14.3325 72.6 14.3325C72.2 14.3325 71.8 14.3325 71.4 14.3325C71.15 14.3325 71.07 14.3925 71.11 14.6625C71.43 17.0125 73.55 17.7525 75.24 17.2725C75.81 17.1125 76.34 16.7625 76.88 16.4925C76.96 16.4525 77.03 16.3925 77.15 16.3125L77.14 16.3025ZM71.2 12.8525C71.2 12.8525 71.24 12.8825 71.25 12.8825C72.81 12.8825 74.36 12.9025 75.92 12.8825C75.98 12.8825 76.12 12.7025 76.1 12.6425C76 12.2725 75.93 11.8725 75.74 11.5425C75.23 10.6525 74.16 10.3325 73.02 10.6725C72.03 10.9625 71.23 11.9225 71.21 12.8425L71.2 12.8525Z" fill="white"/>
<path d="M138.87 16.3129C139.11 16.7429 139.35 17.1429 139.55 17.5629C139.58 17.6229 139.47 17.8029 139.38 17.8729C138.29 18.7029 137.06 19.0729 135.7 19.0429C133.37 18.9829 131.49 17.4929 131 15.2329C130.64 13.5529 130.92 11.9629 132.05 10.6029C133.39 8.98294 136.12 8.53294 137.89 9.64294C138.85 10.2429 139.42 11.1429 139.63 12.2429C139.74 12.7829 139.73 13.3429 139.76 13.9029C139.78 14.2029 139.64 14.3329 139.31 14.3329C137.3 14.3129 135.29 14.3329 133.28 14.3329C132.81 14.3329 132.77 14.3729 132.86 14.8429C133.22 16.8329 134.93 17.5729 136.49 17.3729C137.27 17.2729 137.96 16.9529 138.59 16.4929C138.66 16.4429 138.74 16.3929 138.87 16.3129ZM135.34 12.9129C136.06 12.9129 136.79 12.9129 137.51 12.9129C137.7 12.9129 137.83 12.8829 137.82 12.6429C137.8 11.7729 137.15 10.9029 136.31 10.6729C134.82 10.2529 133.36 11.0929 132.94 12.5829C132.87 12.8329 132.92 12.9329 133.19 12.9229C133.9 12.9229 134.62 12.9229 135.33 12.9229L135.34 12.9129Z" fill="white"/>
<path d="M58.42 17.3328C58.22 17.5828 58.07 17.7928 57.9 17.9828C56.58 19.4228 54.06 19.3828 52.77 17.9128C51.88 16.9028 51.78 14.6728 53.54 13.6828C54.55 13.1128 55.65 12.9228 56.78 12.8528C57.18 12.8328 57.58 12.8228 57.98 12.8328C58.24 12.8328 58.3 12.7328 58.29 12.4928C58.22 11.3128 57.55 10.6728 56.37 10.6428C55.47 10.6228 54.65 10.8928 53.9 11.3728C53.63 11.5428 53.51 11.5028 53.38 11.2328C53.26 10.9728 53.12 10.7228 52.96 10.4928C52.81 10.2728 52.83 10.1428 53.07 9.99283C54.33 9.21283 55.69 8.92283 57.15 9.09283C57.73 9.16283 58.28 9.33283 58.77 9.67283C59.72 10.3328 60.13 11.3028 60.14 12.4128C60.18 14.4428 60.14 16.4728 60.16 18.5028C60.16 18.7328 60.09 18.8228 59.85 18.8228C59.46 18.8228 59.07 18.8228 58.68 18.8328C58.49 18.8328 58.41 18.7728 58.42 18.5828C58.42 18.1928 58.42 17.7928 58.42 17.3428V17.3328ZM57.51 14.2628C57.28 14.2728 56.89 14.2828 56.5 14.3228C55.83 14.4028 55.16 14.5128 54.6 14.9328C53.9 15.4428 53.86 16.4728 54.5 17.0528C55.16 17.6428 56.26 17.6728 57.05 17.1028C57.76 16.5828 58.12 15.8528 58.27 15.0028C58.39 14.2928 58.37 14.2628 57.52 14.2628H57.51Z" fill="white"/>
<path d="M140.54 9.26289C140.84 9.26289 141.09 9.26289 141.34 9.26289C141.68 9.26289 142.01 9.26289 142.35 9.26289C142.56 9.26289 142.67 9.33288 142.75 9.53288C143.6 11.8129 144.46 14.0829 145.31 16.3529C145.32 16.3929 145.34 16.4229 145.35 16.4529C145.76 15.3229 146.17 14.1929 146.59 13.0629C147.02 11.9029 147.45 10.7329 147.88 9.57289C147.96 9.35289 148.07 9.25289 148.32 9.26289C148.86 9.27289 149.41 9.26289 150.01 9.26289C149.96 9.43289 149.93 9.55288 149.88 9.66288C148.44 13.2829 147.01 16.8929 145.57 20.5129C145.04 21.8429 144.09 22.6629 142.6 22.7429C141.94 22.7829 141.33 22.6129 140.77 22.2529C140.7 22.2129 140.65 22.0329 140.68 21.9529C140.8 21.6329 140.97 21.3229 141.1 21.0029C141.19 20.7729 141.3 20.7429 141.52 20.8629C142.24 21.2429 142.85 21.2029 143.36 20.7229C143.58 20.5129 143.77 20.2629 143.91 20.0029C144.11 19.6329 144.27 19.2429 144.41 18.8529C144.46 18.7229 144.43 18.5429 144.37 18.4129C143.33 15.9529 142.29 13.4929 141.24 11.0329C141.05 10.5829 140.85 10.1229 140.66 9.66288C140.62 9.56288 140.58 9.45288 140.52 9.27288L140.54 9.26289Z" fill="white"/>
<path d="M108.57 17.0529C108.13 17.7229 107.65 18.2229 107.01 18.5629C105.88 19.1629 104.71 19.2329 103.53 18.7629C102.4 18.3129 101.98 17.3229 101.88 16.1929C101.81 15.4329 101.83 14.6629 101.82 13.8929C101.82 12.4829 101.82 11.0729 101.82 9.66286C101.82 9.36286 101.91 9.24287 102.22 9.26287C102.59 9.28287 102.96 9.28287 103.32 9.26287C103.62 9.25287 103.72 9.35286 103.72 9.66286C103.71 11.4329 103.71 13.2029 103.72 14.9629C103.72 15.3729 103.77 15.7829 103.86 16.1829C104.02 16.8629 104.5 17.2229 105.2 17.2729C106.87 17.3929 108.24 16.2229 108.43 14.4529C108.52 13.6529 108.49 12.8329 108.5 12.0229C108.51 11.2129 108.5 10.4029 108.5 9.59286C108.5 9.34286 108.58 9.25287 108.83 9.26287C109.24 9.27287 109.65 9.27287 110.06 9.26287C110.32 9.26287 110.41 9.36287 110.41 9.61287C110.41 10.4629 110.41 11.3129 110.41 12.1729C110.41 14.2529 110.41 16.3429 110.41 18.4229C110.41 18.8229 110.41 18.8229 110.01 18.8229C109.63 18.8229 109.25 18.8229 108.87 18.8229C108.65 18.8329 108.56 18.7629 108.57 18.5429C108.57 18.0729 108.57 17.6029 108.57 17.0529Z" fill="white"/>
<path d="M122.04 10.9527C122.4 10.5827 122.71 10.1727 123.11 9.86272C124.32 8.94272 125.69 8.81272 127.09 9.31272C128.19 9.70272 128.63 10.6227 128.79 11.7027C128.85 12.0827 128.86 12.4827 128.86 12.8627C128.86 14.7227 128.86 16.5827 128.86 18.4527C128.86 18.7427 128.79 18.8427 128.49 18.8227C128.13 18.7927 127.77 18.8227 127.42 18.8227C127 18.8227 127 18.8227 127 18.4027C127 16.8127 127 15.2227 127 13.6327C127 13.2527 126.98 12.8727 126.95 12.5027C126.86 11.2127 126.08 10.6027 124.79 10.8127C123.24 11.0627 122.13 12.3327 122.11 13.9327C122.09 15.4027 122.1 16.8827 122.1 18.3527C122.1 18.6594 121.94 18.8161 121.62 18.8227C121.25 18.8227 120.88 18.8227 120.52 18.8227C120.29 18.8227 120.2 18.7427 120.2 18.5127C120.2 18.0527 120.2 17.5827 120.2 17.1227C120.2 14.6527 120.2 12.1827 120.2 9.70272C120.2 9.28272 120.21 9.27272 120.62 9.27272C120.97 9.27272 121.32 9.28272 121.66 9.27272C121.94 9.26272 122.06 9.34272 122.04 9.64272C122.02 10.0927 122.04 10.5327 122.04 10.9627V10.9527Z" fill="white"/>
<path d="M87.24 10.6427C87.24 12.1927 87.25 13.7327 87.24 15.2827C87.22 16.9227 86.33 18.2527 84.84 18.7727C83.32 19.3027 81.86 19.1527 80.59 18.1027C79.74 17.4027 79.42 16.4327 79.34 15.3727C79.32 15.1127 79.34 14.8427 79.34 14.5827C79.34 14.4027 79.41 14.3127 79.6 14.3127C80.06 14.3127 80.53 14.3127 80.99 14.3127C81.2 14.3127 81.26 14.4227 81.26 14.6127C81.26 14.9027 81.26 15.2027 81.3 15.4927C81.48 16.6827 82.3 17.3627 83.46 17.2827C84.57 17.2127 85.31 16.4327 85.33 15.2527C85.36 13.7027 85.34 12.1627 85.34 10.6127C85.34 9.60272 85.33 8.59272 85.34 7.58272C85.34 7.27272 85.24 7.19272 84.94 7.19272C84.08 7.21272 83.21 7.19271 82.35 7.20271C82.08 7.20271 81.97 7.12271 81.98 6.84271C82 6.50271 81.99 6.17272 81.98 5.83272C81.98 5.62272 82.05 5.53271 82.27 5.53271C83.83 5.53271 85.38 5.53271 86.94 5.53271C87.21 5.53271 87.24 5.66271 87.24 5.88271C87.24 7.47271 87.24 9.06272 87.24 10.6427Z" fill="white"/>
<path d="M115.02 11.2728C115.28 10.8928 115.5 10.5028 115.78 10.1728C116.39 9.46278 117.18 9.12278 118.13 9.17278C118.38 9.18278 118.49 9.27278 118.48 9.53278C118.47 9.94278 118.48 10.3528 118.48 10.7628C118.48 10.9528 118.43 11.0728 118.21 11.0428C116.77 10.8228 115.43 12.0128 115.17 13.7128C115.07 14.3928 115.06 15.0928 115.05 15.7828C115.03 16.6828 115.04 17.5928 115.05 18.4928C115.05 18.7628 114.97 18.8428 114.71 18.8228C114.3 18.8028 113.89 18.8128 113.48 18.8228C113.27 18.8228 113.18 18.7728 113.18 18.5428C113.18 15.5428 113.18 12.5528 113.18 9.55278C113.18 9.35278 113.26 9.26278 113.46 9.27278C113.87 9.27278 114.28 9.27278 114.69 9.27278C114.93 9.27278 115.03 9.35278 115.03 9.60278C115.02 10.1528 115.03 10.7128 115.03 11.2728H115.02Z" fill="white"/>
<path d="M64.63 11.3425C65.04 10.5125 65.55 9.7825 66.42 9.4425C66.85 9.2725 67.33 9.2425 67.8 9.1725C68.01 9.1425 68.12 9.2625 68.11 9.5025C68.1 9.9225 68.11 10.3425 68.11 10.7625C68.11 10.9625 68.05 11.0725 67.84 11.0425C66.31 10.8125 64.91 12.1725 64.78 14.0125C64.68 15.4525 64.72 16.9125 64.7 18.3625C64.7 18.8225 64.7 18.8225 64.23 18.8325C63.87 18.8325 63.52 18.8325 63.16 18.8425C62.89 18.8425 62.83 18.7225 62.83 18.4825C62.84 17.6225 62.83 16.7525 62.83 15.8925C62.83 13.8225 62.83 11.7525 62.83 9.6725C62.83 9.3725 62.91 9.2525 63.22 9.2725C63.58 9.2925 63.94 9.2825 64.29 9.2725C64.54 9.2725 64.65 9.3525 64.64 9.6125C64.62 10.1925 64.64 10.7625 64.64 11.3425H64.63Z" fill="white"/>
<path d="M25.23 18.9627C25.56 18.8327 25.83 18.7127 26.09 18.6127C27.28 18.1527 28.46 17.6927 29.65 17.2427C29.78 17.1927 29.95 17.1627 30.07 17.2127C30.99 17.5427 31.9 17.8827 32.82 18.2327C32.86 18.2427 32.88 18.2727 32.95 18.3227C32.85 18.3727 32.79 18.4227 32.72 18.4527C31.33 18.9727 29.95 19.5027 28.56 20.0127C28.41 20.0727 28.21 20.0727 28.05 20.0127C27.19 19.7227 26.34 19.4127 25.49 19.1127C25.42 19.0827 25.35 19.0427 25.22 18.9627H25.23Z" fill="white"/>
<path d="M8.86001 12.343C8.38001 12.523 7.97001 12.673 7.56001 12.823C7.10001 12.993 6.64001 13.173 6.17001 13.323C5.99001 13.383 5.76001 13.413 5.60001 13.353C4.21001 12.853 2.82001 12.323 1.44001 11.803C1.36001 11.773 1.29 11.733 1.13 11.653C1.51 11.513 1.81001 11.393 2.11001 11.283C2.70001 11.063 3.29001 10.843 3.89001 10.653C4.06001 10.603 4.28001 10.583 4.44001 10.643C5.81001 11.143 7.18001 11.663 8.54001 12.183C8.63001 12.213 8.70001 12.263 8.87001 12.353L8.86001 12.343Z" fill="white"/>
</svg>
