<svg width="150" height="21" viewBox="0 0 150 21" fill="none" xmlns="http://www.w3.org/2000/svg">
<path d="M16.68 16.3403C17.9447 16.3403 18.97 15.315 18.97 14.0503C18.97 12.7855 17.9447 11.7603 16.68 11.7603C15.4153 11.7603 14.39 12.7855 14.39 14.0503C14.39 15.315 15.4153 16.3403 16.68 16.3403Z" fill="white"/>
<path d="M2.29 8.82024C3.55473 8.82024 4.58 7.79497 4.58 6.53024C4.58 5.2655 3.55473 4.24023 2.29 4.24023C1.02527 4.24023 0 5.2655 0 6.53024C0 7.79497 1.02527 8.82024 2.29 8.82024Z" fill="white"/>
<path d="M16.68 8.17014C17.5857 8.17014 18.32 7.43588 18.32 6.53014C18.32 5.62439 17.5857 4.89014 16.68 4.89014C15.7743 4.89014 15.04 5.62439 15.04 6.53014C15.04 7.43588 15.7743 8.17014 16.68 8.17014Z" fill="white"/>
<path d="M2.29 15.6902C3.19575 15.6902 3.93 14.9559 3.93 14.0502C3.93 13.1444 3.19575 12.4102 2.29 12.4102C1.38426 12.4102 0.650002 13.1444 0.650002 14.0502C0.650002 14.9559 1.38426 15.6902 2.29 15.6902Z" fill="white"/>
<path d="M9.49 4.58C10.7547 4.58 11.78 3.55473 11.78 2.29C11.78 1.02527 10.7547 0 9.49 0C8.22527 0 7.2 1.02527 7.2 2.29C7.2 3.55473 8.22527 4.58 9.49 4.58Z" fill="white"/>
<path d="M9.49 20.58C10.7547 20.58 11.78 19.5547 11.78 18.29C11.78 17.0253 10.7547 16 9.49 16C8.22527 16 7.2 17.0253 7.2 18.29C7.2 19.5547 8.22527 20.58 9.49 20.58Z" fill="white"/>
<path fill-rule="evenodd" clip-rule="evenodd" d="M37.12 5.41004L35.5 7.03004C34.64 6.12004 33.42 5.56004 32.06 5.56004C29.44 5.56004 27.32 7.68004 27.32 10.3C27.32 12.92 29.44 15.04 32.06 15.04C33.41 15.04 34.63 14.48 35.5 13.57L37.12 15.19C35.84 16.51 34.05 17.33 32.07 17.33C28.19 17.33 25.04 14.19 25.04 10.31C25.04 6.43004 28.19 3.29004 32.07 3.29004C34.05 3.29004 35.85 4.11004 37.12 5.43004V5.41004ZM81.79 11.76V16.99H79.66V7.84004H81.54L81.78 8.82004C82.25 8.21004 83.51 7.68004 84.32 7.68004C86.85 7.68004 88.12 9.57004 88.16 11.93V16.99H86.03V11.93C86.03 10.71 85.37 9.73004 83.99 9.73004C82.77 9.73004 81.78 10.39 81.78 11.77L81.79 11.76ZM73.2 7.68004C76.02 7.68004 78.03 9.69004 78.03 12.5C78.03 15.31 76.02 17.32 73.2 17.32C70.38 17.32 68.37 15.31 68.37 12.5C68.37 9.69004 70.38 7.68004 73.2 7.68004ZM73.2 9.57004C71.49 9.57004 70.27 10.79 70.27 12.5C70.27 14.21 71.49 15.43 73.2 15.43C74.91 15.43 76.13 14.21 76.13 12.5C76.13 10.79 74.91 9.57004 73.2 9.57004ZM55.62 9.88004C54.08 9.57004 52.22 10.56 52.22 11.55V17.14H50.22V8.02004H51.98L52.22 9.00004C52.69 8.39004 53.92 7.70004 55.78 7.86004L55.62 9.88004ZM45.94 7.91004H47.93V17.08H45.94V16.36C45.17 16.96 44.19 17.32 43.03 17.32C40.48 17.32 38.44 15.17 38.44 12.5C38.44 9.83004 40.48 7.68004 43.03 7.68004C44.19 7.68004 45.17 8.03004 45.94 8.64004V7.92004V7.91004ZM43.24 15.42C44.84 15.42 45.97 14.11 45.97 12.49C45.97 10.87 44.84 9.56004 43.24 9.56004C41.64 9.56004 40.35 10.87 40.35 12.49C40.35 14.11 41.65 15.42 43.24 15.42ZM59.56 3.43004V8.73004C60.33 8.13004 61.31 7.78004 62.47 7.78004C65.02 7.78004 67.06 9.90004 67.06 12.55C67.06 15.2 65.02 17.32 62.47 17.32C61.31 17.32 60.33 16.97 59.56 16.37L59.32 17.08H57.57V3.43004H59.56ZM62.26 15.44C63.86 15.44 65.15 14.14 65.15 12.55C65.15 10.96 63.85 9.66004 62.26 9.66004C60.83 9.66004 59.53 10.79 59.53 12.55C59.53 14.31 60.83 15.44 62.26 15.44Z" fill="white"/>
<path fill-rule="evenodd" clip-rule="evenodd" d="M102.77 3.92025H104.85V16.9902H102.77V11.5303H96.32V16.9902H94.22V3.92025H96.32V9.61025H102.77V3.92025ZM143.62 11.8603V17.1503H141.49V3.27026H143.62V8.89025C144.09 8.27025 145.35 7.73026 146.16 7.73026C148.69 7.73026 149.96 9.65025 150 12.0303V17.1503H147.87V12.0303C147.87 10.8003 147.21 9.80025 145.83 9.80025C144.61 9.80025 143.62 10.4703 143.62 11.8703V11.8603ZM131.05 17.1503H129.06V3.26025H131.05V17.1503ZM111.21 7.67025C114.26 7.67025 116.15 9.99026 115.76 13.0903H108.6C108.73 14.5103 109.52 15.5303 111.33 15.5303C112.42 15.5303 113.16 15.3303 113.91 14.4503L115.23 15.4902C114.55 16.5502 113.09 17.3003 111.33 17.3003C108.44 17.3003 106.49 15.2103 106.49 12.4803C106.49 9.75026 108.42 7.66026 111.21 7.66026V7.67025ZM111.23 9.40025C109.71 9.40025 108.79 10.4503 108.65 11.6903H113.75C113.63 10.1903 112.66 9.40025 111.23 9.40025ZM124.75 7.91026H126.74V17.0803H124.75V16.3603C123.98 16.9603 123 17.3203 121.84 17.3203C119.29 17.3203 117.25 15.1703 117.25 12.5003C117.25 9.83025 119.29 7.68025 121.84 7.68025C123 7.68025 123.98 8.03025 124.75 8.64025V7.92025V7.91026ZM122.05 15.4202C123.65 15.4202 124.78 14.1102 124.78 12.4902C124.78 10.8702 123.65 9.56025 122.05 9.56025C120.45 9.56025 119.16 10.8702 119.16 12.4902C119.16 14.1102 120.46 15.4202 122.05 15.4202ZM139.56 15.0903L139.85 16.9403C139.06 17.2303 138.4 17.3102 137.78 17.3102C135.46 17.3102 134.23 15.9102 134.23 13.5602V9.79025H132.33V8.10025H134.23V5.06025H136.24V8.10025H138.88V9.79025H136.24V13.5602C136.24 14.8802 136.9 15.4503 138.02 15.4503C138.56 15.4503 139.1 15.2903 139.57 15.1003L139.56 15.0903Z" fill="white"/>
</svg>
