<?xml version="1.0" encoding="UTF-8"?><svg id="Layer_1" xmlns="http://www.w3.org/2000/svg" viewBox="0 0 480 420"><defs><style>.cls-1{fill:#f3f3d1;}.cls-2{fill:#00585c;}.cls-3{fill:teal;}.cls-4{fill:#8bc3bf;}.cls-5{fill:#cde9e7;}.cls-6{fill:#c7dc00;}.cls-7,.cls-8{fill:#dee47d;}.cls-9{fill-rule:evenodd;}.cls-9,.cls-8,.cls-10,.cls-11{stroke-miterlimit:10;}.cls-9,.cls-10,.cls-12,.cls-13,.cls-11{fill:none;}.cls-9,.cls-10,.cls-13,.cls-11{stroke:#000;}.cls-9,.cls-12,.cls-13,.cls-11{stroke-width:.5px;}.cls-8{stroke:#f4f4d2;}.cls-10{stroke-width:2px;}.cls-12{stroke:#fff;}.cls-12,.cls-13{stroke-linejoin:bevel;}</style></defs><rect class="cls-7" x="160" y="30" width="20" height="20" transform="translate(210 -130) rotate(90)"/><rect class="cls-4" x="130" y="70" width="10" height="10" transform="translate(210 -60) rotate(90)"/><rect class="cls-2" x="230" y="20" width="10" height="10" transform="translate(260 -210) rotate(90)"/><rect class="cls-3" x="160" y="10" width="10" height="10" transform="translate(180 -150) rotate(90)"/><rect class="cls-3" x="90" y="110" width="10" height="10" transform="translate(210 20) rotate(90)"/><rect class="cls-3" x="10" y="150" width="10" height="10" transform="translate(170 140) rotate(90)"/><rect class="cls-3" x="50" y="180" width="10" height="10" transform="translate(240 130) rotate(90)"/><rect class="cls-8" x="100" y="40" width="10" height="10" transform="translate(60 150) rotate(-90)"/><rect class="cls-2" x="60" y="20" width="10" height="10" transform="translate(40 90) rotate(-90)"/><rect class="cls-7" x="20" y="80" width="10" height="10" transform="translate(-60 110) rotate(-90)"/><rect class="cls-6" x="50" y="120" width="20" height="20" transform="translate(190 70) rotate(90)"/><rect class="cls-4" x="20" y="20" width="20" height="20" transform="translate(60 0) rotate(90)"/><rect class="cls-2" x="40.2" y="60" width="39.8" height="39.8" transform="translate(140 19.8) rotate(90)"/><rect class="cls-3" x="450" y="390" width="20" height="20" transform="translate(860 -60) rotate(90)"/><rect class="cls-4" x="260" y="400" width="10" height="10" transform="translate(670 140) rotate(90)"/><rect class="cls-8" x="420" y="320" width="10" height="10" transform="translate(750 -100) rotate(90)"/><rect class="cls-1" x="430" y="370" width="10" height="10" transform="translate(810 -60) rotate(90)"/><rect class="cls-4" x="10" y="300" width="10" height="10" transform="translate(320 290) rotate(90)"/><rect class="cls-8" x="10" y="250" width="10" height="10" transform="translate(270 240) rotate(90)"/><rect class="cls-8" x="150" y="390" width="10" height="10" transform="translate(550 240) rotate(90)"/><rect class="cls-2" x="60" y="400" width="10" height="10" transform="translate(-340 470) rotate(-90)"/><rect class="cls-7" x="40" y="320" width="10" height="10" transform="translate(-280 370) rotate(-90)"/><rect class="cls-3" x="10" y="350" width="10" height="10" transform="translate(-340 370) rotate(-90)"/><rect class="cls-6" x="20" y="390" width="20" height="20" transform="translate(430 370) rotate(90)"/><rect class="cls-6" x="350.2" y="320.2" width="39.8" height="39.8" transform="translate(710.2 -30) rotate(90)"/><rect class="cls-2" x="30" y="220" width="20" height="20" transform="translate(270 190) rotate(90)"/><rect class="cls-6" x="310" y="30" width="10" height="10" transform="translate(350 -280) rotate(90)"/><rect class="cls-8" x="410" y="10" width="10" height="10" transform="translate(430 -400) rotate(90)"/><rect class="cls-4" x="410" y="240" width="10" height="10" transform="translate(660 -170) rotate(90)"/><rect class="cls-4" x="460" y="340" width="10" height="10" transform="translate(810 -120) rotate(90)"/><rect class="cls-7" x="300" y="400" width="10" height="10" transform="translate(710 100) rotate(90)"/><rect x="400" y="270" width="10" height="10" transform="translate(680 -130) rotate(90)"/><rect class="cls-3" x="420" y="110" width="10" height="10" transform="translate(310 540) rotate(-90)"/><rect class="cls-6" x="450" y="20" width="10" height="10" transform="translate(430 480) rotate(-90)"/><rect class="cls-6" x="450" y="220" width="10" height="10" transform="translate(230 680) rotate(-90)"/><rect class="cls-2" x="420" y="40" width="20" height="20" transform="translate(480 -380) rotate(90)"/><rect class="cls-3" x="440" y="270" width="20" height="20" transform="translate(730 -170) rotate(90)"/><rect class="cls-7" x="360" y="50.2" width="39.8" height="39.8" transform="translate(450 -309.8) rotate(90)"/><rect class="cls-5" x="370" y="30" width="10" height="10" transform="translate(340 410) rotate(-90)"/><rect class="cls-4" x="430" y="80" width="10" height="10" transform="translate(350 520) rotate(-90)"/><rect class="cls-4" x="400" y="150" width="20" height="20" transform="translate(250 570) rotate(-90)"/><rect class="cls-5" x="60" y="360" width="10" height="10" transform="translate(-300 430) rotate(-90)"/><rect class="cls-4" x="90" y="270" width="10" height="10" transform="translate(-180 370) rotate(-90)"/><rect class="cls-4" x="240" y="70" width="10" height="10" transform="translate(170 320) rotate(-90)"/><rect class="cls-5" x="280" y="60" width="10" height="10" transform="translate(220 350) rotate(-90)"/><rect class="cls-5" x="120" y="290" width="10" height="10" transform="translate(-170 420) rotate(-90)"/><rect class="cls-2" x="430" y="190" width="10" height="10" transform="translate(240 630) rotate(-90)"/><rect class="cls-3" x="382.1" y="0" width="10" height="10" transform="translate(392.1 -382.1) rotate(90)"/><rect class="cls-3" x="180" y="370" width="10" height="10" transform="translate(560 190) rotate(90)"/><rect class="cls-3" x="60" y="280" width="20" height="20" transform="translate(-220 360) rotate(-90)"/><rect class="cls-2" x="230" y="370" width="20" height="20" transform="translate(-140 620) rotate(-90)"/><rect class="cls-7" x="80" y="380" width="10" height="10" transform="translate(470 300) rotate(90)"/><rect class="cls-1" x="360" y="260" width="10" height="10" transform="translate(100 630) rotate(-90)"/><rect class="cls-1" x="160" y="320" width="20" height="20" transform="translate(-160 500) rotate(-90)"/><rect class="cls-1" x="120" y="10" width="10" height="10" transform="translate(110 140) rotate(-90)"/><rect class="cls-6" x="200" y="60" width="10" height="10" transform="translate(140 270) rotate(-90)"/><rect class="cls-6" x="340" y="10" width="10" height="10" transform="translate(330 360) rotate(-90)"/><rect class="cls-6" x="20" y="190" width="10" height="10" transform="translate(-170 220) rotate(-90)"/><rect class="cls-7" x="30" y="280" width="10" height="10" transform="translate(320 250) rotate(90)"/><rect class="cls-7" x="450" y="100" width="10" height="10" transform="translate(560 -350) rotate(90)"/><rect class="cls-7" x="370" y="120" width="10" height="10" transform="translate(500 -250) rotate(90)"/><rect class="cls-7" x="250" y="100" width="20" height="20" transform="translate(150 370) rotate(-90)"/><rect class="cls-1" x="450" y="150" width="20" height="20" transform="translate(300 620) rotate(-90)"/><rect class="cls-1" x="10" y="120" width="10" height="10" transform="translate(-110 140) rotate(-90)"/><rect class="cls-1" x="80" y="150" width="10" height="10" transform="translate(-70 240) rotate(-90)"/><rect class="cls-1" x="370" y="370" width="10" height="10" transform="translate(0 750) rotate(-90)"/><rect class="cls-1" x="165" y="65" width="10" height="10" transform="translate(100 240) rotate(-90)"/><rect class="cls-6" x="90" y="330" width="10" height="10" transform="translate(-240 430) rotate(-90)"/><rect class="cls-7" x="290" y="100" width="10" height="10" transform="translate(400 -190) rotate(90)"/><rect class="cls-7" x="197.68" y="400" width="10" height="10" transform="translate(607.68 202.32) rotate(90)"/><rect class="cls-7" x="260" y="320" width="20" height="20" transform="translate(-60 600) rotate(-90)"/><rect class="cls-4" x="270" y="20" width="20" height="20" transform="translate(250 310) rotate(-90)"/><rect class="cls-4" x="120" y="350" width="20" height="20" transform="translate(-230 490) rotate(-90)"/><rect class="cls-5" x="310" y="340" width="10" height="10" transform="translate(-30 660) rotate(-90)"/><rect class="cls-4" x="370" y="300" width="10" height="10" transform="translate(70 680) rotate(-90)"/><rect class="cls-5" x="110" y="400" width="10" height="10" transform="translate(-290 520) rotate(-90)"/><rect class="cls-2" x="400" y="390" width="10" height="10" transform="translate(10 800) rotate(-90)"/><rect class="cls-5" x="280" y="370" width="10" height="10" transform="translate(660 90) rotate(90)"/><rect class="cls-3" x="310" y="80" width="10" height="10" transform="translate(400 -230) rotate(90)"/><rect class="cls-3" x="210" y="340" width="10" height="10" transform="translate(560 130) rotate(90)"/><rect class="cls-3" x="320" y="380" width="20" height="20" transform="translate(-60 720) rotate(-90)"/><rect class="cls-2" x="180" y="90" width="20" height="20" transform="translate(90 290) rotate(-90)"/><polygon class="cls-12" points="50.84 86.22 47.97 81.25 45.1 86.22 46.17 86.22 46.17 94.74 49.77 94.74 49.77 86.22 50.84 86.22"/><polygon class="cls-12" points="58.79 84.3 55.92 79.33 53.05 84.3 54.12 84.3 54.12 94.74 57.72 94.74 57.72 84.3 58.79 84.3"/><polygon class="cls-12" points="66.74 79.45 63.87 74.47 61 79.45 62.07 79.45 62.07 94.74 65.67 94.74 65.67 79.45 66.74 79.45"/><polygon class="cls-12" points="74.69 72.98 71.82 68 68.95 72.98 70.02 72.98 70.02 94.74 73.62 94.74 73.62 72.98 74.69 72.98"/><polygon class="cls-12" points="64.74 66.87 65.08 67.55 65.82 67.65 65.28 68.18 65.41 68.92 64.74 68.57 64.08 68.92 64.21 68.18 63.67 67.65 64.41 67.55 64.74 66.87"/><polygon class="cls-12" points="69.7 65.06 69.95 65.57 70.51 65.65 70.1 66.05 70.2 66.61 69.7 66.34 69.2 66.61 69.29 66.05 68.89 65.65 69.45 65.57 69.7 65.06"/><polygon class="cls-12" points="66.74 71.94 67.06 72.58 67.77 72.69 67.25 73.18 67.38 73.89 66.74 73.56 66.11 73.89 66.23 73.18 65.72 72.69 66.43 72.58 66.74 71.94"/><circle class="cls-12" cx="68.36" cy="68.59" r=".59"/><circle class="cls-12" cx="74.33" cy="67.38" r=".77"/><polyline class="cls-13" points="376.44 75.23 383.36 75.23 383.36 72.93 374.13 70.62 369.52 72.93 369.52 79.85 383.36 82.16 394.9 75.23 394.9 72.93 383.36 75.23"/><rect class="cls-11" x="364.9" y="70.62" width="4.62" height="11.54"/><polygon class="cls-9" points="374.03 62.28 374.87 63.97 376.73 64.24 375.38 65.56 375.7 67.41 374.03 66.54 372.37 67.41 372.69 65.56 371.34 64.24 373.2 63.97 374.03 62.28"/><polygon class="cls-9" points="381.26 58.04 382.09 59.73 383.96 60 382.61 61.31 382.93 63.17 381.26 62.29 379.59 63.17 379.91 61.31 378.56 60 380.43 59.73 381.26 58.04"/><polygon class="cls-9" points="388.49 62.28 389.32 63.97 391.18 64.24 389.84 65.56 390.15 67.41 388.49 66.54 386.82 67.41 387.14 65.56 385.79 64.24 387.65 63.97 388.49 62.28"/><path class="cls-13" d="m371.69,338.34l-2.91,2.91-6.23-6.23c-1.84.72-4.02.34-5.51-1.15-1.19-1.19-1.67-2.81-1.45-4.36,1.21,1.21,3.16,1.2,4.36,0,1.2-1.2,1.2-3.16,0-4.36,1.54-.22,3.17.26,4.36,1.45,1.49,1.49,1.88,3.67,1.15,5.51l6.23,6.23Z"/><rect class="cls-13" x="375.39" y="338.86" width="4.11" height="16.29" transform="translate(-134.81 368.73) rotate(-45.02)"/><rect class="cls-13" x="359.11" y="344.14" width="6.17" height="10.28" transform="translate(353.07 -153.81) rotate(45)"/><polygon class="cls-13" points="379.64 333.29 370.23 342.7 368.01 344.92 366.56 343.47 371.69 338.34 378.18 331.84 379.64 333.29"/><polygon class="cls-13" points="383.82 328.75 381.63 333.11 379.64 333.29 378.18 331.84 378.37 329.84 382.73 327.66 383.82 328.75"/><rect class="cls-13" x="364.26" y="343.94" width="4.64" height="2.05" transform="translate(351.29 -158.18) rotate(45)"/><line class="cls-13" x1="357.83" y1="352.19" x2="363.65" y2="346.38"/><line class="cls-13" x1="359.29" y1="353.64" x2="362.19" y2="350.74"/><polygon class="cls-10" points="70 211.3 108.18 236.54 174.09 131.08 134.54 104.72 70 211.3"/><polygon class="cls-10" points="410 211.3 371.82 236.54 305.91 131.08 345.46 104.72 410 211.3"/><path class="cls-10" d="m288.9,186.66l50.51,43.8-50.51-43.8Z"/><line class="cls-10" x1="165.94" y1="144.85" x2="240.69" y2="144.85"/><line class="cls-10" x1="118.31" y1="220.65" x2="138.95" y2="238.75"/><path class="cls-10" d="m277.49,211.56l44.63,38.8c5.49,4.78,13.82,4.19,18.6-1.3h0c4.78-5.49,4.19-13.82-1.3-18.6l-29.85-25.94"/><path class="cls-10" d="m258.81,230.24l44.63,38.8c5.49,4.78,13.82,4.19,18.6-1.3h0c4.78-5.49,4.19-13.82-1.3-18.6l-29.85-25.94"/><path class="cls-10" d="m240.14,248.91l44.63,38.8c5.49,4.78,13.82,4.19,18.6-1.3h0c4.78-5.49,4.19-13.82-1.3-18.6l-29.85-25.94"/><path class="cls-10" d="m238.76,282.82l27.32,23.57c5.49,4.78,13.82,4.19,18.6-1.3h0c4.78-5.49,4.19-13.82-1.3-18.6l-29.85-25.94"/><path class="cls-10" d="m204.94,285.43l-7.74,6.72c-5.49,4.78-6.08,13.1-1.3,18.6h0c4.78,5.49,13.1,6.08,18.6,1.3l7.74-6.73"/><path class="cls-10" d="m198.31,291.2l18.79-16.34c5.49-4.78,13.82-4.19,18.6,1.3h0c4.78,5.49,4.19,13.82-1.3,18.6l-18.79,16.34"/><path class="cls-10" d="m186.17,266.66l-7.74,6.72c-5.49,4.78-6.08,13.1-1.3,18.6h0c4.78,5.49,13.1,6.08,18.6,1.3l7.74-6.73"/><path class="cls-10" d="m179.54,272.43l18.79-16.34c5.49-4.78,13.82-4.19,18.6,1.3h0c4.78,5.49,4.19,13.82-1.3,18.6l-18.79,16.34"/><path class="cls-10" d="m167.6,248.1l-7.74,6.72c-5.49,4.78-6.08,13.1-1.3,18.6h0c4.78,5.49,13.1,6.08,18.6,1.3l7.74-6.73"/><path class="cls-10" d="m160.97,253.86l18.79-16.34c5.49-4.78,13.82-4.19,18.6,1.3h0c4.78,5.49,4.19,13.82-1.3,18.6l-18.79,16.34"/><path class="cls-10" d="m148.94,229.44l-7.74,6.72c-5.49,4.78-6.08,13.1-1.3,18.6h0c4.78,5.49,13.1,6.08,18.6,1.3l7.74-6.73"/><path class="cls-10" d="m142.31,235.2l18.79-16.34c5.49-4.78,13.82-4.19,18.6,1.3h0c4.78,5.49,4.19,13.82-1.3,18.6l-18.79,16.34"/><path class="cls-10" d="m218.47,153.03l-14.59,5.3c-10.36,3.77-15.7,15.23-11.93,25.59h0c3.77,10.36,15.23,15.7,25.59,11.93l2.08-.76"/><path class="cls-10" d="m219.62,195.09l55.41-20.48,13.87,12.04"/><path class="cls-10" d="m313.84,144.29l-7.97,4.05-39.19-13.12-48.21,17.81"/><line class="cls-10" x1="362.13" y1="221.16" x2="341.02" y2="231.94"/></svg>