<svg width="150" height="31" viewBox="0 0 150 31" fill="none" xmlns="http://www.w3.org/2000/svg">
<path d="M42.36 9.8901C41.92 9.8201 41.48 9.7901 41.03 9.7901C38.51 9.7901 36.78 11.1201 36.78 14.5001V22.1701H33.76V6.8701H36.71V9.5601C37.84 7.2001 39.76 6.6401 41.32 6.6401C41.75 6.6401 42.15 6.7101 42.32 6.7401V9.8901H42.35H42.36ZM47.5 6.8701H44.51V22.1701H47.5V6.8701ZM71.13 22.1701H68.11V1.1001H71.13V8.6301C72.26 7.0001 74.05 6.4101 75.81 6.4101C79.49 6.4101 81.32 9.0701 81.32 12.4501V22.1401H78.3V12.9501C78.3 10.8301 77.4 9.1001 74.72 9.1001C72.4 9.1001 71.2 10.8901 71.14 13.1501V22.1801L71.13 22.1701ZM106.41 6.8701L110.42 18.3901L113.84 6.8701H116.99L111.98 22.1701H108.86L104.78 10.5201L100.77 22.1701H97.58L92.5 6.8701H95.79L99.27 18.3901L103.29 6.8701H106.41ZM57.59 19.9501C54.7 19.9501 53.08 17.5601 53.08 14.4101C53.08 11.2601 54.87 9.1001 57.63 9.1001C60.39 9.1001 62.08 11.2601 62.08 14.4101C62.08 17.5601 60.35 19.9501 57.6 19.9501H57.59ZM62.04 6.8701V9.0301C61.54 7.8001 60.05 6.4401 57.33 6.4401C52.95 6.4401 50 10.0601 50 14.4001C50 18.7401 52.79 22.5601 57.33 22.5601C59.65 22.5601 61.25 21.4001 62.01 20.0101V22.4001C62.01 25.7201 60.52 27.3801 57.3 27.3801C55.21 27.3801 53.65 26.0901 53.22 24.2601H50.3L50.17 24.2901C50.57 27.5801 53.46 30.0001 57.3 30.0001C63.11 30.0001 65.03 26.2201 65.03 22.3301V6.8701H62.04ZM146.73 6.8701V9.0301L146.76 14.4101C146.76 17.5601 145.07 19.9501 142.28 19.9501C139.49 19.9501 137.77 17.5601 137.77 14.4101V6.8801H134.68V14.4101C134.68 18.9601 137.47 22.5701 142.01 22.5701C144.33 22.5701 145.93 21.4101 146.69 20.0201V22.4101C146.69 25.7301 145.2 27.3901 141.98 27.3901C139.89 27.3901 138.33 26.1001 137.9 24.2701H134.98L134.85 24.3001C135.25 27.5901 138.14 30.0101 141.98 30.0101C147.79 30.0101 149.71 26.2301 149.71 22.3401V6.8801H146.72L146.73 6.8701ZM91.01 9.5901V6.9001H87.66V1.1301H84.91V6.9001H82.75V9.5901H84.68V18.4201C84.68 20.5801 86.47 22.3401 88.66 22.3401H91.05V19.6201H89.39C88.46 19.6201 87.7 18.8601 87.7 17.9301V9.5701H91.02V9.6001L91.01 9.5901ZM124.59 19.9101C127.34 19.9101 129.07 17.5201 129.07 14.3701C129.07 11.2201 127.41 9.0601 124.62 9.0601C121.83 9.0601 120.07 11.2201 120.07 14.3701C120.04 17.5601 121.66 19.9101 124.58 19.9101H124.59ZM129.07 19.8401C128.34 21.3001 126.68 22.5601 124.29 22.5601C119.78 22.5601 116.96 18.9401 116.96 14.4001C116.96 9.8601 119.91 6.4401 124.29 6.4401C127.01 6.4401 128.5 7.7701 129 9.0301V6.8701H132.09V22.1701H129.07V19.8501V19.8401Z" fill="white"/>
<path d="M20.06 8.52979H14.29C11.1 8.52979 8.90997 10.2598 8.90997 13.3798V21.9698H13.89V13.4098H20.06V8.52979Z" fill="white"/>
<path d="M13.92 8.56006C11 8.73006 9.00998 10.5201 8.97998 13.4401H13.92V8.56006Z" fill="white"/>
<path d="M13.92 7.37V0H8.94003V8.53H0.280029V13.47H7.75003C7.82003 9.92 10.24 7.53 13.92 7.36V7.37ZM16.94 5.68L24.44 11.06L16.94 16.44V5.69V5.68Z" fill="white"/>
<path d="M46.01 0.72998C47.1 0.72998 48 1.58998 48 2.68998C48 3.78998 47.14 4.61998 46.01 4.61998C44.88 4.61998 44.05 3.75998 44.05 2.68998C44.05 1.60998 44.93 0.72998 46.01 0.72998Z" fill="white"/>
</svg>
