<svg width="150" height="16" viewBox="0 0 150 16" fill="none" xmlns="http://www.w3.org/2000/svg">
<path d="M12.91 15.24H9.26001V8.83002H3.71001V15.23H0.0100098V0.030014H3.70001V5.45001H9.24001V0.0200195H12.91V15.24Z" fill="white"/>
<path d="M75.42 15.24H71.47C71.22 14.46 70.97 13.71 70.72 12.91H65.19C64.95 13.66 64.7 14.41 64.43 15.22H60.46C62.32 10.1 64.16 5.05 65.99 0H69.93C71.73 5.01 73.55 10.04 75.42 15.24ZM66.05 10.06H69.83C69.19 7.95 68.58 5.93 67.97 3.92C67.91 3.92 67.85 3.93 67.79 3.94C67.22 5.95 66.65 7.97 66.06 10.06H66.05Z" fill="white"/>
<path d="M82.48 4.7498V0.0498047H85.59V15.2098H82.79C82.74 14.9998 82.67 14.7598 82.6 14.5198C82.53 14.5198 82.46 14.5198 82.42 14.5498C79.66 16.5798 76.44 15.6298 75.33 12.3698C74.65 10.3898 74.71 8.3598 75.54 6.4198C76.67 3.7798 79.49 2.9298 81.95 4.4298C82.07 4.5098 82.2 4.58981 82.48 4.76981V4.7498ZM82.71 9.51981C82.71 9.51981 82.62 9.4798 82.57 9.4598C82.49 8.9298 82.44 8.3998 82.32 7.8798C82.07 6.7698 81.49 6.2098 80.57 6.1298C79.7 6.0498 78.94 6.56981 78.55 7.58981C78 9.03981 78.04 10.5098 78.63 11.9398C78.91 12.6298 79.41 13.0298 80.19 13.0898C81.01 13.1498 81.64 12.8198 81.94 12.1198C82.29 11.2898 82.46 10.3898 82.7 9.51981H82.71Z" fill="white"/>
<path d="M49.93 15.2098V0.0297852H53.07V5.10979C53.44 4.84979 53.64 4.70979 53.83 4.56979C55.1 3.58979 56.52 3.41979 57.97 4.01979C59.32 4.57979 59.79 5.79979 59.81 7.14979C59.86 9.81979 59.82 12.4998 59.82 15.2298H56.61C56.61 14.3098 56.61 13.4498 56.61 12.5998C56.59 11.1998 56.58 9.79979 56.53 8.39979C56.48 7.20979 55.95 6.54978 55.06 6.48978C54.06 6.41978 53.32 7.01979 53.22 8.24979C53.09 9.81979 53.14 11.4098 53.12 12.9898C53.12 13.6998 53.12 14.4098 53.12 15.2098H49.94H49.93Z" fill="white"/>
<path d="M97.17 9.62991C97.13 6.05991 99.47 3.65992 103.04 3.61992C106.76 3.58992 109.08 5.89991 109.13 9.69991C109.18 13.2699 106.78 15.5999 102.99 15.6499C99.47 15.6899 97.21 13.3499 97.16 9.61992L97.17 9.62991ZM105.86 9.76992C105.77 9.16992 105.73 8.66991 105.6 8.17991C105.26 6.91991 104.41 6.27992 103.13 6.26992C101.95 6.26992 100.89 6.98991 100.69 8.20991C100.54 9.14991 100.55 10.1699 100.73 11.1099C100.97 12.3399 101.85 12.8999 103.13 12.9699C104.24 13.0199 105.1 12.4699 105.52 11.3399C105.71 10.8199 105.77 10.2499 105.87 9.76992H105.86Z" fill="white"/>
<path d="M25.38 10.3397H17.54C17.36 11.5697 17.88 12.5097 18.91 12.9497C20.28 13.5297 21.41 13.0497 22.86 11.2197C23.6 11.6097 24.35 12.0097 25.11 12.3997C24.17 14.5097 21.52 15.9597 19.2 15.6897C15.57 15.2497 13.51 12.4597 14.11 8.78974C14.4 6.98974 15.05 5.40974 16.71 4.41974C20.17 2.35974 24.38 4.23974 25.12 8.19974C25.24 8.85974 25.28 9.53974 25.37 10.3497L25.38 10.3397ZM17.48 8.21974H21.87C21.8 6.87974 21.1 6.10974 19.93 6.02974C18.68 5.93974 17.81 6.69974 17.48 8.21974Z" fill="white"/>
<path d="M150 10.35H142.19C142.05 11.64 142.58 12.56 143.65 12.98C145.01 13.52 146.18 13 147.52 11.22C148.27 11.61 149.02 12 149.78 12.4C148.87 14.49 146.17 15.97 143.87 15.68C139.64 15.15 137.66 11.35 139.22 7.03999C140.66 3.04999 145.98 2.80999 148.15 4.99999C149.59 6.44999 149.97 8.26998 150 10.35ZM146.58 8.21999C146.41 6.77999 145.67 6.03999 144.47 6.00999C143.27 5.98999 142.35 6.85999 142.19 8.21999H146.58Z" fill="white"/>
<path d="M32.61 7.82991C32.65 6.99991 32.73 6.24991 31.87 5.90991C31.01 5.56991 30.21 5.9999 29.51 7.1099H26.49C26.37 5.9099 26.95 4.8299 28.13 4.2799C30.27 3.2799 32.42 3.39991 34.5 4.43991C35.58 4.97991 35.88 6.02991 35.88 7.15991C35.89 9.24991 35.88 11.3299 35.88 13.4199C35.88 13.9799 35.93 14.5499 35.95 15.1999H33.07C33 14.9699 32.93 14.7199 32.91 14.6499C31.74 14.9799 30.63 15.4399 29.49 15.5599C27.89 15.7399 26.49 14.6999 26.05 13.2599C25.57 11.7099 26.05 10.1099 27.55 9.33991C28.74 8.72991 30.11 8.4599 31.41 8.0599C31.77 7.9499 32.16 7.8999 32.6 7.8099L32.61 7.82991ZM32.59 9.8799C31.89 10.1099 31.27 10.3199 30.65 10.5299C30.48 10.5899 30.31 10.6399 30.15 10.7199C29.23 11.1699 28.92 11.7999 29.27 12.4799C29.61 13.1299 30.37 13.2999 31.23 12.9099C32.23 12.4599 32.73 11.3799 32.58 9.8799H32.59Z" fill="white"/>
<path d="M127.42 7.87978C127.48 7.03978 127.58 6.28978 126.7 5.95978C125.8 5.61978 125.03 6.02978 124.39 7.12978H121.24C121.26 5.71978 121.93 4.80979 123.1 4.26979C124.99 3.38979 126.94 3.50979 128.84 4.22979C130.09 4.69979 130.67 5.69978 130.68 7.02978C130.68 8.84978 130.68 10.6698 130.68 12.4898C130.68 13.3798 130.68 14.2698 130.68 15.2298H127.89C127.84 14.9898 127.79 14.7398 127.73 14.4498C127.62 14.4898 127.51 14.5198 127.41 14.5598C126.47 14.9098 125.56 15.4398 124.6 15.5598C122.68 15.7898 121.22 14.6998 120.84 13.0098C120.45 11.2598 121.4 9.56979 123.21 8.90979C123.88 8.65979 124.58 8.49979 125.28 8.32979C125.97 8.15979 126.68 8.03978 127.43 7.88978L127.42 7.87978ZM127.34 9.90979C126.63 10.1398 125.93 10.3598 125.24 10.5998C125.05 10.6698 124.87 10.7798 124.69 10.8798C124.11 11.2198 123.81 11.6898 124.06 12.3598C124.31 13.0298 124.87 13.1598 125.51 13.0798C126.83 12.8998 127.67 11.4898 127.35 9.90979H127.34Z" fill="white"/>
<path d="M120.11 6.39C119.33 6.85 118.59 7.28 117.81 7.73C117.63 7.48 117.48 7.27 117.32 7.06C116.36 5.82 114.57 5.89 113.82 7.26C112.93 8.87 112.97 10.54 113.93 12.11C114.67 13.32 116.45 13.34 117.38 12.2C117.57 11.97 117.71 11.71 117.94 11.38C118.69 11.8 119.43 12.21 120.16 12.62C118.78 16.07 113.72 16.78 111.22 13.95C109.26 11.73 109.38 7.29 111.45 5.2C113.93 2.7 118.28 3.25 120.12 6.39H120.11Z" fill="white"/>
<path d="M93.52 15.25H90.07C88.88 11.55 87.71 7.87004 86.49 4.07004H89.93C90.55 6.48004 91.18 8.89004 91.81 11.31C91.87 11.31 91.93 11.32 91.98 11.33C92.57 8.90004 93.15 6.47004 93.74 4.04004H97.08C95.88 7.82004 94.71 11.5 93.52 15.25Z" fill="white"/>
<path d="M43.58 6.31976C43.01 6.27976 42.55 6.24976 42.03 6.20976V4.32977C42.49 4.28977 42.95 4.24976 43.53 4.19976V0.759766H46.81V4.20976C47.55 4.23976 48.2 4.26977 48.91 4.29977V6.23976C48.24 6.26976 47.58 6.29977 46.82 6.33977C46.82 8.27977 46.79 10.1498 46.86 12.0098C46.86 12.2298 47.34 12.5198 47.65 12.6298C47.96 12.7398 48.33 12.6498 48.73 12.6498V15.3998C47.5 15.3198 46.3 15.3798 45.18 15.1198C44.01 14.8498 43.63 13.7998 43.6 12.6798C43.56 10.8898 43.58 9.09976 43.58 7.31976C43.58 6.99976 43.58 6.67976 43.58 6.30976V6.31976Z" fill="white"/>
<path d="M138.56 4.31976V6.22977C137.89 6.26977 137.22 6.29976 136.46 6.34976C136.46 8.24976 136.43 10.0898 136.5 11.9198C136.5 12.1798 136.99 12.4998 137.32 12.6398C137.59 12.7598 137.96 12.6598 138.37 12.6598V15.1798C137.16 15.4798 135.94 15.5498 134.73 15.1098C133.9 14.8098 133.42 14.1298 133.36 13.2698C133.26 11.9098 133.25 10.5298 133.23 9.15977C133.21 8.23977 133.23 7.31976 133.23 6.31976C132.68 6.27976 132.19 6.23976 131.65 6.19976V4.31976C132.13 4.27976 132.59 4.23976 133.18 4.19976V0.759766H136.4V4.17976C137.18 4.22976 137.84 4.26976 138.57 4.30976L138.56 4.31976Z" fill="white"/>
<path d="M37.91 0.00976562H41.01V15.2398H37.91V0.00976562Z" fill="white"/>
</svg>
