<svg width="96" height="31" viewBox="0 0 96 31" fill="none" xmlns="http://www.w3.org/2000/svg">
<path d="M18.72 0V23.91C17.11 23.91 16.3 23.91 14.68 23.86C11.53 19.68 8.50999 15.42 5.59999 11.07V23.61C3.80999 23.54 2.00999 23.45 0.209991 23.34V0.0100021H4.24999C7.32999 4.48 10.31 8.99 13.34 13.5V0.0100021H18.72V0Z" fill="white"/>
<path d="M34.81 15.6699C34.79 14.6099 34.37 13.5999 33.62 12.8499C32.87 12.0999 31.86 11.6799 30.8 11.6699C29.71 11.7099 28.68 12.1699 27.92 12.9699C27.17 13.7699 26.76 14.8299 26.79 15.9199C26.79 16.9499 27.19 17.9299 27.91 18.6599C28.63 19.3899 29.61 19.7999 30.63 19.7999H30.79C31.86 19.7399 32.86 19.2899 33.6 18.5199C34.34 17.7499 34.77 16.7299 34.79 15.6599L34.81 15.6699ZM39.85 6.95993V23.6299C38.17 23.6899 36.49 23.7599 34.81 23.7899V22.2999C34.15 22.9599 33.37 23.4699 32.51 23.8199C31.65 24.1699 30.73 24.3399 29.8 24.3199C27.65 24.2199 25.62 23.3099 24.13 21.7599C22.63 20.2099 21.78 18.1499 21.75 15.9999C21.75 11.5399 25.1 6.88993 29.8 6.70993C30.73 6.67993 31.65 6.84992 32.52 7.19992C33.38 7.54992 34.16 8.06993 34.81 8.73993V7.10993L39.85 6.95993Z" fill="white"/>
<path d="M59.54 6.23997C57.55 11.67 55.66 17.12 53.78 22.6C52.45 26.98 48.93 30.25 44.2 29.99V25.43C45.12 25.5 46.04 25.25 46.8 24.72C47.56 24.2 48.13 23.43 48.4 22.54C46.17 17.32 43.89 12.12 41.71 6.89998C43.55 6.82998 45.41 6.75997 47.26 6.69997C48.49 10.03 49.74 13.36 51 16.71C52.04 13.28 53.09 9.85997 54.17 6.44997C55.96 6.35997 57.75 6.28998 59.56 6.22998L59.54 6.23997Z" fill="white"/>
<path d="M77.37 6.08008C75.33 11.4001 73.44 16.7701 71.61 22.1801C70.38 26.5901 66.8 30.1701 62.02 29.9801V24.9501C62.96 25.0101 63.89 24.7501 64.65 24.2001C65.41 23.6501 65.97 22.8601 66.22 21.9501C64.09 16.6801 61.84 11.4601 59.53 6.26008C61.37 6.21008 63.23 6.13008 65.08 6.12008C66.35 9.40008 67.62 12.6701 68.81 15.9701C69.81 12.6401 70.87 9.37007 71.98 6.09007C73.77 6.09007 75.56 6.09008 77.37 6.11008" fill="white"/>
<path d="M90.75 14.5098C90.72 13.4398 90.29 12.4198 89.55 11.6398C88.81 10.8698 87.81 10.3898 86.75 10.3098C85.76 10.2398 84.79 10.5698 84.04 11.2298C83.29 11.8798 82.84 12.7998 82.77 13.7898V14.0398C82.76 15.1498 83.16 16.2098 83.91 17.0298C84.65 17.8498 85.68 18.3498 86.78 18.4298C87.83 18.4398 88.84 18.0298 89.59 17.2998C90.34 16.5698 90.77 15.5598 90.78 14.5098H90.76H90.75ZM95.79 6.64979V23.3098C94.11 23.2198 92.43 23.1298 90.75 23.0598V21.4498C90.09 22.0998 89.31 22.5998 88.45 22.9298C87.59 23.2598 86.67 23.4198 85.75 23.3798C81.14 23.1798 77.74 18.2698 77.7 13.9498C77.72 11.8098 78.57 9.75979 80.07 8.22979C81.57 6.70979 83.61 5.82979 85.74 5.77979C86.67 5.77979 87.6 5.96978 88.46 6.33978C89.32 6.70978 90.1 7.23978 90.75 7.91978V6.38979C92.43 6.45979 94.11 6.54979 95.79 6.63979V6.64979Z" fill="white"/>
</svg>
