<svg width="150" height="24" viewBox="0 0 150 24" fill="none" xmlns="http://www.w3.org/2000/svg">
<path d="M42.51 4.18987C42.51 1.78987 44.31 0.169864 46.66 0.169864C48.02 0.119864 49.28 0.859866 49.9 2.06987L48.48 2.76986C48.13 2.08986 47.43 1.65987 46.66 1.63987C45.32 1.61987 44.23 2.68986 44.21 4.02986C44.21 4.07986 44.21 4.13987 44.21 4.18987C44.14 5.52987 45.16 6.66986 46.5 6.73986C46.55 6.73986 46.6 6.73986 46.66 6.73986C47.43 6.71986 48.12 6.28987 48.48 5.60987L49.9 6.29986C49.27 7.49986 48.02 8.23986 46.66 8.20986C44.32 8.21986 42.51 6.58987 42.51 4.18987Z" fill="white"/>
<path d="M56.17 8.07957L55.68 6.75957H52.35L51.86 8.07957H49.99L52.99 0.30957H55.07L58.06 8.07957H56.18H56.17ZM54.02 1.95957L52.81 5.29957H55.23L54.02 1.95957Z" fill="white"/>
<path d="M58.15 6.98983L59.06 5.69983C59.7 6.37983 60.6 6.75983 61.53 6.75983C62.45 6.75983 62.88 6.36983 62.88 5.89983C62.88 4.54983 58.41 5.48983 58.41 2.56983C58.41 1.27983 59.53 0.209831 61.36 0.209831C62.47 0.169831 63.55 0.559833 64.39 1.28983L63.47 2.51983C62.85 1.96983 62.04 1.65983 61.21 1.66983C60.51 1.66983 60.12 1.96983 60.12 2.44983C60.12 3.66983 64.58 2.83983 64.58 5.74983C64.58 7.16983 63.56 8.23983 61.46 8.23983C60.24 8.28983 59.04 7.83983 58.16 6.98983H58.15Z" fill="white"/>
<path d="M67.32 8.07981V1.75981H65.06V0.299805H71.25V1.75981H68.99V8.07981H67.31H67.32Z" fill="white"/>
<path d="M72.23 8.07957V0.30957H73.9V6.61957H77.18V8.07957H72.23Z" fill="white"/>
<path d="M78.31 8.07957V0.30957H83.8V1.76957H79.95V3.40957H83.71V4.86957H79.95V6.63957H83.8V8.08957H78.31V8.07957Z" fill="white"/>
<path d="M87.71 4.19001C87.71 1.79001 89.52 0.170001 91.86 0.170001C93.21 0.130001 94.47 0.870002 95.1 2.07L93.68 2.77C93.33 2.09 92.63 1.66 91.86 1.64C90.52 1.62 89.43 2.69 89.41 4.03C89.41 4.08 89.41 4.14001 89.41 4.19001C89.34 5.53001 90.36 6.67 91.7 6.74C91.75 6.74 91.8 6.74 91.86 6.74C92.63 6.72 93.32 6.29 93.68 5.61L95.1 6.3C94.47 7.5 93.22 8.24 91.86 8.21C89.52 8.22 87.71 6.59001 87.71 4.19001Z" fill="white"/>
<path d="M95.71 4.18989C95.71 1.94989 97.53 0.129883 99.77 0.129883C102.01 0.129883 103.83 1.94989 103.83 4.18989C103.83 6.42989 102.01 8.24989 99.77 8.24989C97.53 8.24989 95.71 6.42989 95.71 4.18989ZM102.13 4.18989C102.13 2.73989 101.21 1.63988 99.79 1.63988C98.37 1.63988 97.43 2.72989 97.43 4.18989C97.43 5.64989 98.35 6.73988 99.79 6.73988C101.23 6.73988 102.13 5.64989 102.13 4.18989Z" fill="white"/>
<path d="M110.35 8.07957L106.65 3.01957V8.07957H105V0.30957H106.7L110.3 5.18958V0.30957H111.95V8.07957H110.36H110.35Z" fill="white"/>
<path d="M118.84 8.07957L115.14 3.01957V8.07957H113.48V0.30957H115.18L118.78 5.18958V0.30957H120.44V8.07957H118.84Z" fill="white"/>
<path d="M121.6 4.18989C121.6 1.94989 123.42 0.129883 125.66 0.129883C127.9 0.129883 129.72 1.94989 129.72 4.18989C129.65 6.42989 127.78 8.18988 125.54 8.11988C123.4 8.04988 121.67 6.32989 121.61 4.18989H121.6ZM128.02 4.18989C128.02 2.73989 127.1 1.63988 125.68 1.63988C124.26 1.63988 123.3 2.74989 123.3 4.18989C123.3 5.62989 124.22 6.73988 125.66 6.73988C127.1 6.73988 128.01 5.64989 128.01 4.18989H128.02Z" fill="white"/>
<path d="M130.82 8.07957V0.30957H132.48V6.61957H135.76V8.07957H130.81H130.82Z" fill="white"/>
<path d="M136.81 8.07957V0.30957H138.48V6.61957H141.76V8.07957H136.81Z" fill="white"/>
<path d="M143.57 8.07957V4.89957L140.59 0.30957H142.48L144.4 3.42957L146.32 0.30957H148.19L145.22 4.89957V8.07957H143.56H143.57Z" fill="white"/>
<path d="M51.67 11.7697H47.55V22.7797H46.85V11.7897H42.73V11.1597H51.66V11.7697H51.67Z" fill="white"/>
<path d="M62.24 17.0399C62.24 20.6499 60.01 23.0599 56.69 23.0599C53.37 23.0599 51.19 20.6199 51.19 16.9699C51.19 13.3199 53.43 10.8599 56.69 10.8599C59.95 10.8599 62.24 13.3899 62.24 17.0399ZM51.91 16.9299C51.91 20.2299 53.83 22.4499 56.69 22.4499C59.55 22.4499 61.52 20.2499 61.52 17.0399C61.52 13.8299 59.55 11.5099 56.69 11.5099C53.83 11.5099 51.91 13.7299 51.91 16.9399V16.9299Z" fill="white"/>
<path d="M68.02 11.1599C69.24 11.1599 69.91 11.2999 70.5 11.6999C71.37 12.2999 71.87 13.3099 71.81 14.3699C71.81 16.4099 70.47 17.6299 68.22 17.6299H64.2V22.7799H63.51V11.1499H68.03L68.02 11.1599ZM64.2 17.0399H67.82C68.92 17.0399 69.38 16.9699 69.9 16.6499C70.7 16.1999 71.17 15.3299 71.12 14.4199C71.17 13.5599 70.78 12.7399 70.07 12.2399C69.57 11.8899 69.06 11.7799 67.91 11.7799H64.21V17.0399H64.2Z" fill="white"/>
<path d="M79.76 11.1599C81.38 11.1599 82.49 11.5299 83.41 12.3599C84.47 13.3399 85.07 14.9299 85.07 16.7799C85.07 18.8199 84.51 20.3899 83.43 21.4699C82.51 22.4099 81.44 22.7799 79.78 22.7799H75.84V11.1499H79.77L79.76 11.1599ZM76.55 22.1499H79.55C81.4 22.1699 82.39 21.7599 83.25 20.6899C84 19.7699 84.35 18.5299 84.35 16.8499C84.35 14.9399 83.79 13.5299 82.69 12.6399C81.94 12.0299 81.05 11.7699 79.73 11.7699H76.55V22.1499Z" fill="white"/>
<path d="M97.27 17.0399C97.27 20.6499 95.03 23.0599 91.72 23.0599C88.41 23.0599 86.22 20.6199 86.22 16.9699C86.22 13.3199 88.44 10.8599 91.72 10.8599C95 10.8599 97.27 13.3899 97.27 17.0399ZM86.94 16.9299C86.94 20.2299 88.86 22.4499 91.72 22.4499C94.58 22.4499 96.55 20.2499 96.55 17.0399C96.55 13.8299 94.58 11.5099 91.72 11.5099C88.86 11.5099 86.94 13.7299 86.94 16.9399V16.9299Z" fill="white"/>
<path d="M103.76 23.0296C100.55 23.0296 98.42 20.6397 98.42 17.0097C98.42 13.3797 100.6 10.8896 103.83 10.8896C106.32 10.8896 108.35 12.4796 108.61 14.6596H107.92C107.48 12.7096 105.91 11.5196 103.79 11.5196C101 11.5196 99.12 13.7196 99.12 16.9996C99.12 20.2796 100.97 22.4496 103.76 22.4496C106.15 22.4496 107.81 20.8896 108.1 18.2996H108.78C108.56 21.1396 106.52 23.0396 103.76 23.0396V23.0296Z" fill="white"/>
<path d="M117.63 11.7697H113.51V22.7797H112.81V11.7897H108.69V11.1597H117.63V11.7697Z" fill="white"/>
<path d="M128.2 17.0399C128.2 20.6499 125.97 23.0599 122.65 23.0599C119.33 23.0599 117.15 20.6199 117.15 16.9699C117.15 13.3199 119.38 10.8599 122.65 10.8599C125.92 10.8599 128.2 13.3899 128.2 17.0399ZM117.87 16.9299C117.87 20.2299 119.79 22.4499 122.65 22.4499C125.51 22.4499 127.48 20.2499 127.48 17.0199C127.48 13.7899 125.51 11.4899 122.65 11.4899C119.79 11.4899 117.87 13.7299 117.87 16.9399V16.9299Z" fill="white"/>
<path d="M134.21 11.1599C135.77 11.1599 136.69 11.5099 137.33 12.3499C137.74 12.8999 137.94 13.5699 137.92 14.2499C137.92 15.7799 137.01 16.8499 135.44 17.1599C136.38 17.2999 136.87 17.5499 137.26 18.1199C137.65 18.6899 137.65 18.9899 137.75 20.8499C137.8 21.7899 137.89 22.4399 138.03 22.6499L138.12 22.7899H137.34C137.18 22.5399 137.13 22.1899 137.09 20.9899C137 19.0199 136.86 18.4999 136.27 18.0299C135.75 17.6099 135.07 17.4499 133.74 17.4499H130.13V22.7799H129.41V11.1499H134.21V11.1599ZM130.12 16.8499H133.63C134.8 16.8499 135.55 16.7299 136.11 16.3899C136.83 15.9399 137.26 15.1299 137.21 14.2799C137.27 13.4399 136.86 12.6499 136.15 12.1999C135.64 11.8799 134.98 11.7499 133.97 11.7499H130.13V16.8499H130.12Z" fill="white"/>
<path d="M146.95 14.4597C146.84 13.1997 146.41 12.4897 145.48 11.9997C144.79 11.6697 144.03 11.5097 143.27 11.5297C141.21 11.5297 140.01 12.4397 140.01 13.9797C139.98 14.6197 140.28 15.2397 140.81 15.5997C141.3 15.8997 141.8 16.0697 143.24 16.3997L144.11 16.5897C145.7 16.9797 146.22 17.1497 146.78 17.4997C147.54 17.9797 147.99 18.8197 147.95 19.7197C147.95 21.7997 146.31 23.0197 143.57 23.0197C140.59 23.0197 138.98 21.6297 138.96 18.9497H139.64C139.64 21.2397 141.03 22.4597 143.6 22.4597C145.89 22.4597 147.25 21.4497 147.25 19.7697C147.27 18.9597 146.8 18.2097 146.06 17.8797C145.52 17.6197 145.17 17.5097 143.33 17.0997C141.49 16.6897 140.96 16.4897 140.37 16.1097C139.66 15.6397 139.26 14.8297 139.31 13.9797C139.31 12.0897 140.83 10.9297 143.31 10.9297C144.9 10.9297 146.15 11.3997 146.89 12.2897C147.39 12.8997 147.66 13.6797 147.64 14.4697H146.97L146.95 14.4597Z" fill="white"/>
<path d="M37.35 21.9199H0V22.9699H37.35V21.9199Z" fill="white"/>
<path d="M37.35 0H0V1.05H37.35V0Z" fill="white"/>
<path d="M12.77 5.37976C12.48 5.29976 12.2 5.18976 11.94 5.03976C11.78 4.91976 11.66 4.75976 11.59 4.56976C11.32 4.39976 11.07 4.19976 10.83 3.98976C10.6 3.77976 10.48 3.59976 10.48 3.45976C10.48 3.31976 10.53 3.27976 10.64 3.27976C10.73 3.27976 10.81 3.30975 10.87 3.36975C11 3.45975 11.15 3.50975 11.31 3.54975C11.66 3.60975 12.01 3.62975 12.37 3.61975H13.47L15.94 3.52976C16.3 3.51976 16.66 3.54976 17.01 3.60976C17.22 3.65976 17.42 3.75976 17.57 3.91976C17.69 4.10976 17.76 4.33976 17.75 4.55976C17.76 4.74976 17.8 4.93975 17.85 5.11975C17.89 5.25975 17.99 5.36976 18.13 5.42976V3.86975C17.99 3.75975 17.86 3.62976 17.76 3.47976C17.68 3.32976 17.64 3.16976 17.65 2.99976C17.64 2.71976 17.76 2.44976 17.97 2.25976C18.19 2.07976 18.46 1.97976 18.75 1.97976C19.03 1.96976 19.31 2.05976 19.53 2.23976C19.73 2.40976 19.84 2.65976 19.83 2.91976C19.83 3.10976 19.79 3.28976 19.69 3.44976C19.58 3.60976 19.45 3.74975 19.3 3.86975L19.32 5.42976C19.42 5.40976 19.51 5.32976 19.54 5.23976C19.57 5.10976 19.59 4.97976 19.6 4.84976C19.62 4.67976 19.65 4.50976 19.69 4.33976C19.73 4.18976 19.82 4.04976 19.94 3.94976C20.11 3.79976 20.31 3.68976 20.54 3.62976C20.86 3.55976 21.19 3.52976 21.53 3.53976H21.92C22.06 3.53976 22.31 3.53976 22.67 3.57976L25.12 3.75976C25.41 3.75976 25.7 3.73976 25.98 3.68976C26.19 3.64976 26.39 3.58976 26.59 3.50976C26.64 3.47976 26.69 3.46976 26.75 3.45976C26.81 3.45976 26.84 3.53976 26.84 3.70976C26.85 3.88976 26.79 4.05976 26.66 4.18976C26.4 4.38976 26.12 4.55976 25.83 4.69976L25.74 4.73976C25.73 4.90976 25.67 5.06976 25.57 5.19976C25.37 5.37976 25.13 5.51976 24.87 5.60976C24.83 5.75976 24.77 5.90975 24.69 6.04975C24.61 6.14975 24.51 6.22976 24.39 6.26976C24.29 6.31976 24.18 6.35976 24.07 6.37976C23.9 6.39976 23.74 6.44976 23.59 6.51976C23.54 6.72976 23.41 6.91976 23.23 7.03976C22.9 7.18976 22.55 7.27975 22.19 7.29975C22.09 7.48975 21.94 7.64976 21.75 7.74976C21.48 7.85976 21.18 7.87976 20.9 7.82976L19.25 7.59976L19.2 10.6298C19.5 10.5898 19.71 10.5598 19.85 10.5298C19.98 10.4998 20.11 10.4598 20.24 10.4098C20.42 10.3298 20.58 10.2298 20.73 10.1098C20.91 9.97976 20.99 9.88976 20.99 9.84976C20.99 9.80976 20.88 9.74976 20.67 9.66976C20.44 9.57976 20.22 9.46976 20.02 9.32976C19.86 9.21976 19.77 9.03976 19.77 8.84976C19.77 8.66976 19.89 8.50976 20.16 8.34976C20.44 8.19976 20.76 8.13976 21.08 8.15976C21.46 8.14976 21.83 8.28975 22.11 8.54975C22.38 8.82975 22.52 9.20976 22.5 9.58976C22.5 9.98976 22.37 10.3798 22.11 10.6898C21.75 11.0798 21.34 11.4198 20.88 11.6798C20.97 11.8398 21.05 11.9998 21.1 12.1698C21.14 12.3198 21.16 12.4798 21.16 12.6298C21.16 12.9298 21.09 13.2298 20.95 13.4898C20.81 13.7398 20.6 13.9398 20.35 14.0898C20.56 14.3298 20.67 14.6498 20.65 14.9698C20.65 15.1898 20.59 15.3998 20.48 15.5898C20.36 15.7998 20.21 15.9898 20.02 16.1398C20.25 16.3598 20.3 16.4598 20.32 16.5798C20.36 16.8198 20.34 17.0698 20.26 17.2998C20.21 17.4698 20.13 17.6198 20.05 17.7798C19.97 17.9298 19.86 18.0598 19.73 18.1698C19.62 18.2598 19.48 18.3198 19.34 18.3198C19.21 18.3198 19.15 18.2698 19.15 18.1798C19.16 18.1098 19.18 18.0498 19.22 17.9898C19.31 17.8398 19.36 17.6798 19.38 17.5098C19.37 17.3198 19.26 17.1498 19.1 17.0498L19.05 18.7198C19.05 18.9498 19.03 19.1698 19 19.3898C18.98 19.4698 18.91 19.5098 18.81 19.5098C18.71 19.5098 18.58 19.4598 18.55 19.3698C18.51 19.1598 18.49 18.9498 18.49 18.7298V18.6898L18.44 16.8298L18.35 16.7898C18.25 16.9798 18.19 17.1898 18.17 17.4098C18.17 17.5698 18.21 17.7398 18.28 17.8898C18.31 17.9598 18.33 18.0398 18.33 18.1198C18.33 18.2398 18.26 18.2998 18.12 18.2998C17.89 18.2798 17.69 18.1498 17.59 17.9398C17.45 17.7298 17.37 17.4898 17.36 17.2398C17.38 16.9598 17.43 16.6898 17.52 16.4298C17.31 16.2798 17.13 16.0998 16.98 15.8898C16.86 15.6998 16.8 15.4798 16.81 15.2598C16.81 15.0998 16.83 14.9498 16.88 14.7998C16.96 14.5798 17.06 14.3598 17.18 14.1598C16.91 13.9998 16.67 13.7998 16.48 13.5598C16.32 13.3498 16.23 13.0798 16.24 12.8198C16.24 12.6198 16.27 12.4098 16.34 12.2198C16.42 12.0198 16.52 11.8398 16.63 11.6598V11.6398C16.13 11.4598 15.69 11.1498 15.35 10.7298C15.13 10.4398 15 10.0798 15 9.70976C15 9.28976 15.17 8.89975 15.48 8.61975C15.81 8.30975 16.25 8.14976 16.7 8.15976C16.98 8.15976 17.25 8.22975 17.48 8.36975C17.68 8.47975 17.8 8.68976 17.8 8.91976C17.83 9.14976 17.74 9.36976 17.56 9.51976C17.36 9.64976 17.14 9.73975 16.91 9.79975C16.67 9.84975 16.56 9.90976 16.56 9.97976C16.56 10.1498 16.75 10.2798 17.12 10.3998C17.51 10.5098 17.91 10.5898 18.31 10.6198L18.26 7.61975L16.7 7.79975C16.41 7.81975 16.12 7.77976 15.84 7.67976C15.64 7.55976 15.49 7.37976 15.41 7.15976C15.01 7.15976 14.61 7.07976 14.24 6.91976C14.02 6.78976 13.9 6.55976 13.92 6.30976H13.87C13.63 6.22976 13.39 6.11976 13.17 5.99976C12.92 5.81976 12.76 5.46976 12.83 5.34976L12.77 5.37976ZM13.37 3.97976H13.03C12.82 3.97976 12.25 3.97976 11.29 3.92976C11.51 4.13976 11.78 4.27976 12.07 4.34976C12.59 4.42976 13.11 4.45976 13.63 4.44976H16.22C16.44 4.41976 16.66 4.49976 16.81 4.65976C16.92 4.84976 17 5.05976 17.04 5.26976C17.08 5.54976 17.18 5.80975 17.32 6.04975C17.52 6.27975 17.8 6.41976 18.1 6.43976V5.86975C17.88 5.80975 17.68 5.66976 17.56 5.47976C17.46 5.26976 17.4 5.04976 17.37 4.82976C17.34 4.68976 17.31 4.54976 17.27 4.40976C17.24 4.30976 17.18 4.21976 17.09 4.16976C16.9 4.06976 16.69 4.01976 16.47 4.00976C16.19 3.98976 15.69 3.96976 14.99 3.96976L13.36 3.98976L13.37 3.97976ZM15.41 4.81976H14.63L13.8 4.83976C13.62 4.83976 13.45 4.83976 13.29 4.81976C13.13 4.79976 12.9 4.78976 12.62 4.76976H12.3C12.46 4.94976 12.67 5.07976 12.9 5.15976C13.27 5.22976 13.64 5.24976 14.01 5.23976L16.74 5.19976C16.72 5.08976 16.66 4.98976 16.57 4.90976C16.45 4.83976 16.32 4.79976 16.18 4.80976H15.42L15.41 4.81976ZM16.24 5.52976H13.21C13.32 5.72976 13.5 5.87976 13.72 5.93976C14.14 6.00976 14.57 6.03976 15 6.02976L16.88 5.86975L16.77 5.51976C16.58 5.51976 16.4 5.51976 16.24 5.53976V5.52976ZM16.24 6.80976C16.73 6.76976 17.16 6.72976 17.52 6.68976L17.13 6.24976L14.33 6.49976C14.4 6.62976 14.52 6.73975 14.66 6.79975C14.87 6.85975 15.08 6.87975 15.29 6.86975C15.41 6.86975 15.73 6.84976 16.23 6.81976H16.25L16.24 6.80976ZM15.58 9.05976C15.42 9.25976 15.33 9.49976 15.32 9.74976C15.32 10.0298 15.39 10.2998 15.55 10.5298C15.71 10.7498 15.93 10.9198 16.17 11.0398C16.43 11.1698 16.7 11.2698 16.98 11.3498C17.26 11.4298 17.62 11.5098 18.07 11.6098C18.57 11.7098 19.06 11.8498 19.53 12.0298C19.81 12.1198 20 12.3698 20 12.6598C20 12.8398 19.96 13.0098 19.86 13.1498C19.72 13.2998 19.55 13.4198 19.36 13.5098L20.05 13.8498C20.26 13.6798 20.45 13.4698 20.61 13.2498C20.71 13.0698 20.77 12.8698 20.76 12.6698C20.76 12.4198 20.69 12.1798 20.54 11.9898C20.38 11.7998 20.19 11.6398 19.96 11.5398C19.72 11.4198 19.47 11.3298 19.21 11.2598C18.95 11.1898 18.6 11.1098 18.16 11.0298C17.61 10.9298 17.06 10.7698 16.54 10.5698C16.24 10.4798 16.06 10.1598 16.15 9.85976C16.18 9.66976 16.37 9.57976 16.69 9.46976C16.87 9.40976 17.34 9.34976 17.36 9.07976C17.38 8.80976 17.11 8.63976 16.7 8.58976C16.26 8.55976 15.84 8.73976 15.56 9.06976L15.58 9.05976ZM18 6.91976C17.45 7.00976 17.04 7.06976 16.78 7.09976C16.52 7.12976 16.19 7.14976 15.78 7.16976C15.84 7.25976 15.92 7.32975 16.02 7.36975C16.14 7.41975 16.28 7.43976 16.41 7.42976C16.79 7.42976 17.16 7.37976 17.53 7.30976L18.17 7.19976L18 6.91976ZM17.41 12.4598C17.5 12.2898 17.61 12.1298 17.74 11.9898L17.06 11.8298C16.93 11.9498 16.83 12.0998 16.75 12.2498C16.67 12.4098 16.63 12.5798 16.63 12.7598C16.63 12.9898 16.68 13.2198 16.79 13.4198C16.89 13.5898 17.03 13.7398 17.21 13.8398C17.38 13.9498 17.57 14.0298 17.76 14.0898C17.99 14.1598 18.22 14.2098 18.46 14.2498C18.76 14.3098 19.05 14.3998 19.34 14.5298C19.51 14.5998 19.62 14.7598 19.62 14.9498C19.57 15.2498 19.43 15.5298 19.23 15.7598L19.81 16.0198C20.06 15.7098 20.22 15.3398 20.29 14.9398C20.3 14.6198 20.14 14.3298 19.87 14.1598C19.48 13.9398 19.07 13.7598 18.64 13.6298C18.3 13.5298 17.98 13.3998 17.67 13.2398C17.47 13.1498 17.35 12.9598 17.35 12.7498C17.35 12.6498 17.37 12.5398 17.41 12.4498V12.4598ZM17.97 14.5098L17.42 14.3698C17.33 14.5298 17.26 14.6898 17.2 14.8598C17.16 14.9998 17.14 15.1498 17.15 15.2998C17.13 15.5898 17.25 15.8698 17.48 16.0498C17.78 16.2398 18.11 16.3798 18.45 16.4698C18.75 16.5598 19.05 16.6898 19.32 16.8598C19.51 16.9998 19.62 17.2298 19.6 17.4698C19.6 17.6598 19.58 17.9798 19.41 18.0898C19.5 18.0898 19.78 17.7598 19.83 17.6498C19.91 17.4798 19.95 17.2898 19.95 17.0998C19.97 16.8198 19.86 16.5498 19.64 16.3798C19.36 16.1898 19.06 16.0298 18.74 15.9198C18.49 15.8398 18.25 15.7198 18.02 15.5798C17.86 15.4798 17.76 15.2898 17.77 15.0998C17.78 14.8898 17.85 14.6798 17.96 14.4998L17.97 14.5098ZM18.04 16.7698L17.72 16.6498C17.66 16.7298 17.62 16.8198 17.6 16.9098C17.56 17.0098 17.54 17.1198 17.55 17.2298C17.55 17.3998 17.58 17.5598 17.66 17.7098C17.76 17.8598 17.88 17.9898 18.03 18.0998C17.94 17.9298 17.9 17.7398 17.89 17.5498C17.89 17.2798 17.95 17.0198 18.05 16.7698H18.04ZM18.29 13.1598L18.22 12.0898C18.09 12.1798 17.98 12.2798 17.88 12.3898C17.82 12.4698 17.79 12.5698 17.79 12.6698C17.79 12.8498 17.95 13.0098 18.28 13.1498L18.29 13.1598ZM19.39 3.02976C19.39 2.85976 19.32 2.69976 19.19 2.58976C19.06 2.46976 18.88 2.40976 18.7 2.40976C18.53 2.40976 18.37 2.46976 18.24 2.57976C18.12 2.67976 18.04 2.83976 18.05 2.99976C18.05 3.38976 18.29 3.59976 18.76 3.59976C19.23 3.59976 19.39 3.41976 19.39 3.02976ZM18.34 15.4198L18.31 14.6898C18.17 14.7398 18.08 14.8798 18.08 15.0298C18.07 15.1998 18.17 15.3598 18.34 15.4198ZM18.98 3.89976H18.5L18.55 10.6898L18.91 10.7398L18.98 3.88976V3.89976ZM18.84 12.1698L18.58 12.1198L18.6 13.1798L18.85 13.2898V12.1698H18.84ZM18.8 14.6698L18.61 14.6298V15.5398L18.79 15.6298L18.81 14.6698H18.8ZM18.84 17.0098L18.63 16.9198V19.2998H18.77L18.84 17.0098ZM19.1 14.8198V15.4598C19.28 15.2798 19.36 15.1398 19.36 15.0698C19.36 14.8998 19.27 14.8198 19.1 14.8198ZM19.17 12.2298V13.2598C19.3 13.2198 19.41 13.1398 19.51 13.0398C19.61 12.9398 19.67 12.7998 19.67 12.6498C19.65 12.4498 19.49 12.3098 19.17 12.2298ZM20.27 4.23976C20.09 4.46976 19.97 4.74975 19.93 5.04975C19.9 5.25975 19.84 5.45976 19.74 5.64976C19.64 5.79976 19.48 5.89976 19.3 5.91976V6.39976C19.6 6.35976 19.87 6.22976 20.08 6.00976C20.23 5.79976 20.34 5.56976 20.39 5.31976C20.43 5.09976 20.52 4.89976 20.65 4.71976C20.86 4.56976 21.13 4.49976 21.39 4.52976C21.58 4.52976 21.93 4.54976 22.42 4.59976C23.16 4.65976 23.74 4.68976 24.2 4.68976C24.71 4.70976 25.23 4.65976 25.72 4.52976C26.02 4.42976 26.27 4.23976 26.45 3.97976C26.22 4.04976 25.99 4.09976 25.75 4.13976C25.44 4.16976 25.13 4.17976 24.82 4.17976L21.27 3.96976C20.91 3.91976 20.55 4.01976 20.27 4.24976V4.23976ZM21.55 7.53976C21.67 7.48976 21.76 7.39976 21.81 7.28976C21.72 7.28976 21.56 7.28976 21.35 7.24976L19.29 7.03976V7.32976L20.38 7.49976C20.89 7.55976 21.19 7.67976 21.53 7.53976H21.55ZM22.82 6.54975L21.74 6.48976C21.41 6.48976 20.92 6.43976 20.28 6.37976L19.43 6.67976C19.92 6.76976 20.39 6.82975 20.81 6.86975C21.21 6.91975 21.61 6.93976 22.02 6.93976C22.26 6.94976 22.5 6.91976 22.73 6.85976C22.89 6.79976 23.02 6.69976 23.12 6.56976L22.82 6.54975ZM21.11 9.59976C21.27 9.71976 21.37 9.74976 21.36 9.87976C21.36 10.0898 21.21 10.2698 20.9 10.4898C20.57 10.7298 20.21 10.9098 19.82 11.0198L20.6 11.4098C21.01 11.2798 21.37 11.0298 21.64 10.6998C21.93 10.3598 22.08 9.92976 22.08 9.48976C22.08 9.22976 22 8.97976 21.84 8.78976C21.7 8.60976 21.49 8.49975 21.26 8.47975C20.99 8.47975 20.72 8.52976 20.48 8.64976C20.26 8.76976 20.16 8.99976 20.27 9.08976C20.53 9.28976 20.81 9.45976 21.11 9.59976ZM22.52 5.78976C22.13 5.76976 21.8 5.74976 21.53 5.74976L20.56 5.71976L20.4 6.05976L22.48 6.16976C22.94 6.18976 23.4 6.16976 23.86 6.09976C24.07 6.04976 24.26 5.93976 24.4 5.77976H23.8C23.55 5.77976 23.39 5.79975 23.31 5.79975C23.13 5.81975 22.87 5.81975 22.53 5.79975L22.52 5.78976ZM22.82 4.94976C22.33 4.91976 21.85 4.88976 21.38 4.84976H21.17C21.04 4.83976 20.92 4.86976 20.82 4.94976C20.74 5.03976 20.69 5.15976 20.68 5.27976L23.77 5.41976C24.14 5.43976 24.51 5.39976 24.87 5.30976C25.07 5.26976 25.24 5.13976 25.35 4.95976C24.96 4.98976 24.53 4.99976 24.11 4.99976C23.74 4.99976 23.32 4.99976 22.84 4.94976H22.82Z" fill="white"/>
<path d="M27.73 18.5296C26.53 17.8696 25.53 16.8896 24.84 15.7096C24.13 14.4796 23.76 13.0796 23.78 11.6596C23.76 10.2396 24.12 8.83962 24.84 7.61962C25.53 6.42962 26.53 5.45962 27.73 4.79962C28.99 4.10962 30.42 3.75962 31.86 3.77962C32.92 3.76962 33.98 3.94962 34.98 4.31962C35.9 4.66962 36.73 5.21962 37.4 5.92962L36.69 6.65962C35.41 5.41962 33.69 4.74962 31.91 4.81962C30.67 4.79962 29.44 5.10962 28.35 5.70962C27.3 6.27962 26.44 7.12962 25.84 8.16962C25.23 9.23962 24.91 10.4496 24.93 11.6796C24.91 12.9096 25.23 14.1196 25.84 15.1896C26.44 16.2196 27.3 17.0696 28.35 17.6496C29.44 18.2496 30.66 18.5496 31.91 18.5396C33.69 18.5996 35.42 17.9296 36.69 16.6796L37.41 17.3996C36.73 18.1196 35.9 18.6696 34.97 19.0196C33.98 19.3996 32.92 19.5896 31.85 19.5796C30.41 19.5996 29 19.2496 27.74 18.5596L27.73 18.5296Z" fill="white"/>
<path d="M5.87001 19.5498C4.81001 19.5598 3.75001 19.3698 2.75001 18.9898C1.83001 18.6398 0.990007 18.0898 0.320007 17.3698L1.04001 16.6498C2.32001 17.8998 4.05001 18.5598 5.84001 18.4998C7.08001 18.5198 8.31001 18.2098 9.40001 17.6098C10.45 17.0398 11.32 16.1898 11.91 15.1498C12.52 14.0798 12.84 12.8698 12.82 11.6398C12.84 10.4098 12.52 9.19983 11.91 8.12983C11.31 7.08983 10.45 6.23983 9.40001 5.66983C8.31001 5.07983 7.08001 4.76984 5.84001 4.78984C4.06001 4.71984 2.32001 5.38983 1.04001 6.62983L0.330008 5.89984C1.00001 5.17984 1.83001 4.62984 2.75001 4.28984C3.75001 3.91984 4.80001 3.73983 5.87001 3.74983C7.31001 3.72983 8.73001 4.07983 9.99001 4.76983C11.19 5.42983 12.19 6.40983 12.88 7.58983C13.59 8.81983 13.96 10.2198 13.94 11.6298C13.96 13.0498 13.6 14.4498 12.88 15.6798C12.19 16.8698 11.19 17.8398 9.99001 18.4998C8.73001 19.1898 7.30001 19.5398 5.86001 19.5198L5.87001 19.5498Z" fill="white"/>
<path d="M148.82 13.2296C148.66 13.2296 148.5 13.2096 148.35 13.1396C148.21 13.0796 148.07 12.9896 147.96 12.8896C147.85 12.7796 147.77 12.6396 147.71 12.4996C147.65 12.3496 147.62 12.1996 147.62 12.0396C147.62 11.8796 147.65 11.7296 147.71 11.5796C147.77 11.4296 147.85 11.2996 147.96 11.1896C148.07 11.0796 148.21 10.9996 148.35 10.9396C148.64 10.8196 148.97 10.8196 149.27 10.9396C149.41 10.9996 149.55 11.0896 149.66 11.1896C149.77 11.2996 149.85 11.4296 149.91 11.5796C149.97 11.7196 150 11.8796 150 12.0396C150 12.1996 149.97 12.3596 149.91 12.4996C149.85 12.6396 149.77 12.7796 149.66 12.8896C149.55 12.9996 149.41 13.0796 149.27 13.1396C149.13 13.1996 148.98 13.2296 148.82 13.2296ZM148.82 13.0696C148.95 13.0696 149.09 13.0396 149.21 12.9896C149.33 12.9396 149.43 12.8596 149.52 12.7696C149.61 12.6696 149.68 12.5596 149.73 12.4396C149.83 12.1796 149.83 11.8896 149.73 11.6296C149.68 11.5096 149.61 11.3996 149.52 11.3096C149.43 11.2196 149.33 11.1396 149.21 11.0996C148.96 10.9996 148.68 10.9996 148.43 11.0996C148.31 11.1496 148.2 11.2196 148.11 11.3096C148.02 11.3996 147.95 11.5096 147.9 11.6296C147.8 11.8896 147.8 12.1796 147.9 12.4396C147.95 12.5596 148.02 12.6696 148.11 12.7696C148.2 12.8596 148.31 12.9396 148.43 12.9896C148.55 13.0396 148.69 13.0696 148.82 13.0696ZM149.41 12.6996H149.21L148.82 12.0896H148.52V12.6996H148.36V11.3796H148.94C149.07 11.3696 149.2 11.3996 149.31 11.4696C149.38 11.5396 149.41 11.6296 149.41 11.7196C149.41 11.7796 149.41 11.8296 149.38 11.8896C149.36 11.9296 149.33 11.9696 149.29 11.9996C149.25 12.0296 149.2 12.0496 149.16 12.0596C149.11 12.0696 149.05 12.0796 149 12.0796L149.42 12.6896L149.41 12.6996ZM148.78 11.9696H148.93C148.98 11.9696 149.03 11.9696 149.08 11.9496C149.12 11.9396 149.16 11.9196 149.2 11.8796C149.23 11.8396 149.25 11.7796 149.24 11.7296C149.24 11.6896 149.24 11.6496 149.21 11.6096C149.19 11.5796 149.16 11.5596 149.13 11.5396C149.1 11.5296 149.06 11.5096 149.02 11.5096H148.51V11.9696H148.77H148.78Z" fill="white"/>
</svg>
