<?xml version="1.0" encoding="UTF-8"?><svg id="Layer_1" xmlns="http://www.w3.org/2000/svg" xmlns:xlink="http://www.w3.org/1999/xlink" viewBox="0 0 600 720"><defs><style>.cls-1,.cls-2,.cls-3,.cls-4{fill:none;}.cls-2{stroke:#fff;}.cls-2,.cls-3,.cls-4{stroke-miterlimit:10;stroke-width:1.5px;}.cls-3,.cls-4{stroke:#000;}.cls-5{clip-path:url(#clippath);}.cls-6{fill:#f3f3d1;}.cls-7{fill:#00585c;}.cls-8{fill:teal;}.cls-9{fill:#fff;}.cls-10{fill:#8bc3bf;}.cls-11{fill:#cde9e7;}.cls-12{fill:#d0e048;}.cls-13{fill:#c7dc00;}.cls-14{fill:#dee47d;}.cls-15{fill:#24575b;}.cls-16{fill:#1f4c4e;}.cls-17{clip-path:url(#clippath-1);}.cls-4{stroke-linecap:square;}</style><clipPath id="clippath"><rect class="cls-1" x="200" y="260" width="200" height="200"/></clipPath><clipPath id="clippath-1"><rect class="cls-1" x="200" y="260" width="200" height="200"/></clipPath></defs><g id="Artwork_7"><g class="cls-5"><rect class="cls-15" x="200" y="260" width="200" height="200"/><rect class="cls-12" x="249.5" y="398.79" width="25.13" height="22.34"/><g class="cls-17"><path class="cls-16" d="m274.77,387.51h-25.26v-89.78h50.53c28.36,0,46.06,13.41,46.06,38.84,0,18.73-10.14,31.28-27.5,36.26l30.76,48.29h-28.87l-28.53-45.89h-17.19v12.27Zm23.89-33.41c14.78,0,22.34-6.36,22.34-17.36s-7.56-17.53-22.34-17.53h-23.89v34.89h23.89Z"/><path class="cls-9" d="m274.77,389.72h-25.26v-91.99h50.53c28.36,0,46.06,13.41,46.06,38.84,0,18.73-10.14,31.28-27.5,36.26l30.76,48.29h-28.87l-28.53-45.89h-17.19v14.47Zm23.89-35.61c14.78,0,22.34-6.36,22.34-17.36s-7.56-17.53-22.34-17.53h-23.89v34.89h23.89Z"/></g></g></g><rect class="cls-11" x="230" y="440" width="10" height="10" transform="translate(-210 680) rotate(-90)"/><rect class="cls-13" x="140" y="210" width="80" height="80" transform="translate(430 70) rotate(90)"/><rect class="cls-14" x="180" y="140" width="10" height="10" transform="translate(40 330) rotate(-90)"/><rect class="cls-14" x="180" y="160" width="10" height="10" transform="translate(20 350) rotate(-90)"/><rect class="cls-14" x="150" y="170" width="10" height="10" transform="translate(-20 330) rotate(-90)"/><rect class="cls-14" x="230" y="270" width="10" height="10" transform="translate(-40 510) rotate(-90)"/><rect class="cls-14" x="170" y="180" width="20" height="20" transform="translate(370 10) rotate(90)"/><rect class="cls-6" x="355" y="445" width="10" height="10" transform="translate(810 90) rotate(90)"/><rect class="cls-14" x="150" y="190" width="10" height="10" transform="translate(-40 350) rotate(-90)"/><rect class="cls-14" x="150" y="140" width="20" height="20" transform="translate(310 -10) rotate(90)"/><rect class="cls-6" x="280" y="240" width="10" height="10"/><rect class="cls-6" x="260" y="240" width="10" height="10"/><rect class="cls-6" x="250" y="210" width="10" height="10"/><rect class="cls-6" x="230" y="230" width="20" height="20" transform="translate(480 480) rotate(-180)"/><rect class="cls-6" x="230" y="210" width="10" height="10"/><rect class="cls-6" x="270" y="210" width="20" height="20" transform="translate(560 440) rotate(-180)"/><rect class="cls-13" x="120" y="240" width="10" height="10"/><rect class="cls-13" x="100" y="240" width="10" height="10"/><rect class="cls-13" x="90" y="210" width="10" height="10"/><rect class="cls-13" x="70" y="230" width="20" height="20" transform="translate(160 480) rotate(-180)"/><rect class="cls-13" x="70" y="210" width="10" height="10"/><rect class="cls-13" x="110" y="210" width="20" height="20" transform="translate(240 440) rotate(-180)"/><rect class="cls-8" x="210" y="420" width="10" height="10"/><rect class="cls-11" x="170" y="380" width="10" height="10" transform="translate(-210 560) rotate(-90)"/><rect class="cls-11" x="170" y="400" width="10" height="10" transform="translate(-230 580) rotate(-90)"/><rect class="cls-11" x="140" y="410" width="10" height="10" transform="translate(-270 560) rotate(-90)"/><rect class="cls-11" x="160" y="420" width="20" height="20" transform="translate(600 260) rotate(90)"/><rect class="cls-11" x="140" y="430" width="10" height="10" transform="translate(-290 580) rotate(-90)"/><rect class="cls-11" x="140" y="380" width="20" height="20" transform="translate(540 240) rotate(90)"/><rect class="cls-13" x="160" y="540" width="10" height="10" transform="translate(-380 710) rotate(-90)"/><rect class="cls-10" x="190" y="560" width="10" height="10" transform="translate(-370 760) rotate(-90)"/><rect class="cls-10" x="190" y="540" width="10" height="10" transform="translate(-350 740) rotate(-90)"/><rect class="cls-10" x="160" y="570" width="10" height="10" transform="translate(-410 740) rotate(-90)"/><rect class="cls-10" x="180" y="580" width="20" height="20" transform="translate(780 400) rotate(90)"/><rect class="cls-10" x="160" y="590" width="10" height="10" transform="translate(-430 760) rotate(-90)"/><rect class="cls-10" x="160" y="540" width="20" height="20" transform="translate(720 380) rotate(90)"/><rect class="cls-13" x="210" y="300" width="10" height="10" transform="translate(520 90) rotate(90)"/><rect class="cls-14" x="380" y="410" width="10" height="10" transform="translate(-30 800) rotate(-90)"/><rect class="cls-8" x="130" y="450" width="80" height="80" transform="translate(660 320) rotate(90)"/><polygon class="cls-2" points="197.77 481.16 178.84 481.16 178.84 462.23 161.16 462.23 161.16 481.16 142.23 481.16 142.23 498.84 161.16 498.84 161.16 517.77 178.84 517.77 178.84 498.84 197.77 498.84 197.77 481.16"/><polygon class="cls-2" points="197.77 481.16 178.84 481.16 178.84 462.23 161.16 462.23 161.16 481.16 142.23 481.16 142.23 498.84 161.16 498.84 161.16 517.77 178.84 517.77 178.84 498.84 197.77 498.84 197.77 481.16"/><path class="cls-14" d="m460,440v80h-80v-80h80Zm-39.57,69.73c15.27-1.47,26.45-15.04,24.98-30.3-1.38-14.36-13.47-25.11-27.61-25.11h2.74v-4.18h-5.55v4.18h2.81c-.89,0-1.79.04-2.69.13-15.27,1.47-26.45,15.04-24.98,30.3,1.47,15.27,15.04,26.45,30.3,24.98Z"/><path class="cls-14" d="m445.41,479.43c1.47,15.26-9.71,28.83-24.98,30.3-15.26,1.47-28.83-9.71-30.3-24.98-1.47-15.26,9.71-28.83,24.98-30.3.9-.09,1.8-.13,2.69-.13,14.14,0,26.23,10.75,27.61,25.11Z"/><polygon class="cls-14" points="420.54 450.14 420.54 454.32 417.8 454.32 414.99 454.32 414.99 450.14 420.54 450.14"/><path class="cls-3" d="m445.41,479.43c1.47,15.26-9.71,28.83-24.98,30.3-15.26,1.47-28.83-9.71-30.3-24.98-1.47-15.26,9.71-28.83,24.98-30.3.9-.09,1.8-.13,2.69-.13,14.14,0,26.23,10.75,27.61,25.11Z"/><polyline class="cls-4" points="408.37 474.3 417.55 484.25 431.53 465.03"/><polygon class="cls-3" points="414.99 454.32 417.8 454.32 420.54 454.32 420.54 450.14 414.99 450.14 414.99 454.32"/><path class="cls-3" d="m196.12,243.23c-3.41.33-5.91,3.36-5.59,6.78.33,3.41,3.36,5.91,6.78,5.59,3.41-.33,5.91-3.36,5.59-6.78-.33-3.41-3.36-5.91-6.78-5.59Z"/><path class="cls-3" d="m170.47,255.66s-1.25,22.39,12.7,22.39c11.05,0,12.85-15.84,13.12-22.43"/><rect class="cls-3" x="172.94" y="221.98" width="4.42" height="3.34"/><rect class="cls-3" x="163.58" y="221.95" width="4.42" height="3.34"/><path class="cls-3" d="m163.37,223.6c-6.53.78-6.3,5.87-6.3,14.57,0,9.49,4.8,17.48,13.4,17.48s13.4-7.99,13.4-17.48c0-8.72.24-13.81-6.33-14.58"/><rect class="cls-7" x="390" y="190" width="80" height="80" transform="translate(660 -200) rotate(90)"/><rect class="cls-8" x="320" y="200" width="10" height="10" transform="translate(650 410) rotate(-180)"/><rect class="cls-8" x="340" y="200" width="10" height="10" transform="translate(690 410) rotate(-180)"/><rect class="cls-8" x="350" y="230" width="10" height="10" transform="translate(710 470) rotate(-180)"/><rect class="cls-8" x="360" y="200" width="20" height="20"/><rect class="cls-8" x="370" y="230" width="10" height="10" transform="translate(750 470) rotate(-180)"/><rect class="cls-8" x="320" y="220" width="20" height="20"/><rect class="cls-10" x="450" y="280" width="10" height="10" transform="translate(170 740) rotate(-90)"/><rect class="cls-10" x="450" y="300" width="10" height="10" transform="translate(150 760) rotate(-90)"/><rect class="cls-10" x="420" y="310" width="10" height="10" transform="translate(110 740) rotate(-90)"/><rect class="cls-10" x="440" y="320" width="20" height="20" transform="translate(780 -120) rotate(90)"/><rect class="cls-10" x="420" y="330" width="10" height="10" transform="translate(90 760) rotate(-90)"/><rect class="cls-10" x="420" y="280" width="20" height="20" transform="translate(720 -140) rotate(90)"/><rect class="cls-7" x="60" y="460" width="10" height="10" transform="translate(130 930) rotate(-180)"/><rect class="cls-7" x="80" y="460" width="10" height="10" transform="translate(170 930) rotate(-180)"/><rect class="cls-7" x="90" y="490" width="10" height="10" transform="translate(190 990) rotate(-180)"/><rect class="cls-7" x="100" y="460" width="20" height="20"/><rect class="cls-7" x="110" y="490" width="10" height="10" transform="translate(230 990) rotate(-180)"/><rect class="cls-7" x="60" y="480" width="20" height="20"/><rect class="cls-6" x="360" y="500" width="10" height="10"/><rect class="cls-6" x="340" y="500" width="10" height="10"/><rect class="cls-6" x="330" y="470" width="10" height="10"/><rect class="cls-6" x="310" y="490" width="20" height="20" transform="translate(640 1000) rotate(-180)"/><rect class="cls-6" x="310" y="470" width="10" height="10"/><rect class="cls-6" x="350" y="470" width="20" height="20" transform="translate(720 960) rotate(-180)"/><rect class="cls-14" x="420" y="530" width="10" height="10" transform="translate(-110 960) rotate(-90)"/><rect class="cls-14" x="420" y="550" width="10" height="10" transform="translate(-130 980) rotate(-90)"/><rect class="cls-14" x="390" y="560" width="10" height="10" transform="translate(-170 960) rotate(-90)"/><rect class="cls-14" x="410" y="570" width="20" height="20" transform="translate(1000 160) rotate(90)"/><rect class="cls-14" x="390" y="580" width="10" height="10" transform="translate(-190 980) rotate(-90)"/><rect class="cls-14" x="390" y="530" width="20" height="20" transform="translate(940 140) rotate(90)"/><rect class="cls-13" x="520" y="480" width="10" height="10"/><rect class="cls-13" x="500" y="480" width="10" height="10"/><rect class="cls-13" x="490" y="450" width="10" height="10"/><rect class="cls-13" x="470" y="470" width="20" height="20" transform="translate(960 960) rotate(-180)"/><rect class="cls-13" x="470" y="450" width="10" height="10"/><rect class="cls-13" x="510" y="450" width="20" height="20" transform="translate(1040 920) rotate(-180)"/><rect class="cls-11" x="530" y="230" width="10" height="10"/><rect class="cls-11" x="510" y="230" width="10" height="10"/><rect class="cls-11" x="500" y="200" width="10" height="10"/><rect class="cls-11" x="480" y="220" width="20" height="20" transform="translate(980 460) rotate(-180)"/><rect class="cls-11" x="480" y="200" width="10" height="10"/><rect class="cls-11" x="520" y="200" width="20" height="20" transform="translate(1060 420) rotate(-180)"/><path class="cls-2" d="m430,202.23c-8.22,0-16.35,6.22-16.35,16.99s9.54,31.18,16.21,38.54c0,0,.05-.05.14-.14.09.09.14.14.14.14,6.68-7.36,16.21-26.81,16.21-38.54s-8.14-16.99-16.35-16.99Zm1.03,27.72c-5.92.57-11.17-3.76-11.74-9.68s3.76-11.17,9.68-11.74c5.92-.57,11.17,3.76,11.74,9.68.57,5.92-3.76,11.17-9.68,11.74Z"/><rect class="cls-10" x="230" y="440" width="10" height="10" transform="translate(-210 680) rotate(-90)"/><rect class="cls-14" x="230" y="270" width="10" height="10" transform="translate(-40 510) rotate(-90)"/><rect class="cls-6" x="355" y="445" width="10" height="10" transform="translate(810 90) rotate(90)"/><rect class="cls-11" x="210" y="420" width="10" height="10"/><rect class="cls-13" x="210" y="300" width="10" height="10" transform="translate(520 90) rotate(90)"/><rect class="cls-14" x="380" y="410" width="10" height="10" transform="translate(-30 800) rotate(-90)"/><rect class="cls-8" x="360" y="270" width="10" height="10" transform="translate(730 550) rotate(-180)"/><rect class="cls-10" x="380" y="290" width="10" height="10" transform="translate(90 680) rotate(-90)"/></svg>