<svg width="116" height="31" viewBox="0 0 116 31" fill="none" xmlns="http://www.w3.org/2000/svg">
<path d="M23.78 6.71991C23.81 10.6399 26.53 13.9099 30.11 14.7699C30.39 14.8399 30.44 14.9999 30.44 15.2599C30.42 17.0599 30.07 18.7999 29.4 20.4499C27.78 24.4199 24.96 27.2099 21 28.8899C14.14 31.7999 5.9 28.8499 2.26 22.0799C0.829998 19.4199 0.25 16.5699 0.54 13.5899C1.16 7.25991 5.47 2.42991 10.97 0.659913C12.74 0.089913 14.29 0.849911 14.98 1.96991C16.06 3.72991 15.49 6.26991 13.15 7.00991C10.1 7.97991 8.13 10.0399 7.4 13.1599C6.48 17.1299 8.66 21.0699 12.42 22.6899C15.9 24.1899 20.49 22.9399 22.71 19.2099C23.1 18.5599 23.08 18.5799 22.51 18.0799C21.04 16.7699 19.64 15.3599 18.94 13.4799C17.75 10.3099 20.22 6.76991 23.6 6.68991C23.66 6.68991 23.73 6.70991 23.79 6.71991H23.78Z" fill="white"/>
<path d="M62.9499 11.4101C62.7099 10.8801 62.45 10.3801 62.26 9.86007C62.22 9.76007 62.3899 9.52006 62.5199 9.42006C64.0499 8.32006 65.7899 7.68007 67.5899 7.18007C69.5399 6.64007 71.4999 6.66007 73.4499 7.15007C75.4699 7.65007 76.4699 9.10007 76.8199 11.0401C76.9599 11.8301 77.0199 12.6401 77.0299 13.4501C77.0499 17.1101 77.0299 20.7801 77.0299 24.4401C77.0299 24.6001 77.0299 24.7601 77.0299 25.0001C77.6199 25.0001 78.1799 25.0201 78.7399 25.0001C79.1299 24.9801 79.2399 25.1201 79.2399 25.5001C79.2399 26.8301 79.2599 26.8701 77.9699 27.1101C76.9499 27.3001 75.9199 27.4201 74.8899 27.4501C73.7599 27.4801 73.5399 27.0901 73.4299 25.9601C73.3999 25.6901 73.4299 25.4201 73.4299 25.0601C72.9599 25.4001 72.56 25.7201 72.15 26.0001C69.9499 27.4901 67.5799 27.8501 65.0699 26.9601C62.9299 26.2001 61.91 24.5701 61.65 22.3801C61.44 20.6601 61.96 19.1801 63.16 17.9601C64.12 16.9801 65.33 16.3701 66.62 15.9701C68.31 15.4501 70.04 15.1401 71.8 15.0701C72.19 15.0501 72.5699 14.9901 73.0199 14.9401C73.0399 13.6101 73.1399 12.2701 72.4899 11.0301C72.0199 10.1401 71.1599 9.90006 70.2499 9.81006C68.1299 9.59006 66.1499 10.1401 64.1999 10.8701C63.7899 11.0201 63.3999 11.2101 62.9499 11.4001V11.4101ZM73.1399 17.0101C71.3299 17.0601 69.64 17.2501 68.05 18.0501C66.07 19.0501 65.5499 21.0201 66.2799 23.0001C66.5899 23.8601 67.24 24.4001 68.16 24.5901C69.93 24.9401 71.4699 24.3201 72.9599 23.4601C73.0599 23.4001 73.1399 23.2301 73.1399 23.1101C73.1499 21.1001 73.1399 19.0901 73.1399 17.0101Z" fill="white"/>
<path d="M115.4 17.0101C115.5 19.6001 114.8 21.9301 113.17 23.9601C111.07 26.5801 108.26 27.5601 104.99 27.3101C102.79 27.1401 100.89 26.3101 99.41 24.6201C98.32 23.3801 97.66 21.9301 97.43 20.3101C97.24 18.9501 97.09 17.5701 97.14 16.2101C97.31 11.9001 100.01 8.19007 103.96 7.07007C106.77 6.27007 109.5 6.51007 111.93 8.25007C113.62 9.46007 114.57 11.2101 114.99 13.2201C115.25 14.4601 115.35 15.7301 115.53 16.9901C115.49 16.9901 115.45 17.0001 115.4 17.0101ZM106.46 25.2001C108.2 25.2301 109.47 24.3401 110.21 22.6601C110.98 20.9101 111.05 19.0501 111.09 17.1901C111.11 16.3701 111 15.5401 110.91 14.7301C110.76 13.3101 110.41 11.9601 109.62 10.7501C107.93 8.16007 104.14 8.27007 102.65 10.9801C102.33 11.5501 102.1 12.1901 101.95 12.8301C101.46 14.8701 101.44 16.9401 101.69 19.0101C101.85 20.3301 102.09 21.6401 102.74 22.8201C103.52 24.2301 104.58 25.2501 106.46 25.2001Z" fill="white"/>
<path d="M52.55 9.92016C52.55 10.1202 52.53 10.2802 52.53 10.4402C52.53 14.1502 52.53 17.8702 52.53 21.5802C52.53 22.2202 52.61 22.8702 52.7 23.5102C52.77 24.0302 53.08 24.3202 53.65 24.3702C55.08 24.5002 56.45 24.2202 57.82 23.8802C57.96 23.8502 58.1 23.8102 58.28 23.7602C58.47 24.2902 58.66 24.8002 58.82 25.3202C58.85 25.4202 58.76 25.6102 58.67 25.6702C56.43 27.0102 54.02 27.7502 51.39 27.4202C49.73 27.2102 48.83 26.2302 48.56 24.5402C48.48 24.0502 48.47 23.5402 48.46 23.0402C48.46 18.7802 48.46 14.5102 48.46 10.2502C48.46 10.1202 48.44 10.0002 48.43 9.82016H45.98C45.98 9.26016 45.98 8.75016 45.98 8.24016C45.98 8.18016 46.05 8.11016 46.11 8.07016C46.17 8.02016 46.25 7.99017 46.33 7.98017C47.92 7.68017 48.76 6.64017 49.2 5.16017C49.43 4.37017 49.78 3.62016 50.06 2.84016C50.16 2.57016 50.3 2.47017 50.59 2.48017C51.22 2.50017 51.85 2.48017 52.52 2.48017V7.19017C52.74 7.20017 52.91 7.22017 53.08 7.22017C54.67 7.22017 56.26 7.23017 57.85 7.22017C58.23 7.22017 58.37 7.31016 58.35 7.71016C58.32 8.28016 58.32 8.85017 58.35 9.41017C58.37 9.79017 58.24 9.91017 57.85 9.91017C56.21 9.89017 54.57 9.91017 52.93 9.91017C52.82 9.91017 52.71 9.93017 52.54 9.94017L52.55 9.92016Z" fill="white"/>
<path d="M81.63 27.0599C81.63 26.4499 81.61 25.9299 81.65 25.4199C81.65 25.2899 81.85 25.0999 81.97 25.0799C82.66 24.9799 83.35 24.8999 84.05 24.8499C84.35 24.8299 84.47 24.7299 84.47 24.4099C84.47 19.8699 84.47 15.3299 84.47 10.7999C84.47 10.4799 84.32 10.3899 84.07 10.3099C83.51 10.1499 82.96 9.96986 82.4 9.80986C82.12 9.72986 82.01 9.58987 82.02 9.28987C82.04 8.81987 82 8.34986 82.04 7.87986C82.05 7.73986 82.21 7.51987 82.33 7.49987C83.81 7.26987 85.3 7.05986 86.78 6.84986C87.28 6.77986 87.98 7.38987 87.98 7.89987C87.98 8.55987 87.98 9.22986 87.98 9.88986C87.98 10.0399 88 10.1999 88.02 10.4699C88.23 10.1999 88.37 10.0299 88.5 9.85987C89.73 8.34987 91.25 7.24986 93.18 6.84986C93.82 6.71986 94.5 6.77987 95.15 6.79987C95.27 6.79987 95.5 6.98986 95.5 7.08986C95.52 8.43986 95.52 9.79987 95.52 11.2299C94.44 10.7499 93.36 10.8499 92.3 10.8899C91.04 10.9399 89.85 11.2899 88.77 11.9499C88.63 12.0299 88.49 12.2499 88.49 12.3999C88.48 16.4699 88.49 20.5399 88.49 24.5999C88.49 24.6099 88.5 24.6299 88.55 24.7199C88.85 24.7499 89.2 24.7999 89.55 24.8199C90.63 24.8999 91.72 24.9799 92.8 25.0399C93.1 25.0599 93.19 25.1799 93.18 25.4599C93.15 25.9599 93.33 26.6299 93.07 26.9099C92.83 27.1699 92.14 27.0399 91.64 27.0399C88.51 27.0399 85.38 27.0399 82.25 27.0399C82.06 27.0399 81.87 27.0399 81.61 27.0399L81.63 27.0599Z" fill="white"/>
<path d="M23.79 6.73C23.79 5.58 23.79 4.43 23.79 3.28C23.8 1.45 25.27 0 27.11 0C29.36 0 31.62 0 33.87 0C35.61 0 36.99 1.27 37.18 3.05C37.35 4.63 36.21 6.22 34.62 6.59C34.32 6.66 34.01 6.69 33.71 6.69C30.48 6.69 27.26 6.69 24.03 6.69C23.95 6.69 23.87 6.7 23.79 6.71L23.8 6.72L23.79 6.73Z" fill="white"/>
</svg>
