<?xml version="1.0" encoding="UTF-8"?><svg id="Layer_1" xmlns="http://www.w3.org/2000/svg" viewBox="0 0 480 120"><defs><style>.cls-1{stroke-width:.74px;}.cls-1,.cls-2,.cls-3,.cls-4{stroke:#000;}.cls-1,.cls-2,.cls-4{fill:none;}.cls-1,.cls-3,.cls-4{stroke-miterlimit:10;}.cls-5{fill:#f3f3d1;}.cls-6{fill:#f4f4d2;}.cls-7{fill:#fffff3;}.cls-8{fill:#dfe57d;}.cls-9{fill:#c7dc00;}.cls-10{fill:#dee47d;}.cls-2{stroke-linejoin:bevel;}.cls-2,.cls-4{stroke-width:.5px;}.cls-3{stroke-width:.51px;}</style></defs><rect class="cls-6" x="410" y="30" width="40" height="40" transform="translate(860 100) rotate(180)"/><rect class="cls-9" x="60" y="60" width="40" height="40" transform="translate(160 0) rotate(90)"/><rect class="cls-10" x="200" y="20" width="80" height="80" transform="translate(300 -180) rotate(90)"/><rect class="cls-5" x="380" y="10" width="20" height="20" transform="translate(780 40) rotate(180)"/><rect class="cls-10" x="320" y="40" width="20" height="20" transform="translate(660 100) rotate(180)"/><rect class="cls-7" x="290" y="90" width="20" height="20" transform="translate(600 200) rotate(-180)"/><rect class="cls-7" x="160" y="0" width="20" height="20" transform="translate(340 20) rotate(-180)"/><rect class="cls-10" x="164.67" y="0" width="20" height="10" transform="translate(349.34 10) rotate(-180)"/><rect class="cls-10" x="30" y="70" width="20" height="20" transform="translate(80 160) rotate(180)"/><rect class="cls-10" x="120" y="90" width="20" height="20" transform="translate(260 200) rotate(180)"/><rect class="cls-5" x="290" y="0" width="20" height="20" transform="translate(600 20) rotate(-180)"/><rect class="cls-5" x="210" y="110" width="20" height="10" transform="translate(440 230) rotate(-180)"/><rect class="cls-5" x="140" y="30" width="20" height="20" transform="translate(300 80) rotate(180)"/><rect class="cls-5" x="80" y="10" width="20" height="20" transform="translate(180 40) rotate(180)"/><rect class="cls-7" x="40" y="0" width="20" height="20" transform="translate(100 20) rotate(180)"/><rect class="cls-5" x="10" y="30" width="20" height="20" transform="translate(40 80) rotate(180)"/><rect class="cls-7" x="340" y="110" width="20" height="10" transform="translate(700 230) rotate(180)"/><rect class="cls-8" x="390" y="90" width="20" height="20" transform="translate(800 200) rotate(180)"/><rect class="cls-9" x="430" y="90" width="20" height="20" transform="translate(880 200) rotate(180)"/><rect class="cls-10" x="470" y="0" width="10" height="20" transform="translate(950 20) rotate(180)"/><rect class="cls-7" x="380" y="40" width="20" height="20" transform="translate(780 100) rotate(180)"/><rect class="cls-9" x="460" y="110" width="10" height="10" transform="translate(930 230) rotate(180)"/><rect class="cls-9" x="420" y="10" width="10" height="10" transform="translate(850 30) rotate(180)"/><rect class="cls-9" x="300" y="70" width="10" height="10" transform="translate(610 150) rotate(-180)"/><rect class="cls-9" x="160" y="60" width="10" height="10" transform="translate(330 130) rotate(-180)"/><rect class="cls-9" x="40" y="30" width="10" height="10" transform="translate(90 70) rotate(180)"/><rect class="cls-9" x="10" y="70" width="10" height="10" transform="translate(30 150) rotate(180)"/><rect class="cls-9" x="53.5" y="110" width="10" height="10" transform="translate(116.99 230) rotate(180)"/><rect class="cls-9" x="258.07" y="110" width="10" height="10" transform="translate(526.14 230) rotate(-180)"/><rect class="cls-9" x="180" y="80" width="10" height="10" transform="translate(370 170) rotate(-180)"/><rect class="cls-5" x="350" y="70" width="10" height="10" transform="translate(710 150) rotate(-180)"/><rect class="cls-9" x="340" y="0" width="10" height="10" transform="translate(690 10) rotate(180)"/><rect class="cls-9" x="330" y="100" width="10" height="10" transform="translate(670 210) rotate(-180)"/><rect class="cls-9" x="470" y="50" width="10" height="10" transform="translate(950 110) rotate(180)"/><path class="cls-4" d="m88.62,76.38c-1.83.18-3.16,1.8-2.99,3.62.18,1.83,1.8,3.16,3.62,2.99,1.83-.18,3.16-1.8,2.99-3.62-.18-1.83-1.8-3.16-3.62-2.99Z"/><path class="cls-4" d="m74.91,83.03s-.67,11.97,6.79,11.97c5.91,0,6.87-8.47,7.02-12"/><rect class="cls-4" x="76.23" y="65.01" width="2.36" height="1.79"/><rect class="cls-4" x="71.22" y="65" width="2.36" height="1.79"/><path class="cls-4" d="m71.11,65.88c-3.49.42-3.37,3.14-3.37,7.79,0,5.08,2.57,9.35,7.16,9.35s7.16-4.27,7.16-9.35c0-4.66.13-7.38-3.38-7.8"/><polygon class="cls-2" points="420.75 56.32 417.87 51.34 415 56.32 416.07 56.32 416.07 64.84 419.67 64.84 419.67 56.32 420.75 56.32"/><polygon class="cls-2" points="428.7 54.4 425.82 49.42 422.95 54.4 424.02 54.4 424.02 64.84 427.62 64.84 427.62 54.4 428.7 54.4"/><polygon class="cls-2" points="436.65 49.55 433.77 44.57 430.9 49.55 431.97 49.55 431.97 64.84 435.57 64.84 435.57 49.55 436.65 49.55"/><polygon class="cls-2" points="444.6 43.08 441.72 38.1 438.85 43.08 439.92 43.08 439.92 64.84 443.52 64.84 443.52 43.08 444.6 43.08"/><polygon class="cls-2" points="434.65 36.97 434.98 37.64 435.72 37.75 435.18 38.27 435.31 39.01 434.65 38.66 433.98 39.01 434.11 38.27 433.57 37.75 434.31 37.64 434.65 36.97"/><polygon class="cls-2" points="439.6 35.16 439.85 35.67 440.41 35.75 440.01 36.15 440.1 36.7 439.6 36.44 439.1 36.7 439.19 36.15 438.79 35.75 439.35 35.67 439.6 35.16"/><polygon class="cls-2" points="436.65 42.04 436.96 42.68 437.67 42.78 437.16 43.28 437.28 43.99 436.65 43.65 436.01 43.99 436.13 43.28 435.62 42.78 436.33 42.68 436.65 42.04"/><circle class="cls-2" cx="438.26" cy="38.69" r=".59"/><circle class="cls-2" cx="444.23" cy="37.47" r=".77"/><path class="cls-1" d="m233.33,67.25v6.08h-20v-6.08c0-2.21,1.79-4,4-4h12c2.21,0,4,1.79,4,4Z"/><line class="cls-1" x1="218.17" y1="69.7" x2="218.17" y2="73.15"/><line class="cls-1" x1="228.5" y1="73.15" x2="228.5" y2="69.7"/><path class="cls-1" d="m228.5,56.44v4.32c-.44,1.03-1.18,1.9-2.1,2.5h-6.12c-.91-.59-1.64-1.45-2.08-2.45v-1.44c2.95,0,5.36-2.28,5.58-5.17,1.02,1.37,2.66,2.26,4.51,2.26.08,0,.15,0,.22,0Z"/><path class="cls-1" d="m229.84,55.27v7.98h-1.34v-6.81c-.07,0-.15,0-.22,0-1.85,0-3.48-.89-4.51-2.26.01-.15.02-.29.02-.44,0-.27-.02-.53-.06-.79-.08-.59-.26-1.16-.51-1.68h2.62c2.21,0,4,1.79,4,4Z"/><path class="cls-1" d="m228.5,56.44v6.81h-10.31v-3.9c2.95,0,5.36-2.28,5.58-5.17,1.02,1.37,2.66,2.26,4.51,2.26.08,0,.15,0,.22,0Z"/><path class="cls-1" d="m223.79,53.74c0,.15,0,.3-.02.44-.22,2.89-2.63,5.16-5.58,5.17v3.9h-1.34v-7.98c0-2.21,1.79-4,4-4h2.37c.25.52.43,1.08.51,1.68.04.26.06.52.06.79Z"/><rect class="cls-1" x="210" y="40" width="60" height="40"/><rect class="cls-1" x="213.33" y="46.6" width="20" height="26.67"/><line class="cls-1" x1="243.33" y1="46.81" x2="260" y2="46.81"/><line class="cls-1" x1="243.33" y1="48.82" x2="266.67" y2="48.82"/><line class="cls-1" x1="243.33" y1="51.04" x2="263.33" y2="51.04"/><line class="cls-1" x1="243.33" y1="53.05" x2="253.33" y2="53.05"/><rect class="cls-3" x="210" y="78.43" width="60" height="1.57"/><line class="cls-1" x1="243.33" y1="59.93" x2="253.33" y2="59.93"/><line class="cls-1" x1="260" y1="59.93" x2="266.67" y2="59.93"/><line class="cls-1" x1="243.33" y1="63.26" x2="250" y2="63.26"/><line class="cls-1" x1="260" y1="63.26" x2="266.67" y2="63.26"/><line class="cls-1" x1="243.33" y1="66.6" x2="253.33" y2="66.6"/><line class="cls-1" x1="263.33" y1="66.6" x2="266.67" y2="66.6"/><line class="cls-1" x1="243.33" y1="69.93" x2="250" y2="69.93"/><line class="cls-1" x1="260" y1="69.93" x2="266.67" y2="69.93"/></svg>